<svg width="30" height="30" viewBox="0 0 30 30" fill="none" xmlns="http://www.w3.org/2000/svg">
<path opacity="0.2" d="M15 30C23.2843 30 30 23.2843 30 15C30 6.71573 23.2843 0 15 0C6.71573 0 0 6.71573 0 15C0 23.2843 6.71573 30 15 30Z" fill="#98C03C"/>
<g clip-path="url(#clip0)">
<path d="M15.3556 17.915H14.6267V18.3824H15.3556V17.915Z" fill="#99BF18"/>
<path d="M21.8622 11.2157H18.0933V10.1425C18.0933 9.51931 17.56 9 16.92 9H13.08C12.44 9 11.9067 9.51931 11.9067 10.1425V11.2157H8.13778C7.51556 11.2157 7 11.7177 7 12.3236V15.8895C7.64 16.2184 10.4311 17.482 14.3422 17.6205V17.2397C14.3422 17.0146 14.52 16.8415 14.7511 16.8415H15.2311C15.4622 16.8415 15.64 17.0146 15.64 17.2397V17.6205C19.5689 17.482 22.3422 16.2184 22.9822 15.8895V12.3236C23 11.7177 22.4844 11.2157 21.8622 11.2157ZM17.4889 11.2157H12.5111V10.1425C12.5111 9.83089 12.76 9.58855 13.08 9.58855H16.9022C17.2222 9.58855 17.4711 9.83089 17.4711 10.1425V11.2157H17.4889Z" fill="#99BF18"/>
<path d="M15.6578 18.2954C15.6578 18.5205 15.48 18.6936 15.2489 18.6936H14.7689C14.5378 18.6936 14.36 18.5205 14.36 18.2954V17.8973C10.5911 17.7588 7.85333 16.599 7 16.1836V20.4938C7 21.0997 7.51556 21.6017 8.13778 21.6017H8.93778L9.11555 21.9998H9.98667L10.1644 21.6017H19.8533L20.0311 21.9998H20.9022L21.08 21.6017H21.88C22.5022 21.6017 23.0178 21.0997 23.0178 20.4938V16.1836C22.1644 16.599 19.4267 17.7588 15.6756 17.88L15.6578 18.2954Z" fill="#99BF18"/>
</g>
<defs>
<clipPath id="clip0">
<rect x="7" y="9" width="16" height="13" fill="white"/>
</clipPath>
</defs>
</svg>
