<svg width="34" height="30" viewBox="0 0 34 30" fill="none" xmlns="http://www.w3.org/2000/svg">
<path opacity="0.2" d="M16.8369 30C26.0612 30 33.539 23.2843 33.539 15C33.539 6.71573 26.0612 0 16.8369 0C7.61256 0 0.134766 6.71573 0.134766 15C0.134766 23.2843 7.61256 30 16.8369 30Z" fill="#98C03C"/>
<path fill-rule="evenodd" clip-rule="evenodd" d="M17.903 11H14.3494C12.6437 11 11.2222 12.1096 10.3693 13.589C8.37928 13.8356 6.81567 15.5616 6.81567 17.6575C6.81567 18.0274 6.95782 18.5205 6.95782 18.8904H8.09499C8.09499 18.7671 8.09499 18.6438 8.09499 18.5206V18.3973C8.09499 16.9178 9.23215 16.1781 10.6536 16.1781C12.0751 16.1781 13.2122 17.6575 13.2122 18.3973C13.2122 19.2603 13.2122 18.7671 13.2122 18.8904H20.8881C20.8881 18.7671 20.8881 19.2603 20.8881 18.3973C20.8881 17.5342 22.0253 16.1781 23.4467 16.1781C24.8682 16.1781 26.0054 17.6575 26.0054 18.3973C26.0054 19.2603 26.0054 18.7671 26.0054 18.8904H26.7161C26.8582 18.5205 26.8582 18.1507 26.8582 17.7808C26.8582 15.5616 24.5839 13.7123 21.8831 13.7123C21.741 13.7123 21.4567 13.7123 21.3145 13.7123C20.746 12.1096 19.4666 11 17.903 11ZM17.0502 11.863C19.0402 11.863 20.746 12.9726 20.746 14.2055H16.0551V11.863H17.0502ZM15.3444 12.2329V14.2055H11.5065C11.5065 12.8493 12.6437 11.863 14.0651 11.863H15.4866V12.2329H15.3444Z" fill="#99BF18"/>
<path fill-rule="evenodd" clip-rule="evenodd" d="M23.3045 19.9999C22.1673 19.9999 21.3145 19.2602 21.3145 18.2739C21.3145 17.2876 22.1673 16.5479 23.3045 16.5479C24.4417 16.5479 25.2945 17.2876 25.2945 18.2739C25.2945 19.2602 24.4417 19.9999 23.3045 19.9999ZM23.3045 19.0136C22.8781 19.0136 22.4516 18.767 22.4516 18.3972C22.4516 18.0273 22.8781 17.7807 23.3045 17.7807C23.7309 17.7807 24.1574 18.0273 24.1574 18.3972C24.1574 18.767 23.7309 19.0136 23.3045 19.0136Z" fill="#99BF18"/>
<path fill-rule="evenodd" clip-rule="evenodd" d="M10.6536 19.9999C9.51645 19.9999 8.66357 19.2602 8.66357 18.2739C8.66357 17.2876 9.51645 16.5479 10.6536 16.5479C11.7908 16.5479 12.6437 17.2876 12.6437 18.2739C12.6437 19.2602 11.6486 19.9999 10.6536 19.9999ZM10.6536 19.0136C10.2272 19.0136 9.80074 18.767 9.80074 18.3972C9.80074 18.0273 10.2272 17.7807 10.6536 17.7807C11.0801 17.7807 11.5065 18.0273 11.5065 18.3972C11.3643 18.767 11.0801 19.0136 10.6536 19.0136Z" fill="#99BF18"/>
</svg>
