<svg width="30" height="30" viewBox="0 0 30 30" fill="none" xmlns="http://www.w3.org/2000/svg">
<path opacity="0.2" d="M15 30C23.2843 30 30 23.2843 30 15C30 6.71573 23.2843 0 15 0C6.71573 0 0 6.71573 0 15C0 23.2843 6.71573 30 15 30Z" fill="#98C03C"/>
<path fill-rule="evenodd" clip-rule="evenodd" d="M15.1998 16.75L8.9873 15V19.9875C9.7748 19.9875 10.6498 20.1625 11.4373 20.3375C12.9248 20.6875 14.2373 21.3 15.1123 22H15.1998H15.2873C16.2498 21.3 17.4748 20.6875 18.9623 20.3375C19.8373 20.1625 20.6248 19.9875 21.4123 19.9875V15L15.1998 16.75C15.2873 16.75 15.1998 16.75 15.1998 16.75Z" fill="#99BF18"/>
<path fill-rule="evenodd" clip-rule="evenodd" d="M24.2123 15.2248V12.6873L24.9998 12.5123L15.1999 9.7998L5.3999 12.5123L15.1999 15.2248L23.5124 12.9498H23.6874V15.3123C23.4249 15.3998 23.1624 15.6623 23.1624 16.0123V17.5873H24.7373V16.0123C24.7373 15.6623 24.5623 15.3123 24.2123 15.2248Z" fill="#99BF18"/>
</svg>
