<svg width="30" height="30" viewBox="0 0 30 30" fill="none" xmlns="http://www.w3.org/2000/svg">
<path opacity="0.2" d="M15 30C23.2843 30 30 23.2843 30 15C30 6.71573 23.2843 0 15 0C6.71573 0 0 6.71573 0 15C0 23.2843 6.71573 30 15 30Z" fill="#98C03C"/>
<path d="M20.1579 19.2778H9.88418V14.7744C9.88418 11.9459 12.1834 9.65039 15.0249 9.65039C17.8625 9.65039 20.1655 11.9421 20.1655 14.7744L20.1579 19.2778ZM10.9994 15.589C10.9994 15.7793 11.1522 15.9316 11.3431 15.9316C11.5341 15.9316 11.6869 15.7793 11.6869 15.589V14.9495C11.6869 14.7591 11.5341 14.6069 11.3431 14.6069C11.1522 14.6069 10.9994 14.7591 10.9994 14.9495V15.589ZM13.7569 11.1084C13.6919 10.9295 13.4933 10.8381 13.3177 10.9028C13.226 10.9371 11.1063 11.7365 11.0452 13.8569C11.0414 14.0472 11.1904 14.2033 11.3775 14.2071C11.3813 14.2071 11.3851 14.2071 11.389 14.2071C11.5761 14.2071 11.7289 14.0587 11.7327 13.8759C11.7785 12.2124 13.5392 11.55 13.5545 11.5462C13.7301 11.4853 13.8218 11.2873 13.7569 11.1084Z" fill="#99BF18"/>
<path d="M9.25778 21.2226H20.62V21.2188H20.9484C21.3494 21.2188 21.6741 21.5423 21.6741 21.942V22.277C21.6741 22.6768 21.3494 23.0003 20.9484 23.0003H9.33416C8.93314 23.0003 8.60851 22.6768 8.60851 22.277V21.942C8.60851 21.5652 8.89495 21.2606 9.25778 21.2226Z" fill="#99BF18"/>
<path d="M15.0018 9.10635C14.723 9.10635 14.4939 8.88175 14.4939 8.60005V6.50631C14.4939 6.22841 14.723 6 15.0018 6C15.2806 6 15.5098 6.22841 15.5098 6.50631V8.60385C15.5098 8.88175 15.2806 9.10635 15.0018 9.10635Z" fill="#99BF18"/>
<path d="M6.50803 14.0137H8.61241C8.89121 14.0137 9.12036 14.2421 9.12036 14.52C9.12036 14.7979 8.89121 15.0263 8.61241 15.0263H6.50803C6.22923 15.0263 6.00008 14.7979 6.00008 14.52C6.0039 14.2421 6.22923 14.0137 6.50803 14.0137Z" fill="#99BF18"/>
<path d="M20.8835 14.52C20.8835 14.2421 21.1088 14.0137 21.3915 14.0137H23.492C23.7708 14.0137 24 14.2421 24 14.52C24 14.7979 23.7708 15.0263 23.492 15.0263H21.3877C21.1088 15.0263 20.8835 14.7979 20.8835 14.52Z" fill="#99BF18"/>
<path d="M21.8308 9.46444L20.2191 10.812C20.0052 10.991 19.6844 10.9643 19.5049 10.7511C19.3254 10.538 19.3522 10.2182 19.566 10.0393L21.1777 8.69166C21.3916 8.51274 21.7124 8.53938 21.8919 8.75256C22.0714 8.96575 22.0447 9.28171 21.8308 9.46444Z" fill="#99BF18"/>
<path d="M9.78481 10.812L8.1731 9.46444C7.95922 9.28552 7.92867 8.96575 8.11199 8.75256C8.2915 8.53938 8.61231 8.51274 8.82619 8.69166L10.4379 10.0393C10.6518 10.2182 10.6823 10.538 10.499 10.7511C10.3195 10.9643 9.99869 10.991 9.78481 10.812Z" fill="#99BF18"/>
</svg>
