<svg width="30" height="30" viewBox="0 0 30 30" fill="none" xmlns="http://www.w3.org/2000/svg">
<path opacity="0.2" d="M15 30C23.2843 30 30 23.2843 30 15C30 6.71573 23.2843 0 15 0C6.71573 0 0 6.71573 0 15C0 23.2843 6.71573 30 15 30Z" fill="#98C03C"/>
<path d="M12.8873 17.1347L13.6718 18.5233L11.6603 21.6736C11.4792 22.0052 12.0022 22.6684 12.2637 22.8342C12.5252 23 13.3499 23.1244 13.531 22.7927L14.7177 20.3886L15.985 22.6477C16.1861 23 16.6085 23.1036 16.9304 22.9171C17.2723 22.7098 17.3729 22.2746 17.1919 21.943L15.4419 18.8549L17.4735 14.6891C18.4792 14.9793 19.5856 14.544 20.1287 13.5699L21.9792 9.01036L21.6172 8.80311L20.0884 12.3472C19.9878 12.513 19.7867 12.5751 19.6057 12.4715C19.4649 12.3886 19.4045 12.1813 19.5051 11.9948L21.0338 8.45078L20.7924 8.3057L18.9218 11.6425C18.8212 11.8083 18.62 11.8705 18.439 11.7668C18.2781 11.6632 18.2177 11.456 18.3183 11.2694L20.189 7.93264L19.9476 7.78756L17.735 10.9378C17.6344 11.1036 17.4333 11.1658 17.2522 11.0622C17.0913 10.9585 17.031 10.7513 17.1315 10.5648L19.3442 7.43523L18.9821 7.22798L16.0856 11.1658C15.5424 12.1399 15.7235 13.342 16.4677 14.0881L14.4965 17.1762L8.80394 7C6.08842 8.61658 11.0769 18.1917 11.0769 18.1917L12.8873 17.1347ZM8.70337 7.89119L13.37 16.2021L11.2982 17.4249C9.60854 14.0674 7.95911 9.48705 8.70337 7.89119Z" fill="#99BF18"/>
<path d="M11 17.5L8.99997 12.5C8.19997 10.5 8.3333 8.33333 8.49997 7.5L13.5 16V16.5L11.5 17.5H11Z" fill="#99BF18"/>
</svg>
