<svg width="53" height="53" viewBox="0 0 53 53" fill="none" xmlns="http://www.w3.org/2000/svg">
<circle cx="26.674" cy="26.5014" r="26.0261" fill="#B8DDE9"/>
<path d="M40.57 31.1918L40.5469 31.1703C39.9043 30.5743 38.9348 30.4747 38.1891 30.9284L35.7739 32.3975C33.4282 33.8244 30.5936 34.1315 27.9968 33.2401C27.2039 32.9678 27.0521 31.913 27.74 31.4298L29.7827 29.9943L31.1167 31.0076C31.2069 31.0761 31.3196 31.1042 31.4276 31.0892C31.538 31.0741 31.6379 31.0158 31.7052 30.9271C31.7498 30.8684 32.1121 30.3875 32.6547 29.5571C33.2302 29.9386 33.9195 30.1615 34.6602 30.1615C36.6673 30.1615 38.3001 28.5286 38.3001 26.5216C38.3001 25.0231 37.3898 23.7336 36.0933 23.1761C36.4352 22.3976 36.7535 21.6116 37.0437 20.8308C37.1689 20.8439 37.2959 20.8508 37.4245 20.8508C39.4316 20.8508 41.0644 19.218 41.0644 17.2109C41.0644 15.2038 39.4316 13.571 37.4245 13.571C37.0339 13.571 36.6477 13.6335 36.2767 13.7568C36.0566 13.8299 35.9374 14.0677 36.0106 14.2878C36.0837 14.5079 36.3214 14.627 36.5416 14.554C36.827 14.4592 37.1241 14.4111 37.4245 14.4111C38.9683 14.4111 40.2243 15.6671 40.2243 17.2109C40.2243 18.7546 38.9683 20.0107 37.4245 20.0107C35.8807 20.0107 34.6247 18.7546 34.6247 17.2109C34.6247 16.5304 34.8725 15.8741 35.3222 15.3629C35.4755 15.1888 35.4586 14.9233 35.2843 14.7701C35.1102 14.6168 34.8447 14.6338 34.6915 14.808C34.249 15.3109 33.9573 15.9219 33.8413 16.5728L30.3131 15.5276C30.2064 15.496 30.0912 15.5079 29.9933 15.5612C29.8954 15.6144 29.8227 15.7043 29.791 15.8111C29.5328 16.6827 29.2269 17.5686 28.8806 18.452C28.2645 17.9738 27.4919 17.688 26.6533 17.688C24.6463 17.688 23.0134 19.3209 23.0134 21.3279C23.0134 22.9782 24.1177 24.3746 25.6259 24.8193C25.2132 25.4575 24.9529 25.8065 24.9498 25.8105C24.8107 25.9956 24.8476 26.2585 25.0324 26.3981L26.5554 27.549L22.6564 28.4043V28.3548C22.6564 27.7767 22.1861 27.3064 21.608 27.3064H19.9967C19.9226 26.8335 19.526 26.4703 19.0317 26.4531L13.4377 26.2584C13.1607 26.2477 12.8977 26.3495 12.6982 26.5422C12.4986 26.7351 12.3887 26.994 12.3887 27.2715V30.6059C12.3887 30.838 12.5767 31.026 12.8087 31.026C13.0408 31.026 13.2288 30.838 13.2288 30.6059V27.2715C13.2288 27.2073 13.262 27.1657 13.2818 27.1466C13.3015 27.1275 13.3428 27.0955 13.4085 27.098L19.0025 27.2927C19.0965 27.296 19.1701 27.3723 19.1701 27.4663V38.1661C19.1701 38.2601 19.0965 38.3363 19.0026 38.3396L13.4084 38.5344C13.3444 38.5362 13.3016 38.5049 13.2818 38.4858C13.2619 38.4667 13.2288 38.4251 13.2288 38.3609V32.2644C13.2288 32.0324 13.0408 31.8444 12.8087 31.8444C12.5767 31.8444 12.3887 32.0324 12.3887 32.2644V38.3608C12.3887 38.6383 12.4986 38.8973 12.6982 39.0901C12.889 39.2744 13.1374 39.3746 13.4012 39.3746C13.4134 39.3746 13.4255 39.3744 13.4376 39.3739L19.0317 39.1791C19.526 39.162 19.9226 38.7989 19.9967 38.3258H21.608C22.186 38.3258 22.6563 37.8556 22.6563 37.2775V37.1112L22.8544 37.1684C23.9167 37.4748 25.0132 37.6912 26.1134 37.8114C26.3444 37.8369 26.5514 37.67 26.5767 37.4394C26.6018 37.2089 26.4353 37.0015 26.2047 36.9762C25.1522 36.8612 24.1033 36.6543 23.0873 36.3611L22.6563 36.2368V29.2644L29.2582 27.8161C29.5206 27.7584 29.7862 27.8657 29.9351 28.0893C30.1314 28.3837 30.0582 28.7738 29.7687 28.9772L27.2569 30.7424C26.0106 31.6182 26.2833 33.5401 27.724 34.0347C30.5577 35.0075 33.6508 34.6723 36.2105 33.1152L38.6256 31.6461C39.0518 31.3867 39.6069 31.4444 39.975 31.7858L39.9982 31.8074C40.1498 31.948 40.2301 32.1394 40.2239 32.3461C40.2177 32.5528 40.1264 32.7391 39.9667 32.8706C36.5712 35.6657 32.2773 37.1605 27.881 37.0827C27.6492 37.0794 27.4576 37.2632 27.4534 37.4951C27.4493 37.7271 27.634 37.9185 27.8659 37.9227C27.9815 37.9247 28.0965 37.9258 28.212 37.9258C32.6882 37.9258 37.0401 36.3679 40.5006 33.5192C40.8452 33.2356 41.0504 32.817 41.0636 32.3709C41.0769 31.9247 40.8968 31.4949 40.57 31.1918ZM21.8162 37.2775C21.8162 37.3923 21.7228 37.4857 21.608 37.4857H20.0103V28.1466H21.608C21.7228 28.1466 21.8162 28.24 21.8162 28.3548V37.2775ZM37.46 26.5215C37.46 28.0653 36.204 29.3213 34.6602 29.3213C33.1164 29.3213 31.8604 28.0653 31.8604 26.5215C31.8604 24.9777 33.1164 23.7217 34.6602 23.7217C36.204 23.7217 37.46 24.9777 37.46 26.5215ZM23.8535 21.3279C23.8535 19.7841 25.1095 18.5281 26.6533 18.5281C28.1971 18.5281 29.4531 19.7841 29.4531 21.3279C29.4531 22.8717 28.1971 24.1277 26.6533 24.1277C25.1095 24.1277 23.8535 22.8717 23.8535 21.3279ZM29.0781 26.9955L27.6353 27.312L25.8646 25.974C26.023 25.7455 26.2519 25.4055 26.5296 24.9647C26.5707 24.9661 26.6118 24.9678 26.6533 24.9678C28.6603 24.9678 30.2932 23.335 30.2932 21.3279C30.2932 20.4884 30.0067 19.7149 29.5275 19.0985C29.8841 18.2157 30.202 17.328 30.4744 16.4515L33.792 17.4343C33.8826 18.9206 34.8688 20.1682 36.2167 20.6439C35.9307 21.4073 35.6171 22.1752 35.281 22.9356C35.0791 22.9007 34.8718 22.8815 34.6601 22.8815C32.653 22.8815 31.0202 24.5144 31.0202 26.5214C31.0202 27.4836 31.3961 28.3592 32.0079 29.0106C31.7029 29.4803 31.4539 29.8405 31.2838 30.0795L30.4794 29.4685C30.9497 28.9742 31.0283 28.2149 30.6342 27.6233C30.292 27.1097 29.6815 26.863 29.0781 26.9955Z" fill="white"/>
<path d="M17.2008 37.4017V36.0499C17.2008 35.7997 16.9981 35.597 16.7479 35.597C16.4977 35.597 16.2949 35.7997 16.2949 36.0499V37.4017C16.2949 37.6519 16.4977 37.8546 16.7479 37.8546C16.9981 37.8546 17.2008 37.6518 17.2008 37.4017Z" fill="white"/>
</svg>
