<svg width="55" height="56" viewBox="0 0 55 56" fill="none" xmlns="http://www.w3.org/2000/svg">
<circle opacity="0.5" cx="27.466" cy="27.9576" r="27.2209" fill="#C29FFB"/>
<g clip-path="url(#clip0)">
<path d="M26.998 25.614V26.169C26.6855 26.2791 26.4221 26.4962 26.2543 26.7819C26.0865 27.0676 26.0253 27.4035 26.0815 27.73C26.1376 28.0566 26.3075 28.3527 26.5611 28.566C26.8146 28.7792 27.1355 28.8959 27.4668 28.8953C27.5595 28.8953 27.6501 28.9228 27.7272 28.9743C27.8043 29.0258 27.8644 29.099 27.8999 29.1846C27.9353 29.2703 27.9446 29.3645 27.9265 29.4555C27.9085 29.5464 27.8638 29.6299 27.7983 29.6955C27.7327 29.761 27.6492 29.8057 27.5582 29.8238C27.4673 29.8418 27.3731 29.8326 27.2874 29.7971C27.2018 29.7616 27.1286 29.7015 27.077 29.6244C27.0255 29.5474 26.998 29.4567 26.998 29.364H26.0605C26.0617 29.6538 26.1525 29.9362 26.3203 30.1725C26.4881 30.4087 26.7248 30.5874 26.998 30.684V31.239H27.9355V30.684C28.2481 30.5739 28.5115 30.3568 28.6793 30.0711C28.847 29.7854 28.9083 29.4495 28.8521 29.123C28.796 28.7965 28.6261 28.5003 28.3725 28.2871C28.119 28.0738 27.7981 27.9571 27.4668 27.9578C27.3741 27.9578 27.2835 27.9303 27.2064 27.8788C27.1293 27.8273 27.0692 27.754 27.0337 27.6684C26.9982 27.5827 26.989 27.4885 27.0071 27.3976C27.0251 27.3066 27.0698 27.2231 27.1353 27.1576C27.2009 27.092 27.2844 27.0474 27.3753 27.0293C27.4663 27.0112 27.5605 27.0205 27.6462 27.0559C27.7318 27.0914 27.805 27.1515 27.8565 27.2286C27.9081 27.3057 27.9355 27.3963 27.9355 27.489H28.873C28.8718 27.1992 28.7811 26.9168 28.6133 26.6806C28.4455 26.4443 28.2088 26.2656 27.9355 26.169V25.614H26.998Z" fill="white"/>
<path d="M30.2793 22.3328C31.1492 22.3318 31.9833 21.9858 32.5984 21.3706C33.2135 20.7555 33.5596 19.9215 33.5605 19.0515C33.5605 18.9272 33.5112 18.808 33.4233 18.7201C33.3353 18.6321 33.2161 18.5828 33.0918 18.5828H30.2793C29.8423 18.5825 29.4098 18.6699 29.0072 18.8398C28.6046 19.0097 28.2402 19.2586 27.9355 19.5718V17.6453H30.2793C31.1492 17.6443 31.9833 17.2983 32.5984 16.6831C33.2135 16.068 33.5596 15.234 33.5605 14.364C33.5605 14.2397 33.5112 14.1205 33.4233 14.0326C33.3353 13.9446 33.2161 13.8953 33.0918 13.8953H30.2793C29.7122 13.8954 29.1549 14.0427 28.6619 14.3229C28.1689 14.6031 27.7571 15.0066 27.4668 15.4937C27.1765 15.0066 26.7647 14.6031 26.2717 14.3229C25.7787 14.0427 25.2214 13.8954 24.6543 13.8953H21.8418C21.7175 13.8953 21.5982 13.9446 21.5103 14.0326C21.4224 14.1205 21.373 14.2397 21.373 14.364C21.374 15.234 21.7201 16.068 22.3352 16.6831C22.9503 17.2983 23.7844 17.6443 24.6543 17.6453H26.998V19.5718C26.6934 19.2586 26.329 19.0097 25.9264 18.8398C25.5238 18.6699 25.0913 18.5825 24.6543 18.5828H21.8418C21.7175 18.5828 21.5982 18.6321 21.5103 18.7201C21.4224 18.808 21.373 18.9272 21.373 19.0515C21.374 19.9215 21.7201 20.7555 22.3352 21.3706C22.9503 21.9858 23.7844 22.3318 24.6543 22.3328H26.998V23.2937C25.6766 23.4143 24.4526 24.0397 23.5805 25.0398C22.7085 26.0399 22.2555 27.3377 22.3159 28.6632C22.3763 29.9887 22.9453 31.24 23.9047 32.1566C24.8641 33.0733 26.1399 33.5849 27.4668 33.5849C28.7937 33.5849 30.0695 33.0733 31.0289 32.1566C31.9883 31.24 32.5573 29.9887 32.6177 28.6632C32.6781 27.3377 32.2251 26.0399 31.3531 25.0398C30.481 24.0397 29.257 23.4143 27.9355 23.2937V22.3328H30.2793ZM30.2793 19.5203H32.5762C32.4674 20.0493 32.1795 20.5246 31.7611 20.8662C31.3427 21.2077 30.8194 21.3946 30.2793 21.3953H27.9824C28.0912 20.8662 28.3791 20.3909 28.7975 20.0494C29.2159 19.7078 29.7392 19.5209 30.2793 19.5203ZM30.2793 14.8328H32.5762C32.4674 15.3618 32.1795 15.8371 31.7611 16.1787C31.3427 16.5202 30.8194 16.7071 30.2793 16.7078H27.9824C28.0912 16.1787 28.3791 15.7034 28.7975 15.3619C29.2159 15.0203 29.7392 14.8334 30.2793 14.8328ZM24.6543 16.7078C24.1142 16.7071 23.5909 16.5202 23.1725 16.1787C22.7541 15.8371 22.4662 15.3618 22.3574 14.8328H24.6543C25.1944 14.8334 25.7177 15.0203 26.1361 15.3619C26.5545 15.7034 26.8424 16.1787 26.9512 16.7078H24.6543ZM24.6543 21.3953C24.1142 21.3946 23.5909 21.2077 23.1725 20.8662C22.7541 20.5246 22.4662 20.0493 22.3574 19.5203H24.6543C25.1944 19.5209 25.7177 19.7078 26.1361 20.0494C26.5545 20.3909 26.8424 20.8662 26.9512 21.3953H24.6543ZM31.6855 28.4265C31.6855 29.2609 31.4381 30.0766 30.9746 30.7703C30.511 31.4641 29.8521 32.0048 29.0812 32.3241C28.3104 32.6434 27.4621 32.727 26.6438 32.5642C25.8254 32.4014 25.0737 31.9996 24.4837 31.4096C23.8937 30.8196 23.4919 30.0679 23.3291 29.2496C23.1663 28.4312 23.2499 27.5829 23.5692 26.8121C23.8885 26.0412 24.4292 25.3823 25.123 24.9188C25.8168 24.4552 26.6324 24.2078 27.4668 24.2078C28.5851 24.2095 29.6572 24.6545 30.448 25.4453C31.2388 26.2361 31.6838 27.3082 31.6855 28.4265Z" fill="white"/>
<path d="M14.3418 13.8953H15.2793V14.8328H14.3418V13.8953Z" fill="white"/>
<path d="M14.3418 15.7703H15.2793V16.7078H14.3418V15.7703Z" fill="white"/>
<path d="M13.4043 14.8328H14.3418V15.7703H13.4043V14.8328Z" fill="white"/>
<path d="M15.2793 14.8328H16.2168V15.7703H15.2793V14.8328Z" fill="white"/>
<path d="M17.1543 19.5203H18.0918V20.4578H17.1543V19.5203Z" fill="white"/>
<path d="M17.1543 21.3953H18.0918V22.3328H17.1543V21.3953Z" fill="white"/>
<path d="M16.2168 20.4578H17.1543V21.3953H16.2168V20.4578Z" fill="white"/>
<path d="M18.0918 20.4578H19.0293V21.3953H18.0918V20.4578Z" fill="white"/>
<path d="M14.3418 25.1453H15.2793V26.0828H14.3418V25.1453Z" fill="white"/>
<path d="M14.3418 27.0203H15.2793V27.9578H14.3418V27.0203Z" fill="white"/>
<path d="M13.4043 26.0828H14.3418V27.0203H13.4043V26.0828Z" fill="white"/>
<path d="M15.2793 26.0828H16.2168V27.0203H15.2793V26.0828Z" fill="white"/>
<path d="M39.6543 13.8953H40.5918V14.8328H39.6543V13.8953Z" fill="white"/>
<path d="M39.6543 15.7703H40.5918V16.7078H39.6543V15.7703Z" fill="white"/>
<path d="M40.5918 14.8328H41.5293V15.7703H40.5918V14.8328Z" fill="white"/>
<path d="M38.7168 14.8328H39.6543V15.7703H38.7168V14.8328Z" fill="white"/>
<path d="M36.8418 19.5203H37.7793V20.4578H36.8418V19.5203Z" fill="white"/>
<path d="M36.8418 21.3953H37.7793V22.3328H36.8418V21.3953Z" fill="white"/>
<path d="M37.7793 20.4578H38.7168V21.3953H37.7793V20.4578Z" fill="white"/>
<path d="M35.9043 20.4578H36.8418V21.3953H35.9043V20.4578Z" fill="white"/>
<path d="M39.6543 25.1453H40.5918V26.0828H39.6543V25.1453Z" fill="white"/>
<path d="M39.6543 27.0203H40.5918V27.9578H39.6543V27.0203Z" fill="white"/>
<path d="M40.5918 26.0828H41.5293V27.0203H40.5918V26.0828Z" fill="white"/>
<path d="M38.7168 26.0828H39.6543V27.0203H38.7168V26.0828Z" fill="white"/>
<path d="M41.459 32.664C41.1472 32.1268 40.6357 31.7347 40.0359 31.5731C39.4362 31.4115 38.7969 31.4936 38.2574 31.8015L32.3887 35.1906C31.9504 34.7614 31.3615 34.5208 30.748 34.5203H25.3152L23.9371 33.1375C23.6318 32.8322 23.2693 32.5902 22.8704 32.4253C22.4714 32.2604 22.0438 32.1759 21.6121 32.1765H17.1543V31.239C17.1543 31.1147 17.1049 30.9955 17.017 30.9076C16.9291 30.8196 16.8099 30.7703 16.6855 30.7703H13.873C13.7487 30.7703 13.6295 30.8196 13.5416 30.9076C13.4537 30.9955 13.4043 31.1147 13.4043 31.239V41.5515C13.4043 41.6758 13.4537 41.7951 13.5416 41.883C13.6295 41.9709 13.7487 42.0203 13.873 42.0203H16.6855C16.8099 42.0203 16.9291 41.9709 17.017 41.883C17.1049 41.7951 17.1543 41.6758 17.1543 41.5515V40.3L22.8684 41.9312C23.0775 41.9893 23.2935 42.0193 23.5105 42.0203H29.309C29.7205 42.0207 30.1247 41.9123 30.4809 41.7062L40.6012 35.8656C41.1395 35.5548 41.5323 35.0429 41.6931 34.4425C41.854 33.842 41.7698 33.2023 41.459 32.664ZM16.2168 41.0828H14.3418V31.7078H16.2168V41.0828ZM40.7887 34.1968C40.741 34.3753 40.6585 34.5426 40.5458 34.689C40.4332 34.8354 40.2927 34.9581 40.1324 35.05L30.0121 40.8953C29.7977 41.0171 29.5556 41.0817 29.309 41.0828H23.5105C23.3803 41.0832 23.2508 41.0642 23.1262 41.0265L17.1543 39.325V33.114H21.6121C21.9206 33.1127 22.2263 33.1729 22.5113 33.2912C22.7962 33.4095 23.0547 33.5836 23.2715 33.8031L24.7902 35.3218C24.8796 35.4082 24.9988 35.4568 25.123 35.4578H30.748C30.9306 35.4568 31.1115 35.4919 31.2805 35.5611C31.4494 35.6303 31.603 35.7322 31.7324 35.8609C31.7927 35.923 31.849 35.9887 31.9012 36.0578C32.065 36.2948 32.1532 36.5759 32.1543 36.864C32.1532 37.2366 32.0047 37.5937 31.7412 37.8572C31.4777 38.1206 31.1207 38.2692 30.748 38.2703H25.123V39.2078H30.748C31.1336 39.2101 31.5136 39.1167 31.8542 38.936C32.1947 38.7553 32.4851 38.4929 32.6993 38.1723C32.9134 37.8518 33.0447 37.4831 33.0813 37.0993C33.1179 36.7155 33.0587 36.3287 32.909 35.9734L38.7262 32.6171C38.9669 32.478 39.2434 32.4134 39.5209 32.4314C39.7983 32.4494 40.0642 32.5492 40.2849 32.7182C40.5057 32.8873 40.6713 33.118 40.761 33.3812C40.8506 33.6443 40.8603 33.9282 40.7887 34.1968Z" fill="white"/>
</g>
<defs>
<clipPath id="clip0">
<rect width="30" height="30" fill="white" transform="translate(12.4668 12.9578)"/>
</clipPath>
</defs>
</svg>
