<svg width="30" height="30" viewBox="0 0 30 30" fill="none" xmlns="http://www.w3.org/2000/svg">
<path opacity="0.2" d="M15 30C23.2843 30 30 23.2843 30 15C30 6.71573 23.2843 0 15 0C6.71573 0 0 6.71573 0 15C0 23.2843 6.71573 30 15 30Z" fill="#98C03C"/>
<path d="M20.9962 14.3412C20.9962 14.7028 20.9962 14.8966 20.9962 15.0883C20.9962 17.1836 20.9852 19.2767 21.0049 21.3699C21.0093 21.8316 20.8606 22.0124 20.3862 21.9993C19.4178 21.9732 18.445 21.9754 17.4765 21.9906C17.118 21.9972 17.0153 21.8643 17.0196 21.5202C17.0328 20.0892 17.0262 18.656 17.024 17.225C17.024 16.2775 16.9847 16.2405 16.0118 16.2405C15.2576 16.2405 14.5034 16.2383 13.7492 16.2405C13.1087 16.2427 12.9841 16.3559 12.9819 16.9876C12.9754 18.473 12.9644 19.9585 12.9907 21.4439C12.9972 21.8752 12.8551 21.9972 12.4376 21.9841C11.5216 21.958 10.6034 21.9536 9.68964 21.9841C9.18028 22.0015 8.99664 21.8447 9.0032 21.3176C9.02725 19.2419 9.01413 17.164 9.01413 15.0883C9.01413 14.8944 9.01413 14.7006 9.01413 14.363C8.62064 14.6853 8.32333 14.9249 8.03257 15.1711C7.73964 15.4215 7.42265 15.5457 7.13627 15.2146C6.86519 14.901 7.0379 14.6222 7.31116 14.387C9.72024 12.3308 12.1337 10.2682 14.5428 8.2012C14.8554 7.9333 15.144 7.9333 15.4522 8.19902C17.8744 10.2769 20.301 12.3526 22.7254 14.4283C22.9921 14.657 23.1101 14.9271 22.8697 15.219C22.6073 15.5348 22.3013 15.4542 22.0214 15.2168C21.7219 14.9641 21.4268 14.7093 20.9962 14.3412Z" fill="#99BF18"/>
</svg>
