<svg width="37" height="37" viewBox="0 0 37 37" fill="none" xmlns="http://www.w3.org/2000/svg">
<circle cx="18.2547" cy="18.5125" r="18.031" fill="#8CB13D"/>
<path fill-rule="evenodd" clip-rule="evenodd" d="M7 19C7 25.0751 11.9249 30 18 30C24.0751 30 29 25.0751 29 19C29 12.9249 24.0751 8 18 8C11.9249 8 7 12.9249 7 19ZM27 19C27 23.9706 22.9706 28 18 28C13.0294 28 9 23.9706 9 19C9 14.0294 13.0294 10 18 10C22.9706 10 27 14.0294 27 19ZM19.0036 20.9983H20.003V22.9983H16.003V20.9983H17.003V18.9983H16.003V16.9983H19.0036V20.9983ZM19.0007 14.9983C19.0007 15.5506 18.5528 15.9983 18.0003 15.9983C17.4479 15.9983 17 15.5506 17 14.9983C17 14.4461 17.4479 13.9983 18.0003 13.9983C18.5528 13.9983 19.0007 14.4461 19.0007 14.9983Z" fill="white"/>
</svg>
