<svg width="127" height="20" viewBox="0 0 127 20" fill="none" xmlns="http://www.w3.org/2000/svg">
<path d="M3.13735 5.80532L4.89725 11.7959L6.48684 6.19723C6.65715 5.63736 6.77069 5.18947 6.88423 5.02151C6.94101 4.79757 7.11132 4.62961 7.3384 4.40566C7.56549 4.23771 7.90611 4.12573 8.30351 4.12573C8.70091 4.12573 9.04153 4.23771 9.26861 4.40566C9.4957 4.57362 9.66601 4.79757 9.77955 5.02151C9.8931 5.24546 10.0066 5.63736 10.177 6.19723L11.7665 11.7959L13.5832 5.80532C13.6968 5.35743 13.8103 5.0775 13.8671 4.85356C13.9238 4.62961 14.0374 4.46165 14.2645 4.34968C14.4348 4.18172 14.6619 4.12573 15.0025 4.12573C15.3431 4.12573 15.627 4.23771 15.854 4.46165C16.0811 4.6856 16.1947 4.96553 16.1947 5.24546C16.1947 5.52539 16.0811 5.91729 15.9108 6.47716L13.64 12.9156C13.4697 13.4754 13.2994 13.8674 13.1858 14.0913C13.0723 14.3152 12.902 14.5392 12.6749 14.7631C12.4478 14.9311 12.1072 15.0431 11.7098 15.0431C11.3124 15.0431 10.9717 14.9311 10.7447 14.7631C10.5176 14.5952 10.3473 14.3152 10.2337 14.0353C10.1202 13.7554 10.0066 13.3635 9.83632 12.8596L8.30351 7.59688L6.77069 12.8596C6.54361 13.5874 6.37329 14.1473 6.14621 14.4832C5.91913 14.8751 5.52173 15.0431 4.89725 15.0431C4.6134 15.0431 4.32954 14.9871 4.15923 14.8751C3.98891 14.7631 3.76183 14.5952 3.64829 14.3712C3.53475 14.1473 3.36443 13.9233 3.25089 13.5874C3.13735 13.3075 3.08058 13.0835 3.02381 12.9156L0.809741 6.47716C0.582657 5.86131 0.469116 5.4694 0.469116 5.24546C0.469116 4.96553 0.582657 4.6856 0.809741 4.46165C1.03683 4.23771 1.32068 4.12573 1.66131 4.12573C2.11547 4.12573 2.39933 4.23771 2.56964 4.51764C2.73996 4.79757 2.96704 5.18947 3.13735 5.80532Z" fill="white"/>
<path d="M25.3916 10.2282H20.0551C20.0551 10.8441 20.1686 11.404 20.4525 11.8518C20.6796 12.2997 21.0202 12.6916 21.4176 12.9156C21.815 13.1395 22.2692 13.2515 22.7233 13.2515C23.0639 13.2515 23.3478 13.1955 23.6317 13.1395C23.9155 13.0835 24.1426 12.9716 24.4264 12.8036C24.6535 12.6357 24.9374 12.4677 25.1077 12.2997C25.3348 12.1318 25.6186 11.8518 25.9593 11.5719C26.0728 11.4599 26.2999 11.404 26.5837 11.404C26.8676 11.404 27.0947 11.4599 27.265 11.6279C27.4353 11.7959 27.5488 12.0198 27.5488 12.2437C27.5488 12.4677 27.4353 12.7476 27.265 13.0835C27.0947 13.4195 26.7541 13.6994 26.4134 14.0353C26.016 14.3152 25.5619 14.5952 24.9374 14.7631C24.3697 14.9871 23.6884 15.0431 22.8936 15.0431C21.1337 15.0431 19.7712 14.5392 18.8061 13.5874C17.841 12.5797 17.3301 11.292 17.3301 9.55641C17.3301 8.7726 17.4436 8.04478 17.6707 7.37294C17.8978 6.7011 18.2384 6.08525 18.6926 5.63736C19.1467 5.13349 19.7145 4.79757 20.3957 4.51764C21.077 4.23771 21.815 4.12573 22.6098 4.12573C23.6884 4.12573 24.5968 4.34968 25.3348 4.79757C26.0728 5.24546 26.6405 5.80532 27.0379 6.53314C27.4353 7.26097 27.6056 7.9328 27.6056 8.66062C27.6056 9.33246 27.4353 9.78035 27.0379 9.94831C26.6405 10.1163 26.1296 10.2282 25.3916 10.2282ZM20.0551 8.71661H24.9942C24.9374 7.82083 24.6535 7.09301 24.2561 6.64512C23.802 6.19723 23.2343 5.97328 22.553 5.97328C21.8718 5.97328 21.304 6.19723 20.9066 6.64512C20.4525 7.14899 20.1686 7.82083 20.0551 8.71661Z" fill="white"/>
<path d="M36.8592 13.5314C36.178 14.0353 35.5535 14.4272 34.929 14.6511C34.3046 14.9311 33.6233 15.0431 32.8853 15.0431C32.204 15.0431 31.5795 14.9311 31.0686 14.6511C30.5577 14.3712 30.1603 14.0353 29.8196 13.5314C29.5358 13.0835 29.3655 12.5797 29.3655 12.0198C29.3655 11.292 29.5926 10.6761 30.0467 10.1163C30.5009 9.61238 31.1821 9.27646 31.9769 9.05252C32.1473 8.99653 32.6014 8.94055 33.2827 8.77259C33.9639 8.66061 34.5316 8.49265 35.0426 8.38068C35.5535 8.26871 36.0644 8.10075 36.6322 7.98878C36.5754 7.26096 36.4618 6.75708 36.178 6.42116C35.8941 6.08524 35.3832 5.91728 34.5884 5.91728C33.9072 5.91728 33.3962 6.02926 32.9988 6.19722C32.6582 6.36518 32.3743 6.64511 32.0905 7.03701C31.8634 7.42891 31.6363 7.65286 31.5795 7.76483C31.466 7.8768 31.2389 7.93279 30.8983 7.93279C30.6144 7.93279 30.3306 7.82082 30.1035 7.65286C29.8764 7.4849 29.7629 7.20497 29.7629 6.92504C29.7629 6.47715 29.9332 5.97327 30.2738 5.52538C30.6144 5.07749 31.1254 4.68559 31.8634 4.40565C32.6014 4.12572 33.453 3.95776 34.5316 3.95776C35.7238 3.95776 36.6889 4.06974 37.3702 4.34967C38.0514 4.6296 38.5624 5.07749 38.8462 5.69334C39.1301 6.30919 39.2436 7.093 39.2436 8.10075C39.2436 8.7166 39.2436 9.27646 39.2436 9.72435C39.2436 10.1722 39.2436 10.6761 39.2436 11.18C39.2436 11.6839 39.3004 12.1878 39.4707 12.7476C39.641 13.3075 39.6978 13.6434 39.6978 13.8114C39.6978 14.0913 39.5842 14.3152 39.3004 14.5392C39.0165 14.7631 38.7327 14.8751 38.3921 14.8751C38.1082 14.8751 37.8243 14.7631 37.5405 14.4832C37.427 14.4272 37.1431 14.0353 36.8592 13.5314ZM36.6322 9.66837C36.2348 9.83633 35.6671 9.9483 34.8723 10.1163C34.0775 10.2842 33.5665 10.3962 33.2827 10.4522C32.9988 10.5082 32.715 10.6761 32.4311 10.9001C32.1473 11.124 32.0337 11.4039 32.0337 11.7958C32.0337 12.1878 32.204 12.5237 32.4879 12.8596C32.8285 13.1395 33.2259 13.3075 33.7368 13.3075C34.2478 13.3075 34.7587 13.1955 35.2129 12.9716C35.6671 12.7476 36.0077 12.4117 36.2348 12.0758C36.4618 11.6839 36.6322 11.012 36.6322 10.0603V9.66837Z" fill="white"/>
<path d="M42.0823 13.4194V1.77424C42.0823 1.21438 42.1958 0.82247 42.4229 0.542539C42.65 0.262607 42.9906 0.150635 43.388 0.150635C43.7854 0.150635 44.126 0.262607 44.4099 0.542539C44.637 0.82247 44.8073 1.21438 44.8073 1.77424V13.4194C44.8073 13.9793 44.6937 14.3712 44.4099 14.6511C44.126 14.931 43.8422 15.043 43.388 15.043C42.9906 15.043 42.65 14.875 42.4229 14.5951C42.2526 14.3712 42.0823 13.9233 42.0823 13.4194Z" fill="white"/>
<path d="M47.8161 4.34963H48.1V2.72602C48.1 2.27813 48.1 1.94222 48.1567 1.71827C48.2135 1.49433 48.2703 1.27038 48.327 1.10242C48.4406 0.934462 48.6109 0.766504 48.7812 0.654531C49.0083 0.542559 49.1786 0.486572 49.4625 0.486572C49.8031 0.486572 50.1437 0.598545 50.4276 0.878476C50.5979 1.04644 50.7114 1.27038 50.7682 1.49433C50.825 1.71827 50.825 2.11018 50.825 2.55807V4.40561H51.8468C52.2442 4.40561 52.5281 4.51759 52.7552 4.68554C52.9823 4.8535 53.039 5.07745 53.039 5.35738C53.039 5.6933 52.8687 5.97323 52.5849 6.14119C52.301 6.30915 51.9036 6.36513 51.3359 6.36513H50.825V11.2359C50.825 11.6838 50.825 11.9638 50.8817 12.1877C50.9385 12.4117 50.9953 12.5796 51.1088 12.7476C51.2224 12.9155 51.4494 12.9715 51.7333 12.9715C51.9036 12.9715 52.1307 12.9715 52.3578 12.9155C52.6416 12.8595 52.8687 12.8595 52.9823 12.8595C53.2093 12.8595 53.3797 12.9715 53.55 13.1395C53.7203 13.3074 53.8338 13.5314 53.8338 13.8113C53.8338 14.2592 53.6067 14.5951 53.0958 14.8191C52.6416 15.043 51.9036 15.155 51.0521 15.155C50.2005 15.155 49.576 14.987 49.1218 14.7071C48.6677 14.4272 48.3838 14.0353 48.2703 13.5314C48.1567 13.0275 48.0432 12.3557 48.0432 11.5159V6.36513H47.7593C47.3619 6.36513 47.0781 6.25316 46.851 6.0852C46.6239 5.91724 46.5671 5.6933 46.5671 5.41337C46.5671 5.13344 46.6807 4.90949 46.9078 4.74153C47.1349 4.57357 47.3619 4.34963 47.8161 4.34963Z" fill="white"/>
<path d="M57.5238 1.77424V5.74927C57.8645 5.35736 58.2051 5.02144 58.5457 4.7975C58.8863 4.57355 59.227 4.4056 59.6244 4.29362C60.0218 4.18165 60.4759 4.12566 60.9301 4.12566C61.6114 4.12566 62.2358 4.29362 62.7468 4.57355C63.2577 4.85349 63.7119 5.30138 63.9957 5.80525C64.1661 6.14117 64.3364 6.47709 64.3931 6.86899C64.4499 7.2609 64.5067 7.70879 64.5067 8.26865V13.4194C64.5067 13.9793 64.3931 14.3712 64.1093 14.6511C63.8822 14.931 63.5416 15.043 63.0874 15.043C62.1791 15.043 61.7249 14.4831 61.7249 13.4194V8.8845C61.7249 8.04471 61.6114 7.37287 61.3275 6.92498C61.0436 6.47709 60.5895 6.25314 59.8515 6.25314C59.3405 6.25314 58.9431 6.36512 58.5457 6.64505C58.1483 6.92498 57.8645 7.31688 57.6942 7.76477C57.5238 8.15668 57.4671 8.8845 57.4671 9.89226V13.4194C57.4671 13.9233 57.3535 14.3712 57.1264 14.6511C56.8994 14.931 56.5587 15.043 56.1046 15.043C55.1962 15.043 54.7421 14.4831 54.7421 13.4194V1.77424C54.7421 1.21438 54.8556 0.82247 55.0827 0.542539C55.3098 0.262607 55.6504 0.150635 56.1046 0.150635C56.5587 0.150635 56.8994 0.262607 57.1264 0.542539C57.3535 0.82247 57.5238 1.21438 57.5238 1.77424Z" fill="white"/>
<path d="M69.7295 1.66234V5.74935C70.2405 5.24547 70.7514 4.79758 71.3191 4.51765C71.83 4.23771 72.5113 4.12574 73.3061 4.12574C74.2144 4.12574 75.0092 4.34969 75.6905 4.74159C76.3717 5.18948 76.8827 5.80533 77.28 6.58914C77.6774 7.37295 77.8478 8.32471 77.8478 9.44444C77.8478 10.2842 77.7342 11.0121 77.5071 11.6839C77.28 12.3557 76.9962 12.9716 76.5988 13.4755C76.2014 13.9793 75.6905 14.3712 75.1228 14.6512C74.555 14.9311 73.9306 15.0431 73.2493 15.0431C72.8519 15.0431 72.4545 14.9871 72.0571 14.8751C71.6597 14.7631 71.3759 14.6512 71.092 14.4832C70.8082 14.3153 70.6378 14.1473 70.4108 13.9793C70.2404 13.8114 70.0134 13.5314 69.6727 13.1955V13.4755C69.6727 13.9793 69.5592 14.3712 69.2753 14.5952C68.9915 14.8191 68.7076 14.9871 68.3102 14.9871C67.9128 14.9871 67.629 14.8751 67.4019 14.5952C67.1748 14.3153 67.0613 13.9793 67.0613 13.4755V1.71833C67.0613 1.15847 67.1748 0.766562 67.4019 0.486631C67.629 0.206699 67.9128 0.0947266 68.3102 0.0947266C68.7076 0.0947266 69.0483 0.206699 69.2753 0.486631C69.5024 0.766562 69.7295 1.15847 69.7295 1.66234ZM69.8998 9.66839C69.8998 10.7321 70.1269 11.5719 70.6379 12.1318C71.1488 12.6916 71.7733 12.9716 72.5681 12.9716C73.2493 12.9716 73.817 12.6916 74.328 12.0758C74.8389 11.5159 75.066 10.6202 75.066 9.55641C75.066 8.82859 74.9524 8.21274 74.7821 7.70887C74.555 7.20499 74.2712 6.81309 73.9306 6.53315C73.5899 6.25322 73.1358 6.14125 72.6248 6.14125C72.1139 6.14125 71.6597 6.25322 71.2623 6.53315C70.8649 6.81309 70.5243 7.20499 70.2972 7.76485C70.0134 8.26873 69.8998 8.94057 69.8998 9.66839Z" fill="white"/>
<path d="M86.8179 13.5314V13.1955C86.4773 13.5874 86.1367 13.9233 85.7961 14.2033C85.4554 14.4832 85.058 14.7071 84.6039 14.8191C84.1497 14.9311 83.6955 15.0431 83.1278 15.0431C82.4466 15.0431 81.8789 14.9311 81.3679 14.6512C80.857 14.3712 80.4596 14.0353 80.1757 13.5314C79.8351 12.9716 79.6648 12.1318 79.6648 11.068V5.74934C79.6648 5.18947 79.7783 4.79757 80.0622 4.51764C80.2893 4.23771 80.6299 4.12573 81.0273 4.12573C81.4247 4.12573 81.7653 4.23771 82.0492 4.51764C82.2763 4.79757 82.4466 5.18947 82.4466 5.69335V10.0043C82.4466 10.6201 82.5033 11.124 82.6169 11.5719C82.7304 12.0198 82.9007 12.2997 83.1846 12.5797C83.4684 12.8596 83.8091 12.9156 84.32 12.9156C84.7742 12.9156 85.2283 12.8036 85.6257 12.5237C86.0231 12.2437 86.307 11.9078 86.5341 11.4599C86.7044 11.068 86.7612 10.2282 86.7612 8.94056V5.69335C86.7612 5.18947 86.8747 4.74158 87.1586 4.51764C87.3856 4.23771 87.7263 4.12573 88.1237 4.12573C88.5211 4.12573 88.8617 4.23771 89.0888 4.51764C89.3159 4.79757 89.4862 5.18947 89.4862 5.74934V13.5314C89.4862 14.0353 89.3726 14.4272 89.1455 14.7071C88.9185 14.9871 88.5778 15.0991 88.2372 15.0991C87.8966 15.0991 87.556 14.9871 87.3289 14.7071C86.9315 14.3712 86.8179 14.0353 86.8179 13.5314Z" fill="white"/>
<path d="M99.5344 13.5314V13.2514C99.1938 13.6433 98.7964 13.9793 98.4557 14.2592C98.1151 14.5391 97.7177 14.7071 97.3203 14.875C96.9229 15.043 96.4687 15.099 95.9578 15.099C95.3333 15.099 94.7088 14.987 94.1411 14.7071C93.5734 14.4271 93.1193 14.0352 92.7219 13.5314C92.3245 13.0275 91.9838 12.4116 91.8135 11.7398C91.5864 11.068 91.4729 10.3401 91.4729 9.50035C91.4729 7.82076 91.8703 6.53308 92.7219 5.58131C93.5734 4.62954 94.6521 4.18165 96.0146 4.18165C96.8094 4.18165 97.4339 4.29362 98.0016 4.57355C98.5125 4.85349 99.0802 5.24539 99.5912 5.80525V1.83022C99.5912 1.27036 99.7047 0.878457 99.9318 0.598525C100.159 0.318594 100.499 0.150635 100.897 0.150635C101.294 0.150635 101.635 0.262607 101.862 0.542539C102.089 0.82247 102.203 1.15839 102.203 1.66227V13.5314C102.203 14.0352 102.089 14.4271 101.862 14.7071C101.635 14.987 101.294 15.099 100.954 15.099C100.556 15.099 100.272 14.987 100.045 14.7071C99.6479 14.3712 99.5344 13.9793 99.5344 13.5314ZM94.1979 9.55634C94.1979 10.2842 94.3114 10.9 94.5385 11.4039C94.7656 11.9078 95.1062 12.2997 95.5036 12.5796C95.901 12.8595 96.3552 12.9715 96.8094 12.9715C97.2635 12.9715 97.7177 12.8595 98.1151 12.5796C98.5125 12.3557 98.8531 11.9637 99.0802 11.4599C99.3073 10.956 99.4208 10.3401 99.4208 9.55634C99.4208 8.82851 99.3073 8.21267 99.0802 7.70879C98.8531 7.20491 98.5125 6.81301 98.1151 6.53308C97.7177 6.25314 97.2635 6.14117 96.8094 6.14117C96.2984 6.14117 95.8443 6.25314 95.4469 6.53308C95.0495 6.81301 94.7656 7.20491 94.5385 7.70879C94.3114 8.26865 94.1979 8.8845 94.1979 9.55634Z" fill="white"/>
<path d="M112.308 13.5314V13.2514C111.967 13.6433 111.57 13.9793 111.229 14.2592C110.889 14.5391 110.491 14.7071 110.094 14.875C109.696 15.043 109.242 15.099 108.731 15.099C108.107 15.099 107.482 14.987 106.915 14.7071C106.347 14.4271 105.893 14.0352 105.495 13.5314C105.098 13.0275 104.757 12.4116 104.587 11.7398C104.36 11.068 104.246 10.3401 104.246 9.50035C104.246 7.82076 104.644 6.53308 105.495 5.58131C106.347 4.62954 107.426 4.18165 108.788 4.18165C109.583 4.18165 110.207 4.29362 110.775 4.57355C111.286 4.85349 111.854 5.24539 112.365 5.80525V1.83022C112.365 1.27036 112.478 0.878457 112.705 0.598525C112.932 0.318594 113.273 0.150635 113.67 0.150635C114.068 0.150635 114.408 0.262607 114.636 0.542539C114.863 0.82247 114.976 1.15839 114.976 1.66227V13.5314C114.976 14.0352 114.863 14.4271 114.636 14.7071C114.408 14.987 114.068 15.099 113.727 15.099C113.33 15.099 113.046 14.987 112.819 14.7071C112.478 14.3712 112.308 13.9793 112.308 13.5314ZM106.971 9.55634C106.971 10.2842 107.085 10.9 107.312 11.4039C107.539 11.9078 107.88 12.2997 108.277 12.5796C108.675 12.8595 109.129 12.9715 109.583 12.9715C110.037 12.9715 110.491 12.8595 110.889 12.5796C111.286 12.3557 111.627 11.9637 111.854 11.4599C112.081 10.956 112.194 10.3401 112.194 9.55634C112.194 8.82851 112.081 8.21267 111.854 7.70879C111.627 7.20491 111.286 6.81301 110.889 6.53308C110.491 6.25314 110.037 6.14117 109.583 6.14117C109.072 6.14117 108.618 6.25314 108.22 6.53308C107.823 6.81301 107.539 7.20491 107.312 7.70879C107.085 8.26865 106.971 8.8845 106.971 9.55634Z" fill="white"/>
<path d="M120.142 15.379L120.369 14.7631L117.02 6.42117C116.793 5.91729 116.736 5.58138 116.736 5.35743C116.736 5.13349 116.793 4.90954 116.906 4.74158C117.02 4.51764 117.19 4.40566 117.417 4.29369C117.644 4.18172 117.872 4.12573 118.099 4.12573C118.496 4.12573 118.78 4.23771 119.007 4.51764C119.234 4.74158 119.404 5.13349 119.518 5.58138L121.846 12.1878L124.06 6.02927C124.23 5.52539 124.4 5.13349 124.514 4.85356C124.627 4.57362 124.798 4.40566 124.968 4.29369C125.138 4.18172 125.365 4.12573 125.649 4.12573C125.876 4.12573 126.047 4.18172 126.217 4.29369C126.387 4.40566 126.558 4.57362 126.671 4.74158C126.785 4.90954 126.841 5.13349 126.841 5.30145C126.841 5.41342 126.785 5.58138 126.728 5.80532C126.671 6.02927 126.614 6.25321 126.501 6.47716L122.867 15.7149C122.584 16.4987 122.243 17.1705 121.959 17.6184C121.675 18.0663 121.278 18.4582 120.824 18.6822C120.313 18.9061 119.688 19.0741 118.893 19.0741C118.099 19.0741 117.474 18.9621 117.077 18.7941C116.679 18.6262 116.452 18.2903 116.452 17.8424C116.452 17.5065 116.566 17.2825 116.736 17.1146C116.906 16.9466 117.19 16.8906 117.588 16.8906C117.758 16.8906 117.872 16.8906 118.042 16.9466C118.212 17.0026 118.382 17.0026 118.496 17.0026C118.837 17.0026 119.064 16.9466 119.234 16.8906C119.404 16.8346 119.575 16.6667 119.745 16.3867C119.915 16.1068 119.972 15.8269 120.142 15.379Z" fill="white"/>
</svg>
