<svg width="35" height="22" viewBox="0 0 35 22" fill="none" xmlns="http://www.w3.org/2000/svg">
<path d="M21.8859 2.78088H12.585V19.5032H21.8859V2.78088Z" fill="#FF5F00"/>
<path d="M13.1776 11.1414C13.1754 9.53116 13.5398 7.94159 14.243 6.49308C14.9463 5.04458 15.97 3.77513 17.2366 2.78095C15.6669 1.54348 13.7805 0.772936 11.7933 0.557503C9.80607 0.342069 7.79835 0.690448 5.99989 1.56277C4.20143 2.43509 2.68489 3.79611 1.62382 5.49008C0.562741 7.18404 0 9.14251 0 11.1414C0 13.1402 0.562741 15.0987 1.62382 16.7927C2.68489 18.4866 4.20143 19.8476 5.99989 20.72C7.79835 21.5923 9.80607 21.9407 11.7933 21.7252C13.7805 21.5098 15.6669 20.7393 17.2366 19.5018C15.9719 18.5059 14.9496 17.2361 14.2465 15.788C13.5434 14.3398 13.1779 12.7511 13.1776 11.1414Z" fill="#EB001B"/>
<path d="M34.4418 11.1413C34.4461 13.1385 33.8873 15.0963 32.8295 16.7903C31.7718 18.4844 30.2579 19.8459 28.4616 20.7187C26.6654 21.5916 24.6594 21.9404 22.6739 21.7251C20.6884 21.5099 18.8038 20.7393 17.2363 19.5018C18.5012 18.506 19.5237 17.2363 20.2267 15.7881C20.9297 14.3399 21.295 12.7511 21.295 11.1413C21.295 9.53155 20.9297 7.94275 20.2267 6.49459C19.5237 5.04643 18.5012 3.77666 17.2363 2.78092C18.8038 1.54339 20.6884 0.772803 22.6739 0.557549C24.6594 0.342294 26.6654 0.691096 28.4616 1.56394C30.2579 2.43679 31.7718 3.79832 32.8295 5.49233C33.8873 7.18635 34.4461 9.14422 34.4418 11.1413ZM33.4195 17.7282V17.3783H33.5543V17.298H33.2044V17.3783H33.3392V17.7282H33.4195ZM34.1192 17.7282V17.3253H34.0116L33.8769 17.6206L33.7421 17.3253H33.6346V17.7282H33.7148V17.4056L33.8224 17.6751H33.9027L34.0102 17.407V17.7296L34.1192 17.7282Z" fill="#F79E1B"/>
</svg>
