<svg width="49" height="30" viewBox="0 0 49 30" fill="none" xmlns="http://www.w3.org/2000/svg">
<path d="M29.9909 14.9999C29.9909 23.2859 23.2785 29.9998 14.9955 29.9998C6.71242 29.9998 0 23.2844 0 14.9999C0 6.71538 6.71406 0 14.9955 0C23.2769 0 29.9909 6.71538 29.9909 14.9999Z" fill="#E2574C"/>
<path d="M33.0045 0C29.6415 0 26.5454 1.12052 24.0435 2.99107L24.0555 2.99255C24.5475 3.468 25.0904 3.80262 25.509 4.34997L22.3889 4.39949C21.9 4.89304 21.4545 5.43002 21.0345 5.98806H26.5364C26.9549 6.49049 27.3418 6.92711 27.6929 7.48203H20.037C19.7565 7.96505 19.4971 8.46156 19.2705 8.97748H28.5645C28.8075 9.49192 29.025 9.88051 29.2096 10.4251H18.7201C18.5536 10.9426 18.4111 11.472 18.303 12.012H29.649C29.7601 12.531 29.8455 13.0109 29.904 13.5H18.0779C18.0284 13.9936 18.0029 14.4945 18.0029 15.0001H29.9894C29.9894 15.5311 29.9519 16.023 29.8979 16.5001H18.0779C18.1289 17.0087 18.204 17.5081 18.303 18.0002H29.6309C29.514 18.4862 29.3789 18.9751 29.2094 19.4822H18.6855C18.8444 19.9951 19.0381 20.4931 19.2495 20.9791H28.5645C28.3066 21.5251 28.0141 21.9616 27.6916 22.4731H20.0102C20.3132 22.998 20.6477 23.499 21.0106 23.979L26.5365 24.0615C26.0655 24.6269 25.4611 24.9675 24.9105 25.4625C24.9404 25.4865 24.03 25.4595 22.2374 25.4311C24.9644 28.2451 28.7759 30 33.0043 30C41.2889 30 48.0042 23.2845 48.0042 15.0001C48.0042 6.71571 41.2903 0 33.0045 0Z" fill="#F4B459"/>
</svg>
