<svg width="55" height="55" viewBox="0 0 55 55" fill="none" xmlns="http://www.w3.org/2000/svg">
<circle opacity="0.5" cx="27.6735" cy="27.5124" r="27.2209" fill="#8CB13D"/>
<g clip-path="url(#clip0)">
<path d="M31.6709 19.4039H31.7059C31.706 19.4039 31.6787 19.3354 31.6709 19.4039Z" fill="white"/>
<path d="M23.2061 19.4039H23.2411C23.2333 19.3354 23.2061 19.4039 23.2061 19.4039Z" fill="white"/>
<path d="M40.1249 21.5621C39.9282 21.2481 39.6211 21.0295 39.26 20.9465L37.3582 20.5095L38.2363 20.2637C38.9639 20.0601 39.4022 19.2831 39.1983 18.5541C38.9946 17.8266 38.2176 17.3884 37.4886 17.5922L33.3943 18.7381C33.2877 18.5442 33.1361 18.3782 32.9536 18.2547C33.7845 16.7083 34.9816 14.0842 34.9816 12.9553C34.9816 12.6799 34.7213 12.4669 34.4513 12.5213C32.8264 12.8496 31.3115 13.001 29.8217 12.9848C28.2904 12.968 26.3847 12.7778 25.1872 12.5223C24.817 12.4433 24.52 12.8576 24.7152 13.183C25.007 13.6694 25.1858 14.1836 25.284 14.7018C23.7812 14.7479 22.2226 14.5658 21.043 13.9759C20.7253 13.817 20.3502 14.095 20.4083 14.4447C20.7793 16.6705 21.5278 17.9755 22.2782 18.9614H22.2616C21.4968 18.9614 20.8745 19.5837 20.8745 20.3485C20.8745 21.0519 21.401 21.6343 22.0804 21.7234C21.5851 22.553 20.8778 23.3401 20.1346 24.166C18.5541 25.9224 16.7627 27.9132 16.16 31.1276C15.8716 32.6657 15.8812 34.1048 16.1887 35.4051C16.4757 36.619 17.0223 37.7179 17.8133 38.6709C18.8632 39.9361 20.3057 40.9177 22.1007 41.5887C23.7176 42.1931 25.5693 42.5126 27.4558 42.5126C29.3423 42.5126 31.1941 42.1931 32.8109 41.5887C34.6059 40.9177 36.0484 39.936 37.0984 38.6709C37.8893 37.7179 38.436 36.6191 38.7229 35.4051C39.0303 34.1048 39.04 32.6656 38.7516 31.1276C38.1489 27.9133 36.3576 25.9225 34.7771 24.1661C34.2406 23.5698 33.7301 23.0012 33.3021 22.4242L38.6388 23.6504C39.2042 23.7803 39.8066 23.5329 40.1189 23.0444C40.4048 22.5971 40.4065 22.0114 40.1249 21.5621ZM29.812 13.8701C31.1751 13.885 32.5546 13.7658 34.0118 13.5061C33.7446 14.5985 32.8866 16.5413 32.0728 18.0214C31.5088 18.0638 31.0381 18.4448 30.8636 18.9614H29.6345C29.6067 18.9016 29.576 18.836 29.5417 18.7632C29.1617 17.9553 28.3708 16.2742 28.3708 14.844C28.3708 14.5691 28.1111 14.356 27.8412 14.41C27.3261 14.513 26.7593 14.5964 26.1696 14.6487C26.1077 14.2793 26.0118 13.9094 25.8724 13.5455C27.0618 13.7296 28.5601 13.8563 29.812 13.8701ZM32.6796 19.404V21.2928C32.6796 21.5694 32.4545 21.7946 32.1778 21.7946C31.9012 21.7946 31.6761 21.5695 31.6761 21.2928V19.404C31.6761 19.1273 31.9012 18.9023 32.1778 18.9023C32.4545 18.9023 32.6796 19.1274 32.6796 19.404ZM21.4403 15.0969C22.547 15.4746 23.9084 15.6422 25.3787 15.5905L26.2561 15.535C26.67 15.4971 27.0898 15.4424 27.5128 15.3709C27.6509 16.7404 28.2765 18.1477 28.6567 18.9614H25.709H24.7777H23.408C23.3981 18.9458 23.3875 18.9306 23.3755 18.9161C22.635 18.0253 21.8837 16.9949 21.4403 15.0969ZM34.1189 24.7582C35.6216 26.428 37.3245 28.3206 37.8815 31.2906C38.394 34.0242 37.9013 36.3169 36.417 38.1053C34.5869 40.3105 31.2369 41.6271 27.4559 41.6271C23.6748 41.6271 20.3248 40.3105 18.4946 38.1053C17.0104 36.317 16.5177 34.0242 17.0302 31.2907C17.5871 28.3206 19.2902 26.4279 20.7928 24.7582C21.6912 23.7597 22.54 22.8153 23.0839 21.7356H24.1651C24.4097 21.7356 24.6078 21.5373 24.6078 21.2929C24.6078 21.0484 24.4096 20.8502 24.1651 20.8502H22.2615C21.9848 20.8502 21.7598 20.6251 21.7598 20.3485C21.7598 20.0718 21.9848 19.8467 22.2615 19.8467H30.7907V20.8502H26.2752C26.0306 20.8502 25.8325 21.0484 25.8325 21.2928C25.8325 21.5373 26.0307 21.7355 26.2752 21.7355H30.8635C31.0487 22.2838 31.5677 22.6799 32.1778 22.6799C32.2483 22.6799 32.3174 22.6745 32.3851 22.6644C32.8792 23.3791 33.4814 24.0498 34.1189 24.7582ZM33.565 19.6098L37.7272 18.4449C37.9908 18.371 38.272 18.5298 38.3456 18.7928C38.4193 19.0564 38.2608 19.3375 37.9977 19.4111L35.619 20.0769C35.5996 20.0823 35.5811 20.0894 35.5631 20.0972L33.565 19.6381V19.6098ZM39.4384 22.4107C39.3764 22.6803 39.1071 22.8494 38.837 22.7873L33.5372 21.5696C33.5553 21.4802 33.5649 21.3876 33.5649 21.2928V20.5464L39.0617 21.8093C39.3281 21.8706 39.4996 22.144 39.4384 22.4107Z" fill="white"/>
<path d="M30.2888 30.7074C30.9234 30.7074 31.4398 30.191 31.4398 29.5564V28.8481C31.4398 27.1917 30.2044 25.8187 28.6066 25.602V24.8343C28.6066 24.1997 28.0903 23.6833 27.4556 23.6833C26.8209 23.6833 26.3046 24.1996 26.3046 24.8343V25.6606C24.6641 26.0265 23.4713 27.4848 23.4713 29.2022C23.4713 31.2038 25.0997 32.8323 27.1014 32.8323H27.8096C28.5419 32.8323 29.1377 33.428 29.1377 34.1604C29.1377 34.8927 28.542 35.4885 27.8096 35.4885H26.7472C26.2101 35.4885 25.7732 35.0515 25.7732 34.5145C25.7732 33.8799 25.2569 33.3635 24.6222 33.3635C23.9876 33.3635 23.4712 33.8798 23.4712 34.5145C23.4712 36.1708 24.7066 37.5439 26.3044 37.7606V38.5283C26.3044 39.1629 26.8208 39.6793 27.4555 39.6793C28.0901 39.6793 28.6065 39.1629 28.6065 38.5283V37.702C30.2469 37.3361 31.4397 35.8778 31.4397 34.1604C31.4397 32.1587 29.8113 30.5303 27.8096 30.5303H27.1014C26.3691 30.5303 25.7733 29.9346 25.7733 29.2022C25.7733 28.4699 26.3691 27.8741 27.1014 27.8741H28.1638C28.7009 27.8741 29.1378 28.3111 29.1378 28.8481V29.5564C29.1378 30.191 29.6542 30.7074 30.2888 30.7074ZM28.1639 26.9888H27.1014C25.8809 26.9888 24.888 27.9817 24.888 29.2022C24.888 30.4227 25.8809 31.4157 27.1014 31.4157H27.8097C29.3232 31.4157 30.5544 32.647 30.5544 34.1604C30.5544 35.5607 29.5056 36.7331 28.115 36.8876C27.8909 36.9125 27.7212 37.102 27.7212 37.3276V38.5283C27.7212 38.6747 27.6021 38.7939 27.4556 38.7939C27.3092 38.7939 27.19 38.6747 27.19 38.5283V37.3478C27.19 37.1033 26.9919 36.9051 26.7473 36.9051C25.4292 36.9051 24.3568 35.8327 24.3568 34.5146C24.3568 34.3681 24.476 34.249 24.6224 34.249C24.7689 34.249 24.888 34.3681 24.888 34.5146C24.888 35.5398 25.7221 36.3739 26.7473 36.3739H27.8098C29.0303 36.3739 30.0233 35.3809 30.0233 34.1604C30.0233 32.9399 29.0303 31.947 27.8098 31.947H27.1015C25.5881 31.947 24.3568 30.7157 24.3568 29.2023C24.3568 27.8019 25.4056 26.6295 26.7962 26.475C27.0204 26.4501 27.19 26.2606 27.19 26.035V24.8344C27.19 24.688 27.3092 24.5688 27.4556 24.5688C27.6021 24.5688 27.7212 24.688 27.7212 24.8344V26.0149C27.7212 26.2594 27.9194 26.4576 28.1639 26.4576C29.4821 26.4576 30.5544 27.5299 30.5544 28.8481V29.5564C30.5544 29.7028 30.4352 29.822 30.2888 29.822C30.1424 29.822 30.0232 29.7028 30.0232 29.5564V28.8481C30.0232 27.8229 29.1891 26.9888 28.1639 26.9888Z" fill="white"/>
</g>
<defs>
<clipPath id="clip0">
<rect width="30" height="30" fill="white" transform="translate(13.1426 12.5124)"/>
</clipPath>
</defs>
</svg>
