<svg width="408" height="114" viewBox="0 0 408 114" fill="none" xmlns="http://www.w3.org/2000/svg">
<path d="M218.981 63.5506C212.71 70.3423 206.44 76.8914 200.169 83.683C191.486 92.9003 181.356 100.662 172.191 109.394C169.538 111.82 166.885 112.062 163.991 109.879C160.855 107.454 163.508 105.028 164.956 103.088C176.05 87.8065 186.18 71.7976 193.174 53.6056C190.521 57.244 187.868 61.125 185.215 64.7634C182.321 68.6443 179.668 72.7678 176.774 76.6488C170.985 84.4107 164.956 91.93 159.408 99.6919C156.996 103.088 155.308 101.875 153.62 99.2068C150.243 94.1131 149.278 88.2916 149.278 82.4702C149.037 65.4911 148.796 48.5119 149.278 31.5327C149.761 11.8854 161.82 0 181.356 0C197.757 0 214.399 0 230.799 0C249.371 0 261.43 12.128 261.43 30.8051C261.43 48.7545 261.43 66.7039 261.43 84.6533C261.43 101.147 249.612 112.79 233.452 113.033C217.775 113.033 202.098 113.033 186.421 113.033C184.251 113.033 180.874 114.246 179.909 111.577C179.186 109.394 182.562 107.939 184.251 106.241C197.275 94.5982 208.61 81.5 219.223 67.4315C219.705 66.7039 220.187 65.7336 220.67 65.0059C220.187 64.5208 219.705 64.0357 218.981 63.5506ZM233.211 20.1324C224.046 32.7455 214.881 45.8437 205.475 58.2143C195.827 70.5848 185.939 82.4702 178.221 96.2961C203.787 75.9211 219.946 48.997 233.211 20.1324Z" fill="#99BF18"/>
<path d="M89.9625 52.7614C89.8534 52.694 89.7307 52.6266 89.608 52.5862L86.322 51.1981C86.322 51.1981 84.4676 52.1819 83.2678 54.0147C83.2678 54.0147 83.5541 46.0904 78.3183 42.2091C77.7866 41.8182 77.2003 41.4678 76.5594 41.1579C76.5594 41.1579 66.7832 35.9693 62.6382 45.8882L65.6652 48.0715C65.6652 48.0715 66.2242 42.3977 75.5095 41.5757C75.6322 41.5622 75.755 41.5622 75.8777 41.5757C76.464 41.6296 77.023 41.9261 77.4593 42.4112C78.5228 43.6107 79.8863 46.4138 79.9681 52.8961C79.9681 52.8961 80.0227 56.0497 80.7999 56.9931C80.8817 57.0874 80.9635 57.1683 81.0589 57.2087L83.8541 58.5294C83.8541 58.5294 84.3995 58.8125 85.1494 57.6804C85.1494 57.6804 86.7856 55.295 88.2854 53.57C88.299 53.7317 89.158 63.7988 97.7752 79.8632C97.7752 79.8632 98.307 80.8874 99.3024 82.5316C100.993 85.3213 104.02 89.9033 108.07 94.3507L110.401 94.2429C110.401 94.2429 107.661 92.7335 104.415 88.8522C100.939 84.7013 96.9026 77.8282 95.0483 67.168C95.0619 67.195 93.2212 54.8233 89.9625 52.7614Z" fill="#6F8A16"/>
<path d="M89.9625 52.7613C89.8534 52.6939 89.7307 52.6265 89.608 52.5861L86.322 51.198C86.322 51.198 84.4677 52.1818 83.2678 54.0146C83.2678 54.0146 81.2772 57.02 80.7999 57.0065C80.8817 57.1008 80.9636 57.1817 81.059 57.2221L83.8541 58.5428C83.8541 58.5428 84.3995 58.8259 85.1494 57.6938C85.1494 57.6938 86.7856 55.3084 88.2854 53.5834C88.3127 53.5699 89.0354 52.7074 89.9625 52.7613Z" fill="#99BF18"/>
<path d="M110.428 94.2563C110.428 94.2563 107.688 92.7469 104.443 88.8656C104.388 88.7982 101.089 85.1999 99.3297 82.5315C101.02 85.3212 104.047 89.9033 108.097 94.3506L110.428 94.2563Z" fill="#99BF18"/>
<path d="M78.332 42.1956C77.8003 41.8048 77.214 41.4544 76.5731 41.1445C76.5731 41.1445 66.7969 35.9559 62.6519 45.8748L65.6789 48.0581C65.6789 48.0581 66.2379 42.3843 75.5233 41.5622C75.646 41.5488 75.7687 41.5488 75.8914 41.5622C75.9323 41.5488 76.6277 41.4275 78.332 42.1956Z" fill="#99BF18"/>
<path d="M23.8471 46.5623L27.4195 46.0232C29.3284 45.7941 30.3373 46.7914 30.3373 46.7914L32.6143 49.2172C32.8052 49.4328 32.9416 49.6754 33.0234 49.9449C33.6233 51.8586 31.619 54.7966 31.619 54.7966L35.5186 53.651C37.1684 53.2333 37.7956 53.9475 37.7956 53.9475L39.3363 55.0661C40.0044 55.5513 40.3453 56.023 40.5089 56.4273C40.8498 57.2763 40.3999 57.8827 40.3999 57.8827C39.5 59.7021 39.3091 60.7398 39.3091 60.7398C42.1451 58.3005 44.0404 59.8504 44.0404 59.8504L46.0038 61.3193C46.1265 61.4002 46.2356 61.508 46.331 61.6023C47.2991 62.6266 47.3945 64.3651 47.3945 64.3651C47.8445 69.6345 49.8079 71.5752 49.8079 71.5752C53.3257 72.2759 56.9526 70.241 56.9526 70.241L59.8022 72.5051C54.5801 75.8338 48.758 71.5752 48.758 71.5752C48.4035 71.3326 48.0899 71.09 47.7899 70.8205C47.3127 70.4027 46.9037 69.9579 46.5628 69.5132C45.472 68.1116 44.8721 66.5079 44.7903 64.8907C44.7221 63.4082 44.4221 61.4271 44.4221 61.4271C43.495 61.5215 42.2542 62.3031 42.2542 62.3031C40.3589 63.8125 39.1182 63.0713 39.1182 63.0713L36.8275 61.4811C36.7593 61.4271 36.6912 61.3732 36.6366 61.3059C35.8867 60.4299 36.8821 58.7048 36.8821 58.7048C37.8229 57.182 37.9456 55.996 37.9456 55.996C37.3729 55.9151 34.0324 57.0472 34.0324 57.0472C31.7008 57.9771 30.5282 57.0472 30.5282 57.0472L28.8784 55.5782C28.7557 55.4569 28.6602 55.3356 28.5921 55.2009C28.2103 54.3923 28.7557 53.368 28.7557 53.368C30.2555 50.2953 30.6237 48.9476 30.6237 48.9476C28.3466 48.6512 24.747 49.5811 24.747 49.5811C22.9472 50.0527 22.1701 49.1498 22.1701 49.1498L20.643 47.1822C20.5475 47.0474 20.493 46.8992 20.4657 46.7509C20.3157 45.6863 21.911 44.3655 21.911 44.3655C15.0527 45.1472 12.1075 44.5273 12.1075 44.5273C14.4391 43.7321 16.1162 43.0852 17.1797 42.654C18.6523 42.0475 20.2339 41.6297 21.8837 41.4141C21.911 41.4141 21.9246 41.4141 21.9246 41.4141C24.1607 41.1715 24.6243 42.1958 24.6243 42.1958L25.3879 43.9478C25.4424 44.0556 25.4424 44.1903 25.4288 44.3251C25.2924 45.2415 23.8471 46.5623 23.8471 46.5623Z" fill="#6F8A16"/>
<path d="M56.9526 70.2544L59.8022 72.505C54.5801 75.8338 48.758 71.5751 48.758 71.5751C48.4035 71.3325 48.0899 71.09 47.7899 70.8204C49.2489 71.4943 49.8079 71.5751 49.8079 71.5751C53.3121 72.2894 56.9526 70.2544 56.9526 70.2544Z" fill="#99BF18"/>
<path d="M44.0268 59.8637L46.0038 61.3192C46.1265 61.4 46.2356 61.5079 46.3311 61.6022C45.6493 61.2383 44.4085 61.427 44.4085 61.427C43.4814 61.5213 42.2406 62.303 42.2406 62.303C40.3453 63.8124 39.1046 63.0711 39.1046 63.0711L36.8139 61.4809C36.7457 61.427 36.6776 61.3731 36.623 61.3057C37.4684 61.9795 39.2818 60.7397 39.2818 60.7397C42.1315 58.3139 44.0268 59.8637 44.0268 59.8637Z" fill="#99BF18"/>
<path d="M37.7956 53.9474L39.3363 55.0659C40.0044 55.5511 40.3453 56.0228 40.5089 56.4271C39.7181 55.4972 37.9592 56.0093 37.9592 56.0093C37.3865 55.9285 34.046 57.0605 34.046 57.0605C31.7144 57.9904 30.5418 57.0605 30.5418 57.0605L28.892 55.5915C28.7693 55.4702 28.6739 55.349 28.6057 55.2142C29.0284 55.6994 31.6326 54.7964 31.6326 54.7964L35.5322 53.6509C37.1547 53.2331 37.7956 53.9474 37.7956 53.9474Z" fill="#99BF18"/>
<path d="M30.3373 46.7913L32.6143 49.2171C32.8052 49.4327 32.9415 49.6753 33.0233 49.9448C32.178 48.988 30.6236 48.961 30.6236 48.961C28.3466 48.6645 24.747 49.5944 24.747 49.5944C22.9472 50.0661 22.17 49.1632 22.17 49.1632L20.6429 47.1956C20.5474 47.0608 20.4929 46.9126 20.4656 46.7643C20.6838 47.546 23.8607 46.5756 23.8607 46.5756L27.433 46.0366C29.3283 45.794 30.3373 46.7913 30.3373 46.7913Z" fill="#99BF18"/>
<path d="M24.6107 42.1822L25.3743 43.9342C25.4288 44.042 25.4288 44.1768 25.4152 44.3116C25.1697 43.7186 21.8974 44.379 21.8974 44.379C15.0391 45.1606 12.0939 44.5407 12.0939 44.5407C14.4255 43.7456 16.1026 43.0987 17.1661 42.6674C18.6387 42.061 20.2203 41.6432 21.8701 41.4275C21.8974 41.4275 21.911 41.4275 21.911 41.4275C24.1607 41.1715 24.6107 42.1822 24.6107 42.1822Z" fill="#99BF18"/>
<path d="M68.6378 8.07205L69.4832 9.62188C69.8513 10.2957 70.2467 10.6731 70.6149 10.8752C71.3648 11.3065 71.992 10.9965 71.992 10.9965C73.8191 10.4709 74.8144 10.4574 74.8144 10.4574C72.1556 12.6272 73.3691 14.5679 73.3691 14.5679L74.4735 16.5759C74.5417 16.6972 74.6235 16.805 74.7053 16.9128C75.5371 17.937 77.1596 18.2874 77.1596 18.2874C82.0409 19.5003 83.6089 21.5623 83.6089 21.5623C83.6089 21.5623 83.6089 21.158 83.3089 20.0933C83.1589 19.7968 83.0226 19.5138 82.8726 19.2173C82.6272 18.8939 82.3681 18.5974 82.0954 18.3279C80.9228 17.1284 79.4912 16.3468 77.9913 16.0368C76.6142 15.7538 74.7871 15.1743 74.7871 15.1743C74.9917 14.3522 75.8916 13.3549 75.8916 13.3549C77.555 11.886 77.0233 10.6596 77.0233 10.6596L75.837 8.36854C75.7961 8.30115 75.7552 8.23377 75.7007 8.16638C74.978 7.35778 73.2328 7.99119 73.2328 7.99119C71.6784 8.61112 70.5467 8.53026 70.5467 8.53026C70.5467 8.00466 72.0465 5.17454 72.0465 5.17454C73.2328 3.22041 72.4965 2.03445 72.4965 2.03445L71.3375 0.322905C71.2421 0.188137 71.133 0.0938001 71.0103 0.0129395C71.4057 0.47115 70.2195 2.66786 70.2195 2.66786L68.6242 5.99663C68.0515 7.39821 68.6378 8.07205 68.6378 8.07205Z" fill="#6F8A16"/>
<path d="M73.3691 14.5685L74.4735 16.5766C74.5417 16.6978 74.6235 16.8057 74.7053 16.9135C74.4599 16.2531 74.7871 15.1615 74.7871 15.1615C74.9917 14.3394 75.8916 13.3421 75.8916 13.3421C77.555 11.8732 77.0232 10.6468 77.0232 10.6468L75.837 8.35572C75.7961 8.28833 75.7552 8.22095 75.7007 8.15356C76.2188 9.01608 74.8144 10.4581 74.8144 10.4581C72.1692 12.6413 73.3691 14.5685 73.3691 14.5685Z" fill="#99BF18"/>
<path d="M68.6379 8.07259L69.4833 9.62241C69.8514 10.2963 70.2469 10.6736 70.615 10.8758C69.8514 10.0132 70.5605 8.51732 70.5605 8.51732C70.5605 7.99172 72.0603 5.1616 72.0603 5.1616C73.2465 3.20747 72.5102 2.02152 72.5102 2.02152L71.3513 0.309966C71.2558 0.175198 71.1468 0.0808606 71.024 0C71.4194 0.45821 70.2332 2.65492 70.2332 2.65492L68.6379 5.98369C68.0516 7.39875 68.6379 8.07259 68.6379 8.07259Z" fill="#99BF18"/>
<path d="M82.2589 103.825C82.2589 103.825 81.8908 102.99 81.0863 101.938C79.7774 100.24 77.2958 97.9628 73.3417 97.7876C73.3417 97.7876 68.4604 97.9224 68.5695 102.235C68.5695 102.235 68.9513 103.569 69.8648 104.566C69.8648 104.566 69.5512 100.483 74.6507 100.24C74.6507 100.24 79.0138 100.2 82.068 103.933C82.068 103.933 84.4678 109.189 80.8545 111.534L82.1499 113.987C82.1362 114 86.1585 111.547 82.2589 103.825Z" fill="#6F8A16"/>
<path d="M79.3411 101.345C79.3002 101.184 79.2729 101.035 79.232 100.874C77.4186 93.475 74.0371 92.7742 74.0371 92.7742L75.2233 95.1057C76.1369 95.4291 76.7641 95.9951 77.214 96.6285C78.3048 98.2188 78.2503 100.267 78.2503 100.267C78.5366 105.901 73.5463 106.035 73.5463 106.035C71.092 105.914 69.8512 104.553 69.8512 104.553C68.9513 103.556 68.5559 102.221 68.5559 102.221C68.5559 102.235 68.5559 102.248 68.5559 102.262C68.9513 105.375 70.5057 106.898 71.9237 107.653C73.4235 108.448 75.087 108.515 76.5459 107.922C78.2503 107.235 79.0002 105.874 79.3274 104.647C79.6001 103.609 79.6001 102.464 79.3411 101.345Z" fill="#99BF18"/>
<path d="M82.2589 103.825C82.2589 103.825 81.8908 102.99 81.0863 101.938C81.6317 102.855 82.0271 103.866 82.0544 103.933C82.0544 103.933 84.4541 109.189 80.8409 111.534L82.1362 113.987C82.1362 114 86.1585 111.547 82.2589 103.825Z" fill="#99BF18"/>
<path d="M79.2319 100.928V100.874C77.4185 93.475 74.0371 92.7742 74.0371 92.7742L75.2233 95.1056C76.1368 95.4291 76.764 95.9951 77.214 96.6285C77.214 96.6555 77.8957 97.518 79.2319 100.928Z" fill="#6F8A16"/>
<path d="M47.6811 55.7803C47.6811 55.7803 46.8357 56.1038 46.1404 56.0229C46.1404 56.0229 45.2268 55.9555 44.6542 55.6186C44.7496 55.6995 44.8314 55.7803 44.9405 55.8477L46.6176 57.0876C46.6176 57.0876 48.2401 58.3679 50.1081 57.2223C50.1081 57.2223 51.3353 56.6967 52.0715 57.2493C52.017 57.1954 51.9625 57.155 51.9079 57.101L49.9854 55.7399C49.9718 55.7399 48.9355 55.0795 47.6811 55.7803Z" fill="#F5CA40"/>
<path d="M38.1365 72.7208C38.1365 72.7208 36.2004 73.6238 35.8731 73.5698C35.8731 73.5698 34.8505 73.9741 34.4006 73.3003C34.496 73.6103 34.6869 73.9472 35.0687 74.2976L35.9549 75.1197C35.9549 75.1197 36.3095 75.6452 37.2639 75.3083L39.5137 74.3784C39.5137 74.3784 41.0135 73.6642 41.2589 74.0146C41.218 73.9068 41.1635 73.8124 41.0953 73.7316L40.1545 72.6534C40.1545 72.6669 39.4864 71.9796 38.1365 72.7208Z" fill="#F5CA40"/>
<path d="M114.86 78.7853C114.86 78.7853 112.924 79.6882 112.596 79.6343C112.596 79.6343 111.574 80.0386 111.124 79.3648C111.219 79.6748 111.41 80.0117 111.792 80.3621L112.678 81.1842C112.678 81.1842 113.033 81.7098 113.987 81.3728L116.237 80.4429C116.237 80.4429 117.737 79.7287 117.982 80.0791C117.941 79.9712 117.887 79.8769 117.819 79.796L116.878 78.7179C116.878 78.7314 116.21 78.044 114.86 78.7853Z" fill="#F5CA40"/>
<path d="M120.022 64.6531C119.707 63.7293 120.093 62.7662 120.885 62.5021C121.677 62.2379 122.575 62.7728 122.89 63.6966C123.206 64.6205 122.819 65.5835 122.027 65.8476C121.235 66.1118 120.338 65.577 120.022 64.6531Z" fill="#F5CA40"/>
<path d="M101.73 33.6245L104.661 38.5031L105.166 34.6487L101.73 33.6245Z" fill="#F5CA40"/>
<path d="M31.0874 64.8772L31.5237 59.3247L28.8513 61.6292L31.0874 64.8772Z" fill="#F5CA40"/>
<path d="M106.72 4.70341C106.72 4.70341 105.875 5.02685 105.179 4.94599C105.179 4.94599 104.266 4.8786 103.693 4.54168C103.788 4.62254 103.87 4.70341 103.979 4.77079L105.656 6.01065C105.656 6.01065 107.279 7.29095 109.147 6.14542C109.147 6.14542 110.374 5.61983 111.11 6.17237C111.056 6.11847 111.001 6.07804 110.947 6.02413L109.024 4.66297C109.011 4.66297 107.974 4.00261 106.72 4.70341Z" fill="#F5CA40"/>
<path d="M97.1755 21.6437C97.1755 21.6437 95.2393 22.5466 94.9121 22.4927C94.9121 22.4927 93.8895 22.897 93.4395 22.2232C93.535 22.5331 93.7259 22.8701 94.1076 23.2205L94.9939 24.0425C94.9939 24.0425 95.3484 24.5681 96.3028 24.2312L98.5526 23.3013C98.5526 23.3013 100.052 22.587 100.298 22.9374C100.257 22.8296 100.202 22.7353 100.134 22.6544L99.1934 21.5763C99.1934 21.5898 98.5253 20.9024 97.1755 21.6437Z" fill="#F5CA40"/>
<path d="M90.1263 13.8002L90.5626 8.2478L87.8902 10.5523L90.1263 13.8002Z" fill="#F5CA40"/>
<path d="M109.42 75.9146L109.501 74.796L110.374 74.3378L109.447 73.7987L109.242 72.6802L108.588 73.4618L107.579 73.2327L108.111 74.2435L107.702 75.2273L108.683 75.079L109.42 75.9146Z" fill="#F5CA40"/>
<path d="M51.5942 28.9213C51.5942 28.9213 49.6581 29.8242 49.3308 29.7703C49.3308 29.7703 48.3082 30.1746 47.8583 29.5008C47.9537 29.8107 48.1446 30.1476 48.5264 30.498L49.4126 31.3201C49.4126 31.3201 49.7671 31.8457 50.7216 31.5088L52.9713 30.5789C52.9713 30.5789 54.4711 29.8646 54.7166 30.215C54.6756 30.1072 54.6211 30.0129 54.5529 29.932L53.6121 28.8539C53.6121 28.8673 52.944 28.18 51.5942 28.9213Z" fill="#F5CA40"/>
<path d="M56.7571 14.7908C56.4417 13.867 56.8281 12.9039 57.6201 12.6398C58.4121 12.3757 59.3098 12.9105 59.6251 13.8343C59.9405 14.7582 59.5541 15.7212 58.7622 15.9853C57.9702 16.2495 57.0725 15.7146 56.7571 14.7908Z" fill="#F5CA40"/>
<path d="M46.154 26.0506L46.2358 24.932L47.1084 24.4738L46.1812 23.9347L45.9767 22.8162L45.3222 23.5978L44.3133 23.3687L44.845 24.3795L44.436 25.3633L45.4177 25.215L46.154 26.0506Z" fill="#F5CA40"/>
<path d="M75.5915 82.2892C75.5915 82.2892 73.6553 83.1921 73.3281 83.1382C73.3281 83.1382 72.3055 83.5425 71.8555 82.8687C71.951 83.1787 72.1419 83.5156 72.5236 83.866L73.4099 84.6881C73.4099 84.6881 73.7644 85.2137 74.7189 84.8767L76.9686 83.9468C76.9686 83.9468 78.4684 83.2326 78.7139 83.583C78.673 83.4752 78.6184 83.3808 78.5502 83.2999L77.6094 82.2218C77.6094 82.2353 76.9413 81.5479 75.5915 82.2892Z" fill="#F5CA40"/>
<path d="M80.7547 68.1573C80.4393 67.2334 80.8257 66.2704 81.6177 66.0063C82.4096 65.7421 83.3073 66.2769 83.6227 67.2008C83.9381 68.1246 83.5517 69.0877 82.7597 69.3518C81.9677 69.6159 81.0701 69.0811 80.7547 68.1573Z" fill="#F5CA40"/>
<path d="M70.1513 79.4185L70.2331 78.2999L71.1057 77.8417L70.1785 77.3027L69.974 76.1841L69.3195 76.9657L68.3106 76.7366L68.8423 77.7474L68.4333 78.7312L69.415 78.5829L70.1513 79.4185Z" fill="#F5CA40"/>
<path d="M7.28094 48.193C7.28094 48.193 5.3448 49.0959 5.01756 49.042C5.01756 49.042 3.99495 49.4463 3.545 48.7725C3.64044 49.0825 3.83133 49.4194 4.2131 49.7698L5.09936 50.5919C5.09936 50.5919 5.45388 51.1175 6.40831 50.7805L8.65806 49.8506C8.65806 49.8506 10.1579 49.1364 10.4033 49.4868C10.3624 49.379 10.3079 49.2846 10.2397 49.2038L9.29889 48.1256C9.29889 48.1391 8.63079 47.4518 7.28094 48.193Z" fill="#F5CA40"/>
<path d="M12.4447 34.0628C12.1294 33.1389 12.5157 32.1759 13.3077 31.9118C14.0997 31.6476 14.9974 32.1824 15.3128 33.1063C15.6281 34.0301 15.2418 34.9932 14.4498 35.2573C13.6578 35.5214 12.7601 34.9866 12.4447 34.0628Z" fill="#F5CA40"/>
<path d="M1.8406 45.3223L1.92241 44.2037L2.79504 43.7455L1.86787 43.2065L1.66334 42.0879L1.00887 42.8695L-0.000106812 42.6404L0.531649 43.6512L0.122602 44.635L1.10432 44.4868L1.8406 45.3223Z" fill="#F5CA40"/>
<path d="M318.226 52.7614C318.335 52.694 318.456 52.6266 318.578 52.5862L321.837 51.1981C321.837 51.1981 323.677 52.1819 324.867 54.0147C324.867 54.0147 324.583 46.0904 329.776 42.2091C330.303 41.8182 330.885 41.4678 331.52 41.1579C331.52 41.1579 341.217 35.9693 345.328 45.8882L342.326 48.0715C342.326 48.0715 341.772 42.3977 332.562 41.5757C332.44 41.5622 332.318 41.5622 332.197 41.5757C331.615 41.6296 331.061 41.9261 330.628 42.4112C329.573 43.6107 328.221 46.4138 328.139 52.8961C328.139 52.8961 328.085 56.0497 327.314 56.9931C327.233 57.0874 327.152 57.1683 327.058 57.2087L324.285 58.5294C324.285 58.5294 323.744 58.8125 323 57.6804C323 57.6804 321.377 55.295 319.89 53.57C319.876 53.7317 319.024 63.7988 310.477 79.8632C310.477 79.8632 309.95 80.8874 308.962 82.5316C307.285 85.3213 304.283 89.9033 300.266 94.3507L297.954 94.2429C297.954 94.2429 300.672 92.7335 303.891 88.8522C307.34 84.7013 311.343 77.8282 313.182 67.168C313.168 67.195 314.994 54.8233 318.226 52.7614Z" fill="#6F8A16"/>
<path d="M318.226 52.7613C318.335 52.6939 318.456 52.6265 318.578 52.5861L321.837 51.198C321.837 51.198 323.676 52.1818 324.867 54.0146C324.867 54.0146 326.841 57.02 327.314 57.0065C327.233 57.1008 327.152 57.1817 327.057 57.2221L324.285 58.5428C324.285 58.5428 323.744 58.8259 323 57.6938C323 57.6938 321.377 55.3084 319.89 53.5834C319.863 53.5699 319.146 52.7074 318.226 52.7613Z" fill="#99BF18"/>
<path d="M297.927 94.2563C297.927 94.2563 300.645 92.7469 303.864 88.8656C303.918 88.7982 307.191 85.1999 308.935 82.5315C307.258 85.3212 304.256 89.9033 300.239 94.3506L297.927 94.2563Z" fill="#99BF18"/>
<path d="M329.762 42.1956C330.29 41.8048 330.871 41.4544 331.507 41.1445C331.507 41.1445 341.204 35.9559 345.315 45.8748L342.312 48.0581C342.312 48.0581 341.758 42.3843 332.548 41.5622C332.426 41.5488 332.305 41.5488 332.183 41.5622C332.142 41.5488 331.453 41.4275 329.762 42.1956Z" fill="#99BF18"/>
<path d="M383.804 46.5623L380.261 46.0232C378.368 45.7941 377.367 46.7914 377.367 46.7914L375.108 49.2172C374.919 49.4328 374.784 49.6754 374.703 49.9449C374.108 51.8586 376.096 54.7966 376.096 54.7966L372.228 53.651C370.591 53.2333 369.969 53.9475 369.969 53.9475L368.441 55.0661C367.778 55.5513 367.44 56.023 367.278 56.4273C366.94 57.2763 367.386 57.8827 367.386 57.8827C368.279 59.7021 368.468 60.7398 368.468 60.7398C365.655 58.3005 363.775 59.8504 363.775 59.8504L361.828 61.3193C361.706 61.4002 361.598 61.508 361.503 61.6023C360.543 62.6266 360.448 64.3651 360.448 64.3651C360.002 69.6345 358.055 71.5752 358.055 71.5752C354.566 72.2759 350.968 70.241 350.968 70.241L348.142 72.5051C353.321 75.8338 359.096 71.5752 359.096 71.5752C359.448 71.3326 359.759 71.09 360.056 70.8205C360.53 70.4027 360.935 69.9579 361.273 69.5132C362.355 68.1116 362.95 66.5079 363.032 64.8907C363.099 63.4082 363.397 61.4271 363.397 61.4271C364.316 61.5215 365.547 62.3031 365.547 62.3031C367.427 63.8125 368.658 63.0713 368.658 63.0713L370.93 61.4811C370.997 61.4271 371.065 61.3732 371.119 61.3059C371.863 60.4299 370.875 58.7048 370.875 58.7048C369.942 57.182 369.821 55.996 369.821 55.996C370.389 55.9151 373.702 57.0472 373.702 57.0472C376.015 57.9771 377.178 57.0472 377.178 57.0472L378.814 55.5782C378.936 55.4569 379.03 55.3356 379.098 55.2009C379.477 54.3923 378.936 53.368 378.936 53.368C377.448 50.2953 377.083 48.9476 377.083 48.9476C379.341 48.6512 382.912 49.5811 382.912 49.5811C384.697 50.0527 385.468 49.1498 385.468 49.1498L386.983 47.1822C387.077 47.0474 387.131 46.8992 387.158 46.7509C387.307 45.6863 385.725 44.3655 385.725 44.3655C392.527 45.1472 395.449 44.5273 395.449 44.5273C393.136 43.7321 391.472 43.0852 390.418 42.654C388.957 42.0475 387.388 41.6297 385.752 41.4141C385.725 41.4141 385.711 41.4141 385.711 41.4141C383.493 41.1715 383.034 42.1958 383.034 42.1958L382.276 43.9478C382.222 44.0556 382.222 44.1903 382.236 44.3251C382.371 45.2415 383.804 46.5623 383.804 46.5623Z" fill="#6F8A16"/>
<path d="M350.968 70.2544L348.142 72.505C353.321 75.8338 359.096 71.5751 359.096 71.5751C359.448 71.3325 359.759 71.09 360.056 70.8204C358.609 71.4943 358.055 71.5751 358.055 71.5751C354.579 72.2894 350.968 70.2544 350.968 70.2544Z" fill="#99BF18"/>
<path d="M363.789 59.8637L361.828 61.3192C361.706 61.4 361.598 61.5079 361.503 61.6022C362.179 61.2383 363.41 61.427 363.41 61.427C364.33 61.5213 365.56 62.303 365.56 62.303C367.44 63.8124 368.671 63.0711 368.671 63.0711L370.943 61.4809C371.011 61.427 371.078 61.3731 371.132 61.3057C370.294 61.9795 368.495 60.7397 368.495 60.7397C365.669 58.3139 363.789 59.8637 363.789 59.8637Z" fill="#99BF18"/>
<path d="M369.969 53.9474L368.441 55.0659C367.778 55.5511 367.44 56.0228 367.278 56.4271C368.062 55.4972 369.807 56.0093 369.807 56.0093C370.375 55.9285 373.688 57.0605 373.688 57.0605C376.001 57.9904 377.164 57.0605 377.164 57.0605L378.801 55.5915C378.922 55.4702 379.017 55.349 379.085 55.2142C378.665 55.6994 376.082 54.7964 376.082 54.7964L372.214 53.6509C370.605 53.2331 369.969 53.9474 369.969 53.9474Z" fill="#99BF18"/>
<path d="M377.367 46.7913L375.109 49.2171C374.919 49.4327 374.784 49.6753 374.703 49.9448C375.541 48.988 377.083 48.961 377.083 48.961C379.342 48.6645 382.912 49.5944 382.912 49.5944C384.697 50.0661 385.468 49.1632 385.468 49.1632L386.983 47.1956C387.077 47.0608 387.131 46.9126 387.158 46.7643C386.942 47.546 383.791 46.5756 383.791 46.5756L380.248 46.0366C378.368 45.794 377.367 46.7913 377.367 46.7913Z" fill="#99BF18"/>
<path d="M383.047 42.1822L382.29 43.9342C382.235 44.042 382.235 44.1768 382.249 44.3116C382.492 43.7186 385.738 44.379 385.738 44.379C392.541 45.1606 395.462 44.5407 395.462 44.5407C393.149 43.7456 391.486 43.0987 390.431 42.6674C388.97 42.061 387.402 41.6432 385.765 41.4275C385.738 41.4275 385.725 41.4275 385.725 41.4275C383.493 41.1715 383.047 42.1822 383.047 42.1822Z" fill="#99BF18"/>
<path d="M339.378 8.07254L338.539 9.62236C338.174 10.2962 337.782 10.6736 337.417 10.8757C336.673 11.307 336.051 10.997 336.051 10.997C334.239 10.4714 333.252 10.4579 333.252 10.4579C335.889 12.6277 334.685 14.5683 334.685 14.5683L333.59 16.5764C333.522 16.6977 333.441 16.8055 333.36 16.9133C332.535 17.9375 330.925 18.2879 330.925 18.2879C326.084 19.5008 324.529 21.5628 324.529 21.5628C324.529 21.5628 324.529 21.1585 324.826 20.0938C324.975 19.7973 325.11 19.5143 325.259 19.2178C325.502 18.8944 325.759 18.5979 326.03 18.3284C327.193 17.1289 328.613 16.3473 330.1 16.0373C331.466 15.7543 333.279 15.1748 333.279 15.1748C333.076 14.3527 332.183 13.3554 332.183 13.3554C330.533 11.8865 331.061 10.6601 331.061 10.6601L332.237 8.36903C332.278 8.30164 332.318 8.23426 332.372 8.16687C333.089 7.35827 334.82 7.99168 334.82 7.99168C336.362 8.61161 337.485 8.53075 337.485 8.53075C337.485 8.00515 335.997 5.17503 335.997 5.17503C334.82 3.2209 335.551 2.03494 335.551 2.03494L336.7 0.323393C336.795 0.188626 336.903 0.0942884 337.025 0.0134277C336.633 0.471638 337.809 2.66835 337.809 2.66835L339.391 5.99711C339.959 7.3987 339.378 8.07254 339.378 8.07254Z" fill="#6F8A16"/>
<path d="M334.685 14.5685L333.59 16.5766C333.522 16.6978 333.441 16.8057 333.36 16.9135C333.603 16.2531 333.279 15.1615 333.279 15.1615C333.076 14.3394 332.183 13.3421 332.183 13.3421C330.533 11.8732 331.061 10.6468 331.061 10.6468L332.237 8.35572C332.278 8.28833 332.318 8.22095 332.373 8.15356C331.859 9.01608 333.252 10.4581 333.252 10.4581C335.875 12.6413 334.685 14.5685 334.685 14.5685Z" fill="#99BF18"/>
<path d="M339.378 8.07259L338.539 9.62241C338.174 10.2963 337.782 10.6736 337.417 10.8758C338.174 10.0132 337.471 8.51732 337.471 8.51732C337.471 7.99172 335.983 5.1616 335.983 5.1616C334.807 3.20747 335.537 2.02152 335.537 2.02152L336.687 0.309966C336.781 0.175198 336.889 0.0808606 337.011 0C336.619 0.45821 337.796 2.65492 337.796 2.65492L339.378 5.98369C339.959 7.39875 339.378 8.07259 339.378 8.07259Z" fill="#99BF18"/>
<path d="M325.867 103.825C325.867 103.825 326.233 102.99 327.031 101.938C328.329 100.24 330.79 97.9628 334.712 97.7876C334.712 97.7876 339.554 97.9224 339.446 102.235C339.446 102.235 339.067 103.569 338.161 104.566C338.161 104.566 338.472 100.483 333.414 100.24C333.414 100.24 329.086 100.2 326.057 103.933C326.057 103.933 323.677 109.189 327.26 111.534L325.976 113.987C325.989 114 322 111.547 325.867 103.825Z" fill="#6F8A16"/>
<path d="M328.762 101.345C328.802 101.184 328.829 101.035 328.87 100.874C330.668 93.475 334.022 92.7742 334.022 92.7742L332.846 95.1057C331.94 95.4291 331.318 95.9951 330.871 96.6285C329.789 98.2188 329.844 100.267 329.844 100.267C329.56 105.901 334.509 106.035 334.509 106.035C336.944 105.914 338.174 104.553 338.174 104.553C339.067 103.556 339.459 102.221 339.459 102.221C339.459 102.235 339.459 102.248 339.459 102.262C339.067 105.375 337.525 106.898 336.119 107.653C334.631 108.448 332.981 108.515 331.534 107.922C329.844 107.235 329.1 105.874 328.775 104.647C328.505 103.609 328.505 102.464 328.762 101.345Z" fill="#99BF18"/>
<path d="M325.867 103.825C325.867 103.825 326.233 102.99 327.031 101.938C326.49 102.855 326.097 103.866 326.07 103.933C326.07 103.933 323.69 109.189 327.274 111.534L325.989 113.987C325.989 114 322 111.547 325.867 103.825Z" fill="#99BF18"/>
<path d="M328.87 100.928V100.874C330.669 93.475 334.023 92.7742 334.023 92.7742L332.846 95.1056C331.94 95.4291 331.318 95.9951 330.871 96.6285C330.871 96.6555 330.195 97.518 328.87 100.928Z" fill="#6F8A16"/>
<path d="M360.164 55.7803C360.164 55.7803 361.003 56.1038 361.693 56.0229C361.693 56.0229 362.599 55.9555 363.167 55.6186C363.072 55.6995 362.991 55.7803 362.883 55.8477L361.219 57.0876C361.219 57.0876 359.61 58.3679 357.757 57.2223C357.757 57.2223 356.54 56.6967 355.81 57.2493C355.864 57.1954 355.918 57.155 355.972 57.101L357.879 55.7399C357.892 55.7399 358.92 55.0795 360.164 55.7803Z" fill="#F5CA40"/>
<path d="M369.631 72.7208C369.631 72.7208 371.552 73.6238 371.876 73.5698C371.876 73.5698 372.89 73.9741 373.337 73.3003C373.242 73.6103 373.053 73.9472 372.674 74.2976L371.795 75.1197C371.795 75.1197 371.443 75.6452 370.497 75.3083L368.265 74.3784C368.265 74.3784 366.778 73.6642 366.534 74.0146C366.575 73.9068 366.629 73.8124 366.696 73.7316L367.63 72.6534C367.63 72.6669 368.292 71.9796 369.631 72.7208Z" fill="#F5CA40"/>
<path d="M293.532 78.7853C293.532 78.7853 295.452 79.6882 295.777 79.6343C295.777 79.6343 296.791 80.0386 297.237 79.3648C297.142 79.6748 296.953 80.0117 296.574 80.3621L295.695 81.1842C295.695 81.1842 295.344 81.7098 294.397 81.3728L292.166 80.4429C292.166 80.4429 290.678 79.7287 290.435 80.0791C290.475 79.9712 290.529 79.8769 290.597 79.796L291.53 78.7179C291.53 78.7314 292.193 78.044 293.532 78.7853Z" fill="#F5CA40"/>
<path d="M288.411 64.6531C288.724 63.7293 288.341 62.7662 287.555 62.5021C286.77 62.2379 285.879 62.7728 285.566 63.6966C285.254 64.6205 285.637 65.5835 286.422 65.8476C287.208 66.1118 288.098 65.577 288.411 64.6531Z" fill="#F5CA40"/>
<path d="M306.555 33.6245L303.648 38.5031L303.147 34.6487L306.555 33.6245Z" fill="#F5CA40"/>
<path d="M376.623 64.8772L376.19 59.3247L378.841 61.6292L376.623 64.8772Z" fill="#F5CA40"/>
<path d="M301.605 4.70341C301.605 4.70341 302.444 5.02685 303.134 4.94599C303.134 4.94599 304.04 4.8786 304.608 4.54168C304.513 4.62254 304.432 4.70341 304.324 4.77079L302.66 6.01065C302.66 6.01065 301.051 7.29095 299.198 6.14542C299.198 6.14542 297.981 5.61983 297.251 6.17237C297.305 6.11847 297.359 6.07804 297.413 6.02413L299.32 4.66297C299.333 4.66297 300.361 4.00261 301.605 4.70341Z" fill="#F5CA40"/>
<path d="M311.072 21.6437C311.072 21.6437 312.993 22.5466 313.317 22.4927C313.317 22.4927 314.332 22.897 314.778 22.2232C314.683 22.5331 314.494 22.8701 314.115 23.2205L313.236 24.0425C313.236 24.0425 312.885 24.5681 311.938 24.2312L309.706 23.3013C309.706 23.3013 308.219 22.587 307.975 22.9374C308.016 22.8296 308.07 22.7353 308.138 22.6544L309.071 21.5763C309.071 21.5898 309.733 20.9024 311.072 21.6437Z" fill="#F5CA40"/>
<path d="M318.064 13.8002L317.631 8.2478L320.282 10.5523L318.064 13.8002Z" fill="#F5CA40"/>
<path d="M298.928 75.9146L298.846 74.796L297.981 74.3378L298.901 73.7987L299.103 72.6802L299.753 73.4618L300.753 73.2327L300.226 74.2435L300.632 75.2273L299.658 75.079L298.928 75.9146Z" fill="#F5CA40"/>
<path d="M356.283 28.9213C356.283 28.9213 358.203 29.8242 358.528 29.7703C358.528 29.7703 359.542 30.1746 359.989 29.5008C359.894 29.8107 359.705 30.1476 359.326 30.498L358.447 31.3201C358.447 31.3201 358.095 31.8457 357.149 31.5088L354.917 30.5789C354.917 30.5789 353.429 29.8646 353.186 30.215C353.227 30.1072 353.281 30.0129 353.348 29.932L354.281 28.8539C354.281 28.8673 354.944 28.18 356.283 28.9213Z" fill="#F5CA40"/>
<path d="M351.162 14.7908C351.475 13.867 351.091 12.9039 350.306 12.6398C349.52 12.3757 348.63 12.9105 348.317 13.8343C348.004 14.7582 348.388 15.7212 349.173 15.9853C349.959 16.2495 350.849 15.7146 351.162 14.7908Z" fill="#F5CA40"/>
<path d="M361.679 26.0506L361.598 24.932L360.732 24.4738L361.652 23.9347L361.855 22.8162L362.504 23.5978L363.505 23.3687L362.977 24.3795L363.383 25.3633L362.409 25.215L361.679 26.0506Z" fill="#F5CA40"/>
<path d="M332.481 82.2892C332.481 82.2892 334.401 83.1921 334.726 83.1382C334.726 83.1382 335.74 83.5425 336.186 82.8687C336.092 83.1787 335.902 83.5156 335.524 83.866L334.645 84.6881C334.645 84.6881 334.293 85.2137 333.346 84.8767L331.115 83.9468C331.115 83.9468 329.627 83.2326 329.384 83.583C329.424 83.4752 329.478 83.3808 329.546 83.2999L330.479 82.2218C330.479 82.2353 331.142 81.5479 332.481 82.2892Z" fill="#F5CA40"/>
<path d="M327.36 68.1573C327.672 67.2334 327.289 66.2704 326.504 66.0063C325.718 65.7421 324.828 66.2769 324.515 67.2008C324.202 68.1246 324.585 69.0877 325.371 69.3518C326.156 69.6159 327.047 69.0811 327.36 68.1573Z" fill="#F5CA40"/>
<path d="M337.877 79.4185L337.796 78.2999L336.93 77.8417L337.85 77.3027L338.053 76.1841L338.702 76.9657L339.703 76.7366L339.175 77.7474L339.581 78.7312L338.607 78.5829L337.877 79.4185Z" fill="#F5CA40"/>
<path d="M400.236 48.193C400.236 48.193 402.156 49.0959 402.481 49.042C402.481 49.042 403.495 49.4463 403.941 48.7725C403.847 49.0825 403.657 49.4194 403.279 49.7698L402.4 50.5919C402.4 50.5919 402.048 51.1175 401.101 50.7805L398.87 49.8506C398.87 49.8506 397.382 49.1364 397.139 49.4868C397.179 49.379 397.234 49.2846 397.301 49.2038L398.234 48.1256C398.234 48.1391 398.897 47.4518 400.236 48.193Z" fill="#F5CA40"/>
<path d="M395.114 34.0628C395.427 33.1389 395.044 32.1759 394.258 31.9118C393.472 31.6476 392.582 32.1824 392.269 33.1063C391.956 34.0301 392.34 34.9932 393.125 35.2573C393.911 35.5214 394.801 34.9866 395.114 34.0628Z" fill="#F5CA40"/>
<path d="M405.632 45.3223L405.551 44.2037L404.685 43.7455L405.605 43.2065L405.808 42.0879L406.457 42.8695L407.458 42.6404L406.93 43.6512L407.336 44.635L406.362 44.4868L405.632 45.3223Z" fill="#F5CA40"/>
</svg>
