<svg width="85" height="70" viewBox="0 0 85 70" fill="none" xmlns="http://www.w3.org/2000/svg">
<path d="M78.0201 0H6.9675C3.54645 0 0.827148 2.80702 0.827148 6.14035V63.8596C0.827148 67.2807 3.63417 70 6.9675 70H77.9324C81.3535 70 84.0728 67.193 84.0728 63.8596V6.14035C84.1605 2.7193 81.3535 0 78.0201 0ZM27.1429 6.31579C28.6342 6.31579 29.7745 7.54386 29.7745 8.94737C29.7745 10.4386 28.5464 11.5789 27.1429 11.5789C25.6517 11.5789 24.5114 10.3509 24.5114 8.94737C24.5114 7.45614 25.6517 6.31579 27.1429 6.31579ZM19.0728 6.31579C20.564 6.31579 21.7043 7.54386 21.7043 8.94737C21.7043 10.4386 20.4763 11.5789 19.0728 11.5789C17.5815 11.5789 16.4412 10.3509 16.4412 8.94737C16.4412 7.45614 17.6693 6.31579 19.0728 6.31579ZM11.0026 6.31579C12.4938 6.31579 13.6342 7.54386 13.6342 8.94737C13.6342 10.4386 12.4061 11.5789 11.0026 11.5789C9.51136 11.5789 8.37101 10.3509 8.37101 8.94737C8.37101 7.45614 9.59908 6.31579 11.0026 6.31579ZM76.178 61.5789C76.178 61.8421 76.0026 62.0175 75.7394 62.0175H9.2482C8.98504 62.0175 8.8096 61.8421 8.8096 61.5789V17.9825H76.178V61.5789Z" fill="#48D38A"/>
<path d="M17.6701 44.9121H24.4245V49.7367C24.4245 50.1753 24.7754 50.6139 25.3017 50.6139H28.021C28.4596 50.6139 28.8982 50.263 28.8982 49.7367V44.9121H31.3543C31.7929 44.9121 32.2315 44.5612 32.2315 44.0349V41.3156C32.2315 40.877 31.8806 40.4384 31.3543 40.4384H28.8982V36.8419C28.8982 36.4033 28.5473 35.9647 28.021 35.9647H25.3017C24.8631 35.9647 24.4245 36.3156 24.4245 36.8419V40.4384H21.5297L22.4069 30.4384C22.4069 29.9998 22.0561 29.5612 21.6175 29.4735L18.9859 29.2104C18.5473 29.2104 18.1087 29.5612 18.021 29.9998L16.8806 43.8595C16.7929 44.5612 17.1438 44.9121 17.6701 44.9121Z" fill="#48D38A"/>
<path d="M52.6699 44.9121H59.4243V49.7367C59.4243 50.1753 59.7752 50.6139 60.3015 50.6139H63.0208C63.4594 50.6139 63.898 50.263 63.898 49.7367V44.9121H66.3541C66.7927 44.9121 67.2313 44.5612 67.2313 44.0349V41.3156C67.2313 40.877 66.8804 40.4384 66.3541 40.4384H63.898V36.8419C63.898 36.4033 63.5471 35.9647 63.0208 35.9647H60.3015C59.8629 35.9647 59.4243 36.3156 59.4243 36.8419V40.4384H56.5296L57.4067 30.4384C57.4067 29.9998 57.0559 29.5612 56.6173 29.4735L53.9857 29.2104C53.5471 29.2104 53.1085 29.5612 53.0208 29.9998L51.8804 43.8595C51.7927 44.5612 52.2313 44.9121 52.6699 44.9121Z" fill="#48D38A"/>
<path d="M35.8279 50.6141H47.7577C48.1963 50.6141 48.6349 50.2632 48.6349 49.7369V30.3509C48.6349 29.9124 48.284 29.4738 47.7577 29.4738H35.8279C35.3893 29.4738 34.9507 29.8246 34.9507 30.3509V49.7369C34.9507 50.2632 35.3893 50.6141 35.8279 50.6141ZM39.3366 33.8597H44.1612V46.2281H39.3366V33.8597Z" fill="#48D38A"/>
</svg>
