<svg width="55" height="55" viewBox="0 0 55 55" fill="none" xmlns="http://www.w3.org/2000/svg">
<circle opacity="0.5" cx="27.4799" cy="27.6901" r="27.2211" fill="#4CD9C0"/>
<g clip-path="url(#clip0)">
<path d="M20.1218 26.1727V25.384C20.1218 25.133 19.925 24.9295 19.682 24.9295C19.4391 24.9295 19.2422 25.133 19.2422 25.384V26.1727C19.2422 26.4238 19.4391 26.6272 19.682 26.6272C19.925 26.6272 20.1218 26.4238 20.1218 26.1727Z" fill="white"/>
<path d="M43.4876 24.3412L42.4374 23.5764C41.7479 23.0742 40.7862 23.2415 40.2936 23.9492C39.858 24.5754 39.9177 25.433 40.4356 25.9883L40.8375 26.4192C41.3118 26.9279 41.668 27.5234 41.8961 28.1893C42.0098 28.5213 41.8819 28.8965 41.5919 29.0815C41.3 29.2679 40.9284 29.221 40.6883 28.9677L39.6794 27.9032C39.5826 24.0546 36.5227 20.9545 32.7753 20.9545H31.223C31.1455 20.5627 30.9892 20.1917 30.7596 19.8608C30.618 19.6568 30.3431 19.61 30.1459 19.7563C29.9485 19.9026 29.9032 20.1866 30.0448 20.3905C30.2771 20.7253 30.4 21.1202 30.4 21.5326C30.4 22.0402 30.2087 22.5268 29.8707 22.8911H27.13C26.792 22.5268 26.6008 22.0403 26.6008 21.5326C26.6008 20.4502 27.4529 19.5696 28.5004 19.5696C28.5989 19.5696 28.6987 19.5777 28.797 19.5936C29.0367 19.6324 29.2619 19.4626 29.2994 19.2146C29.3369 18.9667 29.1727 18.7342 28.9327 18.6955C28.7897 18.6724 28.6442 18.6607 28.5004 18.6607C27.1595 18.6607 26.0374 19.6471 25.7777 20.9546H23.5502C23.1767 20.9546 22.8016 20.9804 22.43 21.0315C22.3355 19.8456 21.5809 18.8087 20.4588 18.4L19.2056 17.9436C18.9763 17.8601 18.7253 17.9844 18.6446 18.2212L18.2029 19.5162C17.8493 20.5526 18.0636 21.6888 18.7293 22.5075C17.6916 23.2477 16.821 24.2217 16.1916 25.3518C16.1874 25.3595 16.1833 25.3673 16.1795 25.3753C15.9111 25.9298 15.7272 26.5218 15.6328 27.1348C15.6164 27.2414 15.5338 27.3292 15.4273 27.3534L14.401 27.5868C13.908 27.6989 13.5963 28.1879 13.6913 28.7001L14.1328 31.0789C14.1814 31.3411 14.3354 31.5719 14.5551 31.7121C14.7749 31.8523 15.0436 31.8911 15.2922 31.8188L16.3875 31.4995C16.4948 31.4684 16.6116 31.511 16.6782 31.6059C16.8734 31.8841 17.0883 32.1547 17.3169 32.4101C17.4036 32.507 17.5216 32.556 17.64 32.556C17.7468 32.556 17.8538 32.5161 17.9385 32.4353C18.1168 32.2649 18.1277 31.9773 17.9628 31.793C17.7577 31.5639 17.5651 31.3214 17.3903 31.0723C17.1082 30.6703 16.6096 30.4903 16.1487 30.6246L15.0533 30.9439C15.0407 30.9475 15.0285 30.9459 15.0174 30.9386C15.0062 30.9315 14.9992 30.9211 14.9967 30.9077L14.5551 28.5289C14.5505 28.5038 14.5657 28.4799 14.5897 28.4745L15.6161 28.2412C16.0728 28.1373 16.4285 27.7501 16.5013 27.2775C16.5809 26.7608 16.7353 26.2616 16.9603 25.7936C17.6086 24.6341 18.5404 23.6587 19.656 22.9721C19.7802 22.8956 19.8601 22.761 19.8698 22.6119C19.8795 22.4628 19.8175 22.3184 19.7042 22.2255C19.0063 21.6537 18.7363 20.6864 19.0324 19.8183L19.3279 18.9518L20.1664 19.2572C21.0834 19.5912 21.6516 20.5214 21.5481 21.5194C21.5332 21.6631 21.5854 21.8056 21.6886 21.9031C21.7918 22.0007 21.9337 22.0417 22.0709 22.0136C22.5578 21.914 23.0554 21.8634 23.5503 21.8634H25.7403C25.781 22.2251 25.8882 22.5735 26.0534 22.8911H25.9747C25.7317 22.8911 25.5348 23.0945 25.5348 23.3456C25.5348 23.5966 25.7317 23.8 25.9747 23.8H31.0263C31.2693 23.8 31.4661 23.5966 31.4661 23.3456C31.4661 23.0945 31.2693 22.8911 31.0263 22.8911H30.9476C31.1129 22.5735 31.22 22.2251 31.2607 21.8634H32.7755C36.0988 21.8634 38.8024 24.6572 38.8024 28.0912C38.8024 29.409 38.4113 30.6601 37.6714 31.722H34.1591C33.9729 31.4467 33.6645 31.2658 33.3154 31.2658H31.9054C31.6624 31.2658 31.4655 31.4692 31.4655 31.7203C31.4655 31.9713 31.6624 32.1748 31.9054 32.1748H33.3154C33.3978 32.1748 33.4649 32.2441 33.4649 32.3292V32.8402C33.4649 32.9253 33.3978 32.9947 33.3154 32.9947C32.375 32.9947 30.4087 32.9947 29.4105 32.9947C29.3281 32.9947 29.2611 32.9253 29.2611 32.8402V32.3292C29.2611 32.2441 29.3281 32.1748 29.4105 32.1748H30.1468C30.3898 32.1748 30.5867 31.9713 30.5867 31.7203C30.5867 31.4692 30.3898 31.2658 30.1468 31.2658H29.4105C28.843 31.2658 28.3814 31.7428 28.3814 32.3292V32.8402C28.3814 33.1278 28.4929 33.3887 28.673 33.5803C28.2939 33.7495 27.9584 34.0035 27.6886 34.3191H25.8193C25.3997 34.3191 25.038 34.6135 24.9397 35.0351L24.3938 37.3792C24.3902 37.3946 24.3771 37.4053 24.3618 37.4053H23.1258C23.1105 37.4053 23.0973 37.3946 23.0937 37.3792L22.4939 34.8038C22.4134 34.4585 22.155 34.1937 21.8193 34.1126C20.8853 33.8872 20.0111 33.4866 19.221 32.9221C19.0212 32.7793 18.7472 32.8309 18.609 33.0373C18.4709 33.2437 18.5208 33.5268 18.7205 33.6696C19.6019 34.2995 20.5771 34.7464 21.6192 34.9978C21.629 35.0002 21.6365 35.0073 21.6386 35.0165L22.2384 37.5919C22.3375 38.0173 22.7024 38.3143 23.1258 38.3143H24.3617C24.785 38.3143 25.1499 38.0173 25.249 37.5919L25.7949 35.2479C25.7976 35.2363 25.8076 35.2281 25.8193 35.2281H27.1619C27.0518 35.5369 26.9915 35.8705 26.9915 36.2183C26.9915 37.8019 28.2383 39.0903 29.7708 39.0903C29.9439 39.0903 30.1131 39.073 30.2774 39.0416C30.3764 39.0735 30.4799 39.0903 30.5833 39.0903H34.4882C35.0556 39.0903 35.5173 38.6132 35.5173 38.0268V37.8177H37.8625C38.43 37.8177 38.8917 37.3406 38.8917 36.7542V36.2433C38.8917 36.0168 38.8223 35.807 38.705 35.6343C38.8223 35.4616 38.8917 35.2519 38.8917 35.0254V34.5144C38.8917 34.2879 38.8223 34.0782 38.705 33.9055C38.8223 33.7328 38.8917 33.523 38.8917 33.2965V32.7855C38.8917 32.4742 38.7607 32.1946 38.5537 31.9999C39.1087 31.128 39.4653 30.1545 39.6087 29.1278L40.0597 29.6037C40.3729 29.934 40.7872 30.1052 41.2068 30.1052C41.4973 30.1052 41.7904 30.0231 42.054 29.8549C42.6938 29.4466 42.9761 28.6186 42.7252 27.886C42.4549 27.097 42.0328 26.3912 41.4707 25.7885L41.0688 25.3576C40.8459 25.1186 40.8202 24.7494 41.0077 24.4798C41.2197 24.1751 41.6337 24.1032 41.9305 24.3194L42.9807 25.0842C43.1793 25.2287 43.4536 25.1797 43.5936 24.9745C43.7337 24.7693 43.6862 24.4858 43.4876 24.3412ZM34.3445 32.8402V32.6311H37.8626C37.9451 32.6311 38.0122 32.7005 38.0122 32.7856V33.2965C38.0122 33.3817 37.9451 33.4511 37.8626 33.4511H35.332C35.1459 33.1757 34.8373 32.9948 34.4883 32.9948H34.3324C34.3396 32.9441 34.3445 32.8928 34.3445 32.8402ZM38.0122 34.5144V35.0254C38.0122 35.1105 37.9451 35.1798 37.8626 35.1798H35.332C35.3316 35.1792 35.3311 35.1786 35.3307 35.178C35.448 35.0053 35.5174 34.7955 35.5174 34.569V34.36H37.8626C37.9451 34.36 38.0122 34.4292 38.0122 34.5144ZM32.4918 35.6325H34.4883C34.5707 35.6325 34.6378 35.7018 34.6378 35.787V36.2979C34.6378 36.3831 34.5707 36.4524 34.4883 36.4524H32.5401C32.5462 36.3751 32.5501 36.2972 32.5501 36.2183C32.5501 36.0175 32.53 35.8217 32.4918 35.6325ZM34.4883 33.9037C34.5707 33.9037 34.6378 33.973 34.6378 34.0581V34.5691C34.6378 34.6543 34.5707 34.7236 34.4883 34.7236H32.1431C31.9537 34.4037 31.7052 34.1252 31.4137 33.9037C31.9189 33.9037 33.7477 33.9037 34.4883 33.9037ZM27.8713 36.2182C27.8713 35.1359 28.7234 34.2553 29.7709 34.2553C30.8073 34.2553 31.6706 35.1258 31.6706 36.2182C31.6706 37.3006 30.8184 38.1812 29.7709 38.1812C28.7234 38.1812 27.8713 37.3006 27.8713 36.2182ZM34.6378 38.0268C34.6378 38.1119 34.5707 38.1812 34.4883 38.1812H31.7969C32.0137 37.9424 32.1916 37.6656 32.3198 37.3614H34.4882C34.5706 37.3614 34.6377 37.4307 34.6377 37.5158V38.0268H34.6378ZM38.0122 36.7542C38.0122 36.8394 37.9451 36.9087 37.8626 36.9087H35.332C35.3316 36.9081 35.3311 36.9075 35.3307 36.9069C35.4479 36.7342 35.5173 36.5244 35.5173 36.2979V36.0888H37.8626C37.945 36.0888 38.0121 36.1581 38.0121 36.2433V36.7542H38.0122Z" fill="white"/>
</g>
<defs>
<clipPath id="clip0">
<rect width="30" height="31" fill="white" transform="translate(13.6738 13.0039)"/>
</clipPath>
</defs>
</svg>
