<svg width="70" height="214" viewBox="0 0 70 214" fill="none" xmlns="http://www.w3.org/2000/svg">
<g opacity="0.3">
<path d="M94.4592 0.777359C94.627 14.407 93.914 27.3237 92.572 39.5694L84.2684 44.8116L91.1462 50.3473C90.0139 57.8541 88.6719 65.1092 87.0782 72.1128L78.3553 76.7678L83.9749 84.4004C81.9199 91.7814 79.6553 98.8688 77.181 105.579L68.4581 109.856L72.8615 116.482C69.3807 124.786 65.6483 132.544 61.79 139.758L50.1734 142.274L56.0865 149.781C50.2153 159.636 44.1344 168.317 38.2632 175.824L27.4853 177.711L31.5532 184.085C14.6525 203.838 0.980881 213.316 0.980881 213.316C0.980881 213.316 55.9607 127.135 94.4592 0.777359Z" fill="#8CB13D"/>
<path d="M0.980164 213.316C-0.152145 198.722 2.44797 182.072 7.43851 164.71L16.2034 160.013L10.5419 154.645C13.6452 145.168 17.3777 135.564 21.5295 126.044L32.0557 123.863L26.8555 114.134C31.3428 104.53 36.1237 95.0944 41.0303 85.9521L52.3953 87.7135L46.6499 75.6774C50.8856 68.0868 55.1632 60.8316 59.2731 53.9958L67.7863 54.8346L64.5152 45.3987C81.1644 18.8104 94.4585 0.777359 94.4585 0.777359C55.96 127.135 0.980164 213.316 0.980164 213.316Z" fill="#7B9C35"/>
</g>
</svg>
