<svg width="18" height="17" viewBox="0 0 18 17" fill="none" xmlns="http://www.w3.org/2000/svg">
<g clip-path="url(#clip0)">
<path d="M13.8417 5.01622C14.0554 5.39288 14.2562 5.75071 14.47 6.10226C14.4959 6.1462 14.5865 6.16504 14.6448 6.17131C15.5128 6.17759 16.3807 6.17131 17.2486 6.17131C17.7733 6.17131 18 6.38476 18 6.89325C18 7.97301 18 9.0465 18 10.1263C18 10.6034 17.7733 10.8294 17.2746 10.8294C16.4001 10.8294 15.5257 10.8294 14.6513 10.8294C14.5282 10.8294 14.4764 10.8733 14.4181 10.9738C14.2562 11.2562 14.0878 11.5387 13.9 11.8024C13.8158 11.9217 13.8158 11.997 13.8935 12.1163C14.3404 12.8382 14.7809 13.5664 15.2213 14.2884C15.4674 14.6901 15.3832 15.004 14.9687 15.2363C13.9842 15.7887 12.9996 16.3412 12.0086 16.8873C11.633 17.0945 11.3026 17.0129 11.0889 16.6488C10.6355 15.9017 10.1886 15.1484 9.74163 14.3951C9.68334 14.3009 9.63152 14.2758 9.51493 14.2821C9.17164 14.2947 8.82836 14.2947 8.47859 14.2821C8.362 14.2758 8.31018 14.3009 8.25189 14.3951C7.81792 15.1359 7.371 15.8704 6.93055 16.6111C6.68442 17.0254 6.37352 17.1071 5.94602 16.8685C4.98093 16.3286 4.02231 15.795 3.05721 15.2551C2.59734 14.9978 2.51961 14.709 2.78517 14.2633C3.22562 13.5288 3.65959 12.8006 4.10004 12.0661C4.15185 11.9782 4.14538 11.928 4.09356 11.8463C3.90572 11.5513 3.72436 11.25 3.54948 10.9361C3.49766 10.8419 3.43937 10.8294 3.34869 10.8294C2.48075 10.8294 1.61281 10.8294 0.744872 10.8294C0.2267 10.8294 0 10.6096 0 10.1074C0 9.03394 0 7.96046 0 6.89325C0 6.39731 0.2267 6.17759 0.738395 6.17759C1.61281 6.17759 2.48723 6.17759 3.36164 6.17759C3.47175 6.17759 3.52357 6.1462 3.57539 6.05204C3.75027 5.75071 3.93811 5.44938 4.13242 5.15433C4.18424 5.07899 4.19072 5.02877 4.1389 4.94716C3.6855 4.2064 3.2321 3.46563 2.7787 2.71858C2.52609 2.30425 2.61029 1.99665 3.03778 1.75809C4.00288 1.21821 4.97445 0.67833 5.93955 0.138449C6.37999 -0.106382 6.68442 -0.0247715 6.93703 0.402112C7.371 1.13032 7.81144 1.85854 8.23894 2.58675C8.30371 2.69347 8.36848 2.71858 8.49154 2.71858C8.83483 2.70603 9.17812 2.70603 9.52141 2.71858C9.63152 2.72486 9.68334 2.69347 9.73516 2.60558C10.1691 1.87109 10.6096 1.1366 11.0435 0.408389C11.3026 -0.0247715 11.6071 -0.100104 12.054 0.151004C13.0191 0.690886 13.9777 1.23077 14.9428 1.76437C15.3703 2.00292 15.4545 2.31053 15.2083 2.72486C14.7549 3.49074 14.2886 4.26917 13.8417 5.01622ZM7.20259 8.50662C7.20259 9.47338 8.01871 10.2455 9.04858 10.2455C9.98129 10.2455 10.7974 9.44199 10.8039 8.51289C10.8104 7.55868 9.99424 6.75514 9.00972 6.76142C8.00576 6.76142 7.20259 7.53985 7.20259 8.50662Z" fill="white"/>
</g>
<defs>
<clipPath id="clip0">
<rect width="18" height="17" fill="white"/>
</clipPath>
</defs>
</svg>
