<svg width="12" height="14" viewBox="0 0 12 14" fill="none" xmlns="http://www.w3.org/2000/svg">
<path d="M5.6676 13.9322C4.79851 13.9562 3.87779 13.9083 2.98289 13.7244C2.47521 13.6204 1.97612 13.4685 1.52867 13.1966C0.754237 12.7249 0.384228 12.0213 0.323994 11.1977C0.26376 10.3102 0.203527 9.41467 0.272365 8.52715C0.392833 6.88003 1.13285 5.49678 2.56986 4.47333C3.0001 4.16949 3.49058 3.99359 4.0671 4.00958C5.15992 4.03357 6.24413 4.04156 7.33694 4.00958C7.99091 3.99359 8.53302 4.20947 9.01489 4.56928C10.1421 5.41682 10.8047 6.52822 11.0714 7.83952C11.3038 8.9909 11.2694 10.1663 11.1403 11.3256C11.0026 12.557 10.2368 13.3006 8.85139 13.6444C7.81881 13.8923 6.76902 13.9482 5.6676 13.9322ZM3.61104 10.1343C3.62825 10.2622 3.62825 10.3662 3.66267 10.4701C3.85198 11.1258 4.34246 11.5095 5.02224 11.6854C5.27178 11.7494 5.32341 11.8534 5.3148 12.0692C5.29759 12.6929 5.3062 12.6929 5.98598 12.6609C5.99459 12.6609 6.00319 12.6609 6.00319 12.6609C6.04622 12.6209 6.12366 12.573 6.13226 12.533C6.14947 12.3331 6.14087 12.1332 6.13226 11.9333C6.13226 11.8214 6.17529 11.7654 6.30436 11.7254C6.56251 11.6375 6.82926 11.5415 7.06159 11.4056C8.07696 10.7899 8.09417 9.57459 7.0874 8.96691C6.74321 8.75902 6.33018 8.67107 5.94296 8.53514C5.55574 8.39922 5.15131 8.29527 4.78991 8.11937C4.39409 7.92747 4.35106 7.53568 4.62642 7.19986C4.80712 6.98398 5.04805 6.86404 5.32341 6.79208C5.93435 6.63217 6.67437 6.84805 6.88088 7.3118C7.00996 7.60764 7.18205 7.64762 7.45741 7.61564C7.50043 7.60764 7.54346 7.61564 7.58648 7.61564C7.83602 7.61564 7.86184 7.59165 7.81021 7.36777C7.64672 6.68014 7.15624 6.28835 6.45925 6.07247C6.14947 5.97652 6.14087 5.97652 6.14087 5.66469C6.14087 5.05702 6.14087 5.05702 5.46969 5.089C5.34922 5.09699 5.3062 5.12898 5.3062 5.24092C5.3148 5.42482 5.3062 5.61671 5.3062 5.80062C5.3148 5.93654 5.26317 5.98452 5.11689 6.03249C4.81572 6.14443 4.50595 6.26437 4.2392 6.44027C3.45616 6.96799 3.38732 8.03142 4.09292 8.6151C4.48013 8.93493 4.9534 9.10284 5.45248 9.22277C5.8397 9.31872 6.23552 9.43866 6.59693 9.60657C7.04438 9.81446 7.09601 10.2942 6.74321 10.63C6.39041 10.9738 5.94296 11.0698 5.46109 10.9978C4.98782 10.9259 4.592 10.734 4.45432 10.2462C4.44571 10.2062 4.37688 10.1583 4.34246 10.1583C4.11873 10.1263 3.87779 10.1343 3.61104 10.1343Z" fill="#80837A"/>
<path d="M5.71081 3.41763C5.03103 3.41763 4.35125 3.41763 3.67146 3.41763C3.58542 3.41763 3.47355 3.39365 3.42192 3.34567C2.97447 2.88992 2.58725 2.39419 2.43237 1.77852C2.33771 1.40272 2.38934 1.04291 2.59586 0.699097C2.69912 0.531187 2.82819 0.475217 3.0261 0.555174C3.23262 0.635131 3.43913 0.707093 3.64565 0.779054C4.16194 0.962955 4.66963 0.922977 5.16871 0.699097C5.24615 0.667114 5.3322 0.635131 5.40104 0.595153C5.62476 0.459226 5.83128 0.475217 6.06361 0.603149C6.72618 0.962955 7.41457 0.970951 8.11157 0.667114C8.1804 0.635131 8.25785 0.611144 8.32669 0.587157C8.65367 0.467222 8.73111 0.491209 8.886 0.779054C9.13554 1.2428 9.10973 1.72255 8.86019 2.16231C8.62786 2.57809 8.30948 2.95388 8.01691 3.33768C7.97389 3.39365 7.86202 3.41763 7.77598 3.41763C7.08759 3.41763 6.3992 3.41763 5.71081 3.41763Z" fill="#80837A"/>
</svg>
