<svg width="25" height="25" viewBox="0 0 25 25" fill="none" xmlns="http://www.w3.org/2000/svg">
<rect x="0.519043" y="0.393066" width="24" height="24" rx="2" fill="#8CB13D"/>
<path fill-rule="evenodd" clip-rule="evenodd" d="M19.394 9.54535V15.2408L15.3668 19.2681H9.67132L5.64404 15.2408V9.54535L9.67132 5.51807H15.3668L19.394 9.54535ZM14.849 6.76807H10.1891L6.89404 10.0631V14.723L10.1891 18.0181H14.849L18.144 14.723V10.0631L14.849 6.76807ZM10.461 15.335L12.519 13.2769L14.5771 15.335L15.461 14.4511L13.4029 12.393L15.461 10.335L14.5771 9.4511L12.519 11.5092L10.461 9.4511L9.57707 10.335L11.6351 12.393L9.57707 14.4511L10.461 15.335Z" fill="white"/>
</svg>
