<svg width="20" height="20" viewBox="0 0 20 20" fill="none" xmlns="http://www.w3.org/2000/svg">
<path d="M13.8116 6.89531L12.246 6.83789L11.9066 16.1068L13.4722 16.164L13.8116 6.89531Z" fill="white"/>
<path d="M10.7833 6.8667H9.21677V16.1357H10.7833V6.8667Z" fill="white"/>
<path d="M8.09331 16.1066L7.7539 6.83765L6.18835 6.89511L6.52781 16.164L8.09331 16.1066Z" fill="white"/>
<path d="M0.678955 3.00244V4.569H2.31134L3.60634 19.2852C3.64185 19.6896 3.98052 19.9998 4.38649 19.9998H15.5873C15.9933 19.9998 16.3322 19.6894 16.3674 19.2849L17.6625 4.569H19.3212V3.00244H0.678955ZM14.8698 18.4333H5.10376L3.88392 4.569H16.0899L14.8698 18.4333Z" fill="white"/>
<path d="M12.5588 0H7.44127C6.72143 0 6.1358 0.585625 6.1358 1.30547V3.7859H7.70236V1.56656H12.2977V3.7859H13.8642V1.30547C13.8642 0.585625 13.2786 0 12.5588 0Z" fill="white"/>
</svg>
