<svg width="30" height="30" viewBox="0 0 30 30" fill="none" xmlns="http://www.w3.org/2000/svg">
<path opacity="0.2" d="M15 30C23.2843 30 30 23.2843 30 15C30 6.71573 23.2843 0 15 0C6.71573 0 0 6.71573 0 15C0 23.2843 6.71573 30 15 30Z" fill="#98C03C"/>
<path d="M18.223 21.3091L22.5588 17.0525C22.8273 16.7865 22.9808 16.4254 23 16.0264C23 15.6464 22.8465 15.2853 22.5779 15.0003C22.0216 14.4302 21.0815 14.4302 20.5252 14.9813L16.6115 18.8388H8.45803C7.65228 18.8388 7 19.4848 7 20.2829C7 21.081 7.65228 21.7271 8.45803 21.7271H9.26379L8.47722 22.3162C8.30456 22.4492 8.26619 22.6772 8.40048 22.8483C8.47722 22.9433 8.59233 23.0003 8.70743 23.0003C8.78417 23.0003 8.86091 22.9813 8.93765 22.9243L10.5875 21.7271H15.0576L16.7074 22.9243C16.7842 22.9813 16.8609 23.0003 16.9376 23.0003C17.0528 23.0003 17.1679 22.9433 17.2446 22.8483C17.3789 22.6772 17.3405 22.4492 17.1679 22.3162L16.3429 21.7271H17.2062C17.5899 21.7271 17.9544 21.5751 18.223 21.3091Z" fill="#99BF18"/>
<path d="M16.7266 11.7313C16.7266 10.6862 15.8633 9.83105 14.8081 9.83105C13.753 9.83105 12.8896 10.6862 12.8896 11.7313C12.8896 12.7764 13.753 13.6315 14.8081 13.6315C15.8633 13.6315 16.7266 12.7954 16.7266 11.7313Z" fill="#99BF18"/>
<path d="M14.4246 14.9621V16.1022C14.4246 16.3112 14.5972 16.4823 14.8083 16.4823C15.0193 16.4823 15.1919 16.3112 15.1919 16.1022V14.9621C15.1919 14.7531 15.0193 14.582 14.8083 14.582C14.5972 14.582 14.4246 14.7531 14.4246 14.9621Z" fill="#99BF18"/>
<path d="M15.1919 8.52019V7.38005C15.1919 7.17102 15.0193 7 14.8083 7C14.5972 7 14.4246 7.17102 14.4246 7.38005V8.52019C14.4246 8.72922 14.5972 8.90024 14.8083 8.90024C15.0193 8.90024 15.1919 8.72922 15.1919 8.52019Z" fill="#99BF18"/>
<path d="M10.031 11.7316C10.031 11.9406 10.2037 12.1117 10.4147 12.1117H11.5658C11.7768 12.1117 11.9495 11.9406 11.9495 11.7316C11.9495 11.5226 11.7768 11.3516 11.5658 11.3516H10.4147C10.2037 11.3516 10.031 11.5226 10.031 11.7316Z" fill="#99BF18"/>
<path d="M19.5852 11.7316C19.5852 11.5226 19.4126 11.3516 19.2015 11.3516H18.0504C17.8394 11.3516 17.6667 11.5226 17.6667 11.7316C17.6667 11.9406 17.8394 12.1117 18.0504 12.1117H19.2015C19.4126 12.1117 19.5852 11.9406 19.5852 11.7316Z" fill="#99BF18"/>
<path d="M11.7003 15.19C11.7963 15.19 11.8922 15.152 11.9689 15.076L12.7747 14.2779C12.9282 14.1259 12.9282 13.8979 12.7747 13.7459C12.6212 13.5938 12.391 13.5938 12.2375 13.7459L11.4318 14.544C11.2783 14.696 11.2783 14.924 11.4318 15.076C11.5085 15.152 11.6044 15.19 11.7003 15.19Z" fill="#99BF18"/>
<path d="M17.1103 9.85019C17.2062 9.85019 17.3021 9.81218 17.3788 9.73617L18.1846 8.93807C18.3381 8.78605 18.3381 8.55803 18.1846 8.40601C18.0311 8.25399 17.8009 8.25399 17.6474 8.40601L16.8417 9.20411C16.6882 9.35613 16.6882 9.58415 16.8417 9.73617C16.9184 9.81218 17.0143 9.85019 17.1103 9.85019Z" fill="#99BF18"/>
<path d="M12.5061 9.85019C12.602 9.85019 12.6979 9.81218 12.7747 9.73617C12.9282 9.58415 12.9282 9.35613 12.7747 9.20411L11.9689 8.40601C11.8155 8.25399 11.5852 8.25399 11.4318 8.40601C11.2783 8.55803 11.2783 8.78605 11.4318 8.93807L12.2375 9.73617C12.3143 9.81218 12.4102 9.85019 12.5061 9.85019Z" fill="#99BF18"/>
<path d="M17.6474 15.0946C17.7242 15.1706 17.8201 15.2086 17.916 15.2086C18.0119 15.2086 18.1079 15.1706 18.1846 15.0946C18.3381 14.9426 18.3381 14.7145 18.1846 14.5625L17.3788 13.7644C17.2254 13.6124 16.9951 13.6124 16.8417 13.7644C16.6882 13.9164 16.6882 14.1445 16.8417 14.2965L17.6474 15.0946Z" fill="#99BF18"/>
</svg>
