<svg width="66" height="23" viewBox="0 0 66 23" fill="none" xmlns="http://www.w3.org/2000/svg">
<path fill-rule="evenodd" clip-rule="evenodd" d="M22.9078 11.5079C22.9078 17.7852 17.819 22.874 11.5416 22.874C5.26398 22.874 0.175049 17.7852 0.175049 11.5079C0.175049 5.23049 5.26398 0.141706 11.5416 0.141706C17.819 0.141706 22.9078 5.23049 22.9078 11.5079Z" fill="#ED342B"/>
<path fill-rule="evenodd" clip-rule="evenodd" d="M11.5415 16.3766C8.99916 10.6137 7.13502 5.23004 7.13502 5.23004H3.23755C3.23755 5.23004 5.60973 12.14 10.0161 20.7812H13.067C17.4734 12.14 19.8454 5.23004 19.8454 5.23004L15.9479 5.23004C15.9479 5.23004 14.0839 10.6137 11.5415 16.3766Z" fill="#FEFEFE"/>
<path fill-rule="evenodd" clip-rule="evenodd" d="M60.4918 10.916C58.2885 10.916 58.1193 13.2886 58.1193 13.2886H62.8638C62.8638 13.2886 62.6946 10.916 60.4918 10.916ZM65.7449 15.6608H58.1193C58.1193 15.6608 58.2885 18.203 61.6781 18.203C63.3724 18.203 65.0671 17.6941 65.0671 17.6941L65.4062 20.4054C65.4062 20.4054 63.7116 21.0837 61.339 21.0837C57.9498 21.0837 54.8995 19.3889 54.8995 14.6441C54.8995 10.916 57.2721 8.54349 60.6613 8.54349C65.7449 8.54349 66.0836 13.6273 65.7449 15.6608ZM39.815 11.6567L40.3398 8.85871C40.3398 8.85871 36.2881 7.62928 32.9949 9.90765V21.0996H36.4923V12.0061C37.8912 10.9573 39.815 11.6567 39.815 11.6567ZM25.2369 10.916C23.0341 10.916 22.8647 13.2886 22.8647 13.2886H27.6094C27.6094 13.2886 27.4402 10.916 25.2369 10.916ZM30.4901 15.6608H22.8647C22.8647 15.6608 23.0341 18.203 26.4232 18.203C28.1175 18.203 29.8122 17.6941 29.8122 17.6941L30.1514 20.4054C30.1514 20.4054 28.4566 21.0837 26.0841 21.0837C22.695 21.0837 19.6445 19.3889 19.6445 14.6441C19.6445 10.916 22.0171 8.54349 25.4063 8.54349C30.4901 8.54349 30.8288 13.6273 30.4901 15.6608ZM48.3501 16.8221C46.5742 12.5597 45.6866 8.54554 45.6866 8.54554L42.1356 8.54597C42.1356 8.54597 43.9113 15.4012 46.9302 21.0816L49.77 21.0816C52.789 15.4012 54.5648 8.54696 54.5648 8.54696H51.0136C51.0136 8.54696 50.126 12.5597 48.3501 16.8221Z" fill="#03435F"/>
</svg>
