<svg width="73" height="24" viewBox="0 0 73 24" fill="none" xmlns="http://www.w3.org/2000/svg">
<path d="M29.8391 0.836914L26.1754 23.6358H32.0313L35.6928 0.836914H29.8391ZM47.5028 10.1239C45.4564 9.11332 44.2019 8.43127 44.2019 7.39769C44.2269 6.45794 45.2627 5.49516 47.5758 5.49516C49.4784 5.44737 50.8767 5.89448 51.9376 6.33934L52.469 6.57653L53.2651 1.80644C52.1085 1.35933 50.2745 0.866687 48.0092 0.866687C42.2263 0.866687 38.1542 3.87335 38.129 8.17356C38.0812 11.3469 41.0443 13.1078 43.2619 14.1641C45.5272 15.2478 46.2983 15.9503 46.2983 16.9131C46.2733 18.3913 44.4666 19.0733 42.7807 19.0733C40.4448 19.0733 39.1901 18.7221 37.2853 17.8984L36.5142 17.5471L35.6953 22.5043C37.0709 23.1158 39.6007 23.654 42.2265 23.6815C48.3722 23.6815 52.3712 20.7204 52.4215 16.1375C52.4415 13.6234 50.879 11.6979 47.5028 10.1239ZM68.278 0.90747H63.7473C62.3512 0.90747 61.2904 1.30904 60.6859 2.7417L51.9874 23.6358H58.1331L59.8257 19.1121H66.7015L67.5797 23.654H73L68.278 0.90747ZM61.53 14.5469C61.6486 14.5585 63.8889 7.1625 63.8889 7.1625L65.6729 14.5469C65.6729 14.5469 62.6867 14.5469 61.53 14.5469ZM21.2822 0.836914L15.5448 16.3266L14.9198 13.2719C13.859 9.74733 10.533 5.91725 6.82129 4.01472L12.075 23.613H18.271L27.4782 0.839415H21.2822V0.836914Z" fill="#192061"/>
<path d="M12.9894 3.77766C12.5423 2.03926 11.1164 0.866817 9.17988 0.841797H0.0935753L0 1.26364C7.08795 3.01104 13.0372 8.38786 14.9673 13.4454L12.9894 3.77766Z" fill="#192061"/>
</svg>
