<svg width="29" height="22" viewBox="0 0 29 22" fill="none" xmlns="http://www.w3.org/2000/svg">
<path d="M28.9765 8.24583C28.8356 8.24583 28.7181 8.24583 28.6006 8.24583C25.3588 8.24583 22.1171 8.24583 18.887 8.24583C17.1839 8.24583 15.8919 9.52554 15.9506 11.1168C16.0093 12.5857 17.3013 13.7319 18.9222 13.743C20.3904 13.7542 21.8586 13.743 23.3269 13.743C25.0887 13.743 26.8505 13.743 28.6124 13.743C28.7299 13.743 28.8473 13.743 28.9883 13.743C28.9883 13.8655 28.9883 13.9656 28.9883 14.0658C28.9883 16.2023 28.9648 18.3278 29 20.4643C29.0117 21.5215 28.307 22 27.3674 22C18.7813 21.9889 10.1952 21.9889 1.6209 21.9889C0.739976 21.9889 0.246659 21.6773 0.0587282 21.0096C0.0117456 20.8427 0.0117456 20.6646 0.0117456 20.4866C0 14.1548 0 7.82296 0 1.48002C0 0.489631 0.528554 0 1.57392 0C10.1835 0 18.8048 0 27.4143 0C28.2718 0 28.7533 0.311583 28.953 0.979262C28.9883 1.10167 29 1.2352 29 1.36874C29 3.60546 29 5.84219 29 8.06778C28.9883 8.11229 28.9883 8.1568 28.9765 8.24583Z" fill="white"/>
</svg>
