<svg width="209" height="34" viewBox="0 0 209 34" fill="none" xmlns="http://www.w3.org/2000/svg">
<g clip-path="url(#clip0)">
<path d="M21.4096 19.0749C19.4901 21.1135 17.5707 23.0792 15.6512 25.1178C12.9935 27.8844 9.89281 30.2141 7.08744 32.8351C6.27536 33.5632 5.46328 33.636 4.57737 32.9807C3.61764 32.2527 4.42972 31.5246 4.87267 30.9422C8.26865 26.3555 11.3693 21.5503 13.5103 16.0899C12.6982 17.182 11.8861 18.3469 11.074 19.439C10.1881 20.6039 9.37603 21.8415 8.49012 23.0064C6.71831 25.3362 4.87267 27.5931 3.17469 29.9229C2.43643 30.9422 1.91965 30.5782 1.40287 29.7773C0.369318 28.2484 0.0740159 26.5011 0.0740159 24.7537C0.00019038 19.6574 -0.0736351 14.561 0.0740159 9.46467C0.221667 3.56745 3.91294 0 9.89281 0C14.9129 0 20.0069 0 25.027 0C30.7116 0 34.4029 3.64026 34.4029 9.24625C34.4029 14.6338 34.4029 20.0214 34.4029 25.409C34.4029 30.3597 30.7854 33.8544 25.8391 33.9272C21.0405 33.9272 16.2418 33.9272 11.4431 33.9272C10.7787 33.9272 9.74516 34.2912 9.44986 33.4904C9.22838 32.8351 10.2619 32.3983 10.7787 31.8886C14.7653 28.394 18.2351 24.4625 21.4834 20.2398C21.6311 20.0214 21.7787 19.7302 21.9264 19.5118C21.7787 19.3662 21.6311 19.2206 21.4096 19.0749ZM25.7653 6.04283C22.9599 9.82869 20.1546 13.7602 17.2754 17.4732C14.3223 21.1863 11.2955 24.7537 8.93308 28.9036C16.7586 22.788 21.7049 14.7066 25.7653 6.04283Z" fill="#99BF18"/>
<path d="M48.2823 14.0513L50.5709 21.8415L52.638 14.561C52.8595 13.8329 53.0071 13.2505 53.1548 13.0321C53.2286 12.7408 53.4501 12.5224 53.7454 12.2312C54.0407 12.0128 54.4836 11.8672 55.0004 11.8672C55.5172 11.8672 55.9601 12.0128 56.2555 12.2312C56.5508 12.4496 56.7722 12.7408 56.9199 13.0321C57.0675 13.3233 57.2152 13.8329 57.4367 14.561L59.5038 21.8415L61.8662 14.0513C62.0138 13.4689 62.1615 13.1049 62.2353 12.8137C62.3091 12.5224 62.4568 12.304 62.7521 12.1584C62.9736 11.94 63.2689 11.8672 63.7118 11.8672C64.1548 11.8672 64.5239 12.0128 64.8192 12.304C65.1145 12.5952 65.2622 12.9593 65.2622 13.3233C65.2622 13.6873 65.1145 14.197 64.893 14.925L61.94 23.2976C61.7185 24.0256 61.4971 24.5353 61.3494 24.8265C61.2018 25.1177 60.9803 25.4089 60.685 25.7002C60.3897 25.9186 59.9467 26.0642 59.4299 26.0642C58.9132 26.0642 58.4702 25.9186 58.1749 25.7002C57.8796 25.4817 57.6581 25.1177 57.5105 24.7537C57.3628 24.3897 57.2152 23.88 56.9937 23.2248L55.0004 16.3811L53.0071 23.2248C52.7118 24.1713 52.4903 24.8993 52.195 25.3361C51.8997 25.8458 51.383 26.0642 50.5709 26.0642C50.2018 26.0642 49.8326 25.9914 49.6112 25.8458C49.3897 25.7002 49.0944 25.4817 48.9467 25.1905C48.7991 24.8993 48.5776 24.6081 48.4299 24.1713C48.2823 23.8072 48.2085 23.516 48.1346 23.2976L45.2555 14.925C44.9601 14.1241 44.8125 13.6145 44.8125 13.3233C44.8125 12.9593 44.9601 12.5952 45.2555 12.304C45.5508 12.0128 45.9199 11.8672 46.3628 11.8672C46.9534 11.8672 47.3226 12.0128 47.544 12.3768C47.7655 12.7408 48.0608 13.2505 48.2823 14.0513Z" fill="black"/>
<path d="M77.222 19.8029H70.2824C70.2824 20.6038 70.43 21.3319 70.7992 21.9143C71.0945 22.4967 71.5374 23.0064 72.0542 23.2976C72.571 23.5888 73.1616 23.7344 73.7522 23.7344C74.1951 23.7344 74.5643 23.6616 74.9334 23.5888C75.3025 23.516 75.5978 23.3704 75.967 23.152C76.2623 22.9336 76.6314 22.7152 76.8529 22.4967C77.1482 22.2783 77.5173 21.9143 77.9602 21.5503C78.1079 21.4047 78.4032 21.3319 78.7723 21.3319C79.1414 21.3319 79.4368 21.4047 79.6582 21.6231C79.8797 21.8415 80.0274 22.1327 80.0274 22.4239C80.0274 22.7152 79.8797 23.0792 79.6582 23.516C79.4368 23.9528 78.9938 24.3169 78.5508 24.7537C78.0341 25.1177 77.4435 25.4817 76.6314 25.7002C75.8931 25.9914 75.0072 26.0642 73.9737 26.0642C71.6851 26.0642 69.9133 25.4089 68.6582 24.1713C67.4032 22.8608 66.7388 21.1862 66.7388 18.9293C66.7388 17.91 66.8864 16.9635 67.1817 16.0899C67.477 15.2162 67.92 14.4154 68.5106 13.8329C69.1012 13.1777 69.8394 12.7408 70.7253 12.3768C71.6113 12.0128 72.571 11.8672 73.6045 11.8672C75.0072 11.8672 76.1884 12.1584 77.1482 12.7408C78.1079 13.3233 78.8461 14.0513 79.3629 14.9978C79.8797 15.9443 80.1012 16.8179 80.1012 17.7644C80.1012 18.6381 79.8797 19.2205 79.3629 19.4389C78.8461 19.6573 78.1817 19.8029 77.222 19.8029ZM70.2824 17.8372H76.7052C76.6314 16.6723 76.2623 15.7259 75.7455 15.1434C75.1549 14.561 74.4166 14.2698 73.5307 14.2698C72.6448 14.2698 71.9065 14.561 71.3898 15.1434C70.7992 15.7987 70.43 16.6723 70.2824 17.8372Z" fill="black"/>
<path d="M92.1346 24.0985C91.2487 24.7537 90.4366 25.2634 89.6245 25.5546C88.8125 25.9186 87.9266 26.0642 86.9668 26.0642C86.0809 26.0642 85.2688 25.9186 84.6044 25.5546C83.94 25.1906 83.4232 24.7537 82.9803 24.0985C82.6111 23.516 82.3896 22.8608 82.3896 22.1327C82.3896 21.1863 82.685 20.3854 83.2756 19.6574C83.8662 19.0021 84.7521 18.5653 85.7856 18.2741C86.0071 18.2013 86.5977 18.1285 87.4836 17.91C88.3695 17.7644 89.1078 17.546 89.7722 17.4004C90.4366 17.2548 91.1011 17.0364 91.8393 16.8908C91.7655 15.9443 91.6178 15.2891 91.2487 14.8522C90.8796 14.4154 90.2151 14.197 89.1816 14.197C88.2957 14.197 87.6313 14.3426 87.1145 14.561C86.6715 14.7794 86.3024 15.1435 85.9333 15.6531C85.638 16.1627 85.3427 16.4539 85.2688 16.5996C85.1212 16.7452 84.8259 16.818 84.3829 16.818C84.0138 16.818 83.6447 16.6724 83.3494 16.4539C83.0541 16.2355 82.9064 15.8715 82.9064 15.5075C82.9064 14.925 83.1279 14.2698 83.5709 13.6873C84.0138 13.1049 84.6782 12.5953 85.638 12.2312C86.5977 11.8672 87.7051 11.6488 89.1078 11.6488C90.6581 11.6488 91.9131 11.7944 92.799 12.1584C93.6849 12.5225 94.3494 13.1049 94.7185 13.9058C95.0876 14.7066 95.2353 15.7259 95.2353 17.0364C95.2353 17.8372 95.2353 18.5653 95.2353 19.1477C95.2353 19.7302 95.2353 20.3854 95.2353 21.0407C95.2353 21.6959 95.3091 22.3512 95.5306 23.0792C95.7521 23.8073 95.8259 24.2441 95.8259 24.4625C95.8259 24.8265 95.6782 25.1178 95.3091 25.409C94.94 25.7002 94.5708 25.8458 94.1279 25.8458C93.7588 25.8458 93.3896 25.7002 93.0205 25.3362C92.8729 25.2634 92.5037 24.7537 92.1346 24.0985ZM91.8393 19.0749C91.3225 19.2933 90.5843 19.439 89.5507 19.6574C88.5172 19.8758 87.8527 20.0214 87.4836 20.0942C87.1145 20.167 86.7454 20.3854 86.3762 20.6766C86.0071 20.9679 85.8594 21.3319 85.8594 21.8415C85.8594 22.3512 86.0809 22.788 86.45 23.2248C86.893 23.5888 87.4098 23.8073 88.0742 23.8073C88.7386 23.8073 89.4031 23.6616 89.9937 23.3704C90.5843 23.0792 91.0272 22.6424 91.3225 22.2055C91.6178 21.6959 91.8393 20.8223 91.8393 19.5846V19.0749Z" fill="black"/>
<path d="M98.9268 23.9529V8.80941C98.9268 8.08136 99.0744 7.57172 99.3697 7.20769C99.665 6.84367 100.108 6.69806 100.625 6.69806C101.142 6.69806 101.584 6.84367 101.954 7.20769C102.249 7.57172 102.47 8.08136 102.47 8.80941V23.9529C102.47 24.6809 102.323 25.1906 101.954 25.5546C101.584 25.9186 101.215 26.0642 100.625 26.0642C100.108 26.0642 99.665 25.8458 99.3697 25.4818C99.1482 25.1906 98.9268 24.6081 98.9268 23.9529Z" fill="black"/>
<path d="M106.383 12.1584H106.752V10.0471C106.752 9.46465 106.752 9.02782 106.826 8.7366C106.9 8.44538 106.974 8.15416 107.047 7.93574C107.195 7.71733 107.417 7.49891 107.638 7.3533C107.933 7.20769 108.155 7.13489 108.524 7.13489C108.967 7.13489 109.41 7.2805 109.779 7.64452C110 7.86294 110.148 8.15416 110.222 8.44538C110.296 8.7366 110.296 9.24624 110.296 9.82868V12.2312H111.625C112.141 12.2312 112.51 12.3769 112.806 12.5953C113.101 12.8137 113.175 13.1049 113.175 13.4689C113.175 13.9058 112.953 14.2698 112.584 14.4882C112.215 14.7066 111.698 14.7794 110.96 14.7794H110.296V21.1135C110.296 21.6959 110.296 22.0599 110.37 22.3512C110.443 22.6424 110.517 22.8608 110.665 23.0792C110.812 23.2976 111.108 23.3704 111.477 23.3704C111.698 23.3704 111.994 23.3704 112.289 23.2976C112.658 23.2248 112.953 23.2248 113.101 23.2248C113.396 23.2248 113.618 23.3704 113.839 23.5888C114.061 23.8073 114.208 24.0985 114.208 24.4625C114.208 25.0449 113.913 25.4818 113.249 25.773C112.658 26.0642 111.698 26.2098 110.591 26.2098C109.484 26.2098 108.672 25.9914 108.081 25.6274C107.49 25.2634 107.121 24.7537 106.974 24.0985C106.826 23.4432 106.678 22.5696 106.678 21.4775V14.7794H106.309C105.792 14.7794 105.423 14.6338 105.128 14.4154C104.833 14.197 104.759 13.9058 104.759 13.5417C104.759 13.1777 104.906 12.8865 105.202 12.6681C105.497 12.4497 105.792 12.1584 106.383 12.1584Z" fill="black"/>
<path d="M119.007 8.80941V13.9786C119.45 13.4689 119.893 13.0321 120.336 12.7409C120.779 12.4497 121.222 12.2313 121.739 12.0856C122.255 11.94 122.846 11.8672 123.437 11.8672C124.323 11.8672 125.135 12.0856 125.799 12.4497C126.463 12.8137 127.054 13.3961 127.423 14.0514C127.645 14.4882 127.866 14.925 127.94 15.4347C128.014 15.9443 128.088 16.5268 128.088 17.2548V23.9529C128.088 24.6809 127.94 25.1906 127.571 25.5546C127.276 25.9186 126.833 26.0642 126.242 26.0642C125.061 26.0642 124.47 25.3362 124.47 23.9529V18.0557C124.47 16.9636 124.323 16.0899 123.953 15.5075C123.584 14.925 122.994 14.6338 122.034 14.6338C121.37 14.6338 120.853 14.7794 120.336 15.1435C119.819 15.5075 119.45 16.0171 119.229 16.5996C119.007 17.1092 118.933 18.0557 118.933 19.3662V23.9529C118.933 24.6081 118.786 25.1906 118.49 25.5546C118.195 25.9186 117.752 26.0642 117.161 26.0642C115.98 26.0642 115.39 25.3362 115.39 23.9529V8.80941C115.39 8.08136 115.537 7.57172 115.833 7.20769C116.128 6.84367 116.571 6.69806 117.161 6.69806C117.752 6.69806 118.195 6.84367 118.49 7.20769C118.786 7.57172 119.007 8.08136 119.007 8.80941Z" fill="black"/>
<path d="M134.879 8.66379V13.9786C135.544 13.3233 136.208 12.7409 136.947 12.3769C137.611 12.0128 138.497 11.8672 139.53 11.8672C140.712 11.8672 141.745 12.1584 142.631 12.6681C143.517 13.2505 144.181 14.0514 144.698 15.0706C145.215 16.0899 145.437 17.3276 145.437 18.7837C145.437 19.8758 145.289 20.8222 144.994 21.6959C144.698 22.5696 144.329 23.3704 143.812 24.0257C143.296 24.6809 142.631 25.1906 141.893 25.5546C141.155 25.9186 140.343 26.0642 139.457 26.0642C138.94 26.0642 138.423 25.9914 137.906 25.8458C137.39 25.7002 137.02 25.5546 136.651 25.3362C136.282 25.1178 136.061 24.8993 135.765 24.6809C135.544 24.4625 135.249 24.0985 134.806 23.6616V24.0257C134.806 24.6809 134.658 25.1906 134.289 25.4818C133.92 25.773 133.551 25.9914 133.034 25.9914C132.517 25.9914 132.148 25.8458 131.853 25.4818C131.557 25.1178 131.41 24.6809 131.41 24.0257V8.73659C131.41 8.00854 131.557 7.49891 131.853 7.13488C132.148 6.77085 132.517 6.62524 133.034 6.62524C133.551 6.62524 133.994 6.77085 134.289 7.13488C134.584 7.49891 134.879 8.00854 134.879 8.66379ZM135.101 19.0749C135.101 20.4582 135.396 21.5503 136.061 22.2783C136.725 23.0064 137.537 23.3704 138.571 23.3704C139.457 23.3704 140.195 23.0064 140.859 22.2055C141.524 21.4775 141.819 20.3126 141.819 18.9293C141.819 17.9828 141.671 17.182 141.45 16.5267C141.155 15.8715 140.786 15.3619 140.343 14.9978C139.9 14.6338 139.309 14.4882 138.645 14.4882C137.98 14.4882 137.39 14.6338 136.873 14.9978C136.356 15.3619 135.913 15.8715 135.618 16.5995C135.249 17.2548 135.101 18.1285 135.101 19.0749Z" fill="black"/>
<path d="M157.101 24.0984V23.6616C156.658 24.1713 156.215 24.6081 155.772 24.9721C155.33 25.3361 154.813 25.6274 154.222 25.773C153.632 25.9186 153.041 26.0642 152.303 26.0642C151.417 26.0642 150.679 25.9186 150.014 25.5546C149.35 25.1905 148.833 24.7537 148.464 24.0984C148.021 23.3704 147.799 22.2783 147.799 20.895V13.9785C147.799 13.2505 147.947 12.7408 148.316 12.3768C148.611 12.0128 149.054 11.8672 149.571 11.8672C150.088 11.8672 150.531 12.0128 150.9 12.3768C151.195 12.7408 151.417 13.2505 151.417 13.9057V19.5117C151.417 20.3126 151.491 20.9678 151.638 21.5503C151.786 22.1327 152.007 22.4967 152.376 22.8608C152.746 23.2248 153.189 23.2976 153.853 23.2976C154.444 23.2976 155.034 23.152 155.551 22.788C156.068 22.4239 156.437 21.9871 156.732 21.4047C156.954 20.895 157.027 19.8029 157.027 18.1284V13.9057C157.027 13.2505 157.175 12.668 157.544 12.3768C157.84 12.0128 158.283 11.8672 158.799 11.8672C159.316 11.8672 159.759 12.0128 160.054 12.3768C160.35 12.7408 160.571 13.2505 160.571 13.9785V24.0984C160.571 24.7537 160.423 25.2633 160.128 25.6274C159.833 25.9914 159.39 26.137 158.947 26.137C158.504 26.137 158.061 25.9914 157.766 25.6274C157.249 25.1905 157.101 24.7537 157.101 24.0984Z" fill="black"/>
<path d="M173.638 24.0985V23.7345C173.195 24.2441 172.678 24.6809 172.235 25.045C171.792 25.409 171.276 25.6274 170.759 25.8458C170.242 26.0642 169.651 26.137 168.987 26.137C168.175 26.137 167.363 25.9914 166.625 25.6274C165.886 25.2634 165.296 24.7537 164.779 24.0985C164.262 23.4432 163.819 22.6424 163.598 21.7687C163.302 20.8951 163.155 19.9486 163.155 18.8565C163.155 16.6724 163.672 14.9978 164.779 13.7602C165.886 12.5225 167.289 11.94 169.061 11.94C170.094 11.94 170.906 12.0856 171.645 12.4497C172.309 12.8137 173.047 13.3233 173.712 14.0514V8.88221C173.712 8.15416 173.859 7.64453 174.155 7.2805C174.45 6.91647 174.893 6.69806 175.41 6.69806C175.927 6.69806 176.37 6.84367 176.665 7.2077C176.96 7.57172 177.108 8.00855 177.108 8.6638V24.0985C177.108 24.7537 176.96 25.2634 176.665 25.6274C176.37 25.9914 175.927 26.137 175.484 26.137C174.967 26.137 174.598 25.9914 174.302 25.6274C173.786 25.1906 173.638 24.6809 173.638 24.0985ZM166.698 18.9293C166.698 19.8758 166.846 20.6766 167.141 21.3319C167.437 21.9871 167.88 22.4968 168.396 22.8608C168.913 23.2248 169.504 23.3704 170.094 23.3704C170.685 23.3704 171.276 23.2248 171.792 22.8608C172.309 22.5696 172.752 22.0599 173.047 21.4047C173.343 20.7495 173.49 19.9486 173.49 18.9293C173.49 17.9829 173.343 17.182 173.047 16.5268C172.752 15.8715 172.309 15.3619 171.792 14.9978C171.276 14.6338 170.685 14.4882 170.094 14.4882C169.43 14.4882 168.839 14.6338 168.323 14.9978C167.806 15.3619 167.437 15.8715 167.141 16.5268C166.846 17.2548 166.698 18.0557 166.698 18.9293Z" fill="black"/>
<path d="M190.249 24.0985V23.7345C189.806 24.2441 189.289 24.6809 188.846 25.045C188.403 25.409 187.886 25.6274 187.37 25.8458C186.853 26.0642 186.262 26.137 185.598 26.137C184.786 26.137 183.974 25.9914 183.235 25.6274C182.497 25.2634 181.907 24.7537 181.39 24.0985C180.873 23.4432 180.43 22.6424 180.209 21.7687C179.913 20.8951 179.766 19.9486 179.766 18.8565C179.766 16.6724 180.282 14.9978 181.39 13.7602C182.497 12.5225 183.9 11.94 185.672 11.94C186.705 11.94 187.517 12.0856 188.256 12.4497C188.92 12.8137 189.658 13.3233 190.323 14.0514V8.88221C190.323 8.15416 190.47 7.64453 190.766 7.2805C191.061 6.91647 191.504 6.69806 192.021 6.69806C192.537 6.69806 192.98 6.84367 193.276 7.2077C193.571 7.57172 193.719 8.00855 193.719 8.6638V24.0985C193.719 24.7537 193.571 25.2634 193.276 25.6274C192.98 25.9914 192.537 26.137 192.094 26.137C191.578 26.137 191.209 25.9914 190.913 25.6274C190.47 25.1906 190.249 24.6809 190.249 24.0985ZM183.309 18.9293C183.309 19.8758 183.457 20.6766 183.752 21.3319C184.048 21.9871 184.49 22.4968 185.007 22.8608C185.524 23.2248 186.115 23.3704 186.705 23.3704C187.296 23.3704 187.886 23.2248 188.403 22.8608C188.92 22.5696 189.363 22.0599 189.658 21.4047C189.954 20.7495 190.101 19.9486 190.101 18.9293C190.101 17.9829 189.954 17.182 189.658 16.5268C189.363 15.8715 188.92 15.3619 188.403 14.9978C187.886 14.6338 187.296 14.4882 186.705 14.4882C186.041 14.4882 185.45 14.6338 184.933 14.9978C184.417 15.3619 184.048 15.8715 183.752 16.5268C183.457 17.2548 183.309 18.0557 183.309 18.9293Z" fill="black"/>
<path d="M200.437 26.501L200.732 25.7002L196.376 14.8522C196.081 14.197 196.007 13.7601 196.007 13.4689C196.007 13.1777 196.081 12.8865 196.229 12.668C196.376 12.3768 196.598 12.2312 196.893 12.0856C197.189 11.94 197.484 11.8672 197.779 11.8672C198.296 11.8672 198.665 12.0128 198.96 12.3768C199.256 12.668 199.477 13.1777 199.625 13.7601L202.652 22.3511L205.531 14.3426C205.752 13.6873 205.974 13.1777 206.121 12.8137C206.269 12.4496 206.491 12.2312 206.712 12.0856C206.933 11.94 207.229 11.8672 207.598 11.8672C207.893 11.8672 208.115 11.94 208.336 12.0856C208.558 12.2312 208.779 12.4496 208.927 12.668C209.074 12.8865 209.148 13.1777 209.148 13.3961C209.148 13.5417 209.074 13.7601 209.001 14.0513C208.927 14.3426 208.853 14.6338 208.705 14.925L203.98 26.9379C203.611 27.9571 203.168 28.8308 202.799 29.4132C202.43 29.9957 201.913 30.5053 201.323 30.7965C200.658 31.0877 199.846 31.3062 198.813 31.3062C197.779 31.3062 196.967 31.1606 196.45 30.9421C195.933 30.7237 195.638 30.2869 195.638 29.7044C195.638 29.2676 195.786 28.9764 196.007 28.758C196.229 28.5396 196.598 28.4668 197.115 28.4668C197.336 28.4668 197.484 28.4668 197.705 28.5396C197.927 28.6124 198.148 28.6124 198.296 28.6124C198.739 28.6124 199.034 28.5396 199.256 28.4668C199.477 28.394 199.699 28.1755 199.92 27.8115C200.142 27.4475 200.215 27.0835 200.437 26.501Z" fill="black"/>
</g>
<defs>
<clipPath id="clip0">
<rect width="209" height="34" fill="white"/>
</clipPath>
</defs>
</svg>
