<svg width="30" height="30" viewBox="0 0 30 30" fill="none" xmlns="http://www.w3.org/2000/svg">
<path opacity="0.2" d="M15 30C23.2843 30 30 23.2843 30 15C30 6.71573 23.2843 0 15 0C6.71573 0 0 6.71573 0 15C0 23.2843 6.71573 30 15 30Z" fill="#98C03C"/>
<g clip-path="url(#clip0)">
<path d="M17.6923 14.0439C16.7231 14.0439 15.7538 14.3798 15 15.0514C13.1692 13.4842 10.4231 13.8201 8.96922 15.723C7.51537 17.626 7.73076 20.4805 9.61538 22.0477C11.1769 23.335 13.4385 23.335 15 22.0477C16.8308 23.6148 19.5769 23.279 21.0308 21.376C22.4846 19.4731 22.2154 16.6186 20.3846 15.1074C19.6308 14.3798 18.6615 14.0439 17.6923 14.0439ZM15 20.3686C14.3 19.2492 14.3 17.7939 15 16.6745C15.7 17.7939 15.7 19.2492 15 20.3686ZM9.07691 18.5216C9.07691 16.6745 10.5308 15.1633 12.3077 15.1633C13.0077 15.1633 13.7077 15.3872 14.2461 15.835C13.1154 17.4022 13.1154 19.585 14.2461 21.2081C12.7923 22.3275 10.8 22.0477 9.72307 20.5365C9.2923 19.9768 9.07691 19.2492 9.07691 18.5216ZM17.6923 21.8798C16.9923 21.8798 16.2923 21.6559 15.7538 21.2081C16.8846 19.641 16.8846 17.4581 15.7538 15.835C17.1538 14.7156 19.2 14.9954 20.2769 16.5066C21.3538 18.0178 21.0846 20.0887 19.6308 21.2081C19.0923 21.6559 18.3923 21.8798 17.6923 21.8798Z" fill="#99BF18"/>
<path d="M14.6231 13.9324C14.8385 14.1563 15.1616 14.1563 15.377 13.9324L17.5308 11.6936C18.3385 10.854 18.3924 9.51074 17.5847 8.67119C16.8847 7.94358 15.8077 7.83164 15 8.33537C14.0308 7.7197 12.7385 7.99955 12.1462 9.00701C11.6077 9.84657 11.7693 10.966 12.4693 11.6936L14.6231 13.9324Z" fill="#99BF18"/>
</g>
<defs>
<clipPath id="clip0">
<rect x="8" y="8" width="14" height="15" fill="white"/>
</clipPath>
</defs>
</svg>
