<svg width="25" height="25" viewBox="0 0 25 25" fill="none" xmlns="http://www.w3.org/2000/svg">
<rect x="0.318848" y="0.606934" width="24" height="24" rx="2" fill="#8CB13D"/>
<path fill-rule="evenodd" clip-rule="evenodd" d="M14.4754 5.98348C15.1392 5.79382 15.8311 6.17819 16.0208 6.84198C16.0527 6.95366 16.0688 7.06923 16.0688 7.18538V8.23179H17.3188C18.0092 8.23179 18.5688 8.79144 18.5688 9.48179V16.9818C18.5688 17.6721 18.0092 18.2318 17.3188 18.2318H7.31885C6.62849 18.2318 6.06885 17.6721 6.06885 16.9818H6.08554C6.07444 16.9146 6.06885 16.8465 6.06885 16.7782V9.32824C6.06885 8.77014 6.43882 8.27965 6.97545 8.12633L14.4754 5.98348ZM11.1564 16.9818H17.3188V11.9818H16.0688V14.6354C16.0688 15.1935 15.6989 15.6839 15.1622 15.8373L11.1564 16.9818ZM16.0688 9.48179H17.3188V10.7318H16.0688V9.48179ZM7.31885 9.32822V16.7782L14.8188 14.6353V7.18536L7.31885 9.32822ZM13.5688 10.7318C13.5688 11.077 13.289 11.3568 12.9438 11.3568C12.5987 11.3568 12.3188 11.077 12.3188 10.7318C12.3188 10.3866 12.5987 10.1068 12.9438 10.1068C13.289 10.1068 13.5688 10.3866 13.5688 10.7318Z" fill="white"/>
</svg>
