<svg width="30" height="30" viewBox="0 0 30 30" fill="none" xmlns="http://www.w3.org/2000/svg">
<circle cx="15" cy="15" r="15" fill="#99BF18"/>
<path d="M12.0338 19.7299C11.6053 19.2986 11.6053 18.6066 12.0338 18.1753L21.113 9.03854C21.5415 8.60727 22.2292 8.60727 22.6577 9.03854C23.0863 9.4698 23.0863 10.1618 22.6577 10.5931L13.5786 19.7299C13.15 20.1611 12.4624 20.1611 12.0338 19.7299Z" fill="white"/>
<path d="M13.5579 19.7198C13.1294 20.151 12.4417 20.151 12.0132 19.7198L8.30578 15.9989C7.87724 15.5676 7.87724 14.8756 8.30578 14.4443C8.73433 14.013 9.42199 14.013 9.85054 14.4443L13.5579 18.1752C13.9865 18.5965 13.9865 19.2885 13.5579 19.7198Z" fill="white"/>
</svg>
