<svg width="19" height="19" viewBox="0 0 19 19" fill="none" xmlns="http://www.w3.org/2000/svg">
<path d="M9.4817 6.77996C6.60424 6.77996 3.72678 6.77996 0.842004 6.77996C0.241619 6.77996 0 6.53834 0 5.93796C0 4.67129 0 3.3973 0 2.13064C0 0.878613 0.878613 0 2.12331 0C7.03622 0 11.9565 0 16.8694 0C17.9017 0 18.6705 0.585742 18.9268 1.5815C18.9707 1.7499 18.9854 1.93295 18.9854 2.10867C18.9927 3.40462 18.9854 4.69326 18.9927 5.98921C18.9927 6.43584 18.7364 6.7946 18.1873 6.78728C15.2879 6.77264 12.3884 6.77996 9.4817 6.77996Z" fill="white"/>
<path d="M13.5673 8.13452C15.0975 8.13452 16.6278 8.13452 18.158 8.13452C18.7364 8.13452 18.9927 8.39811 18.9927 8.97653C18.9927 11.6124 18.9927 14.2482 18.9927 16.884C18.9927 17.9091 18.3923 18.6852 17.4039 18.9415C17.2355 18.9854 17.0524 19 16.8767 19C14.2262 19 11.5831 19 8.93259 19C8.40542 19 8.1272 18.7291 8.1272 18.202C8.1272 15.1122 8.1272 12.0297 8.1272 8.93992C8.1272 8.41275 8.3981 8.13452 8.92527 8.13452C10.4775 8.13452 12.0224 8.13452 13.5673 8.13452Z" fill="white"/>
<path d="M6.77996 13.56C6.77996 15.0975 6.76532 16.6351 6.78728 18.1727C6.7946 18.7438 6.42852 19 5.9526 19C4.68594 18.9927 3.41195 19 2.14528 18.9927C0.878613 18.9927 0 18.1214 0 16.8547C0 14.2189 0 11.5831 0 8.94724C0 8.3981 0.263584 8.1272 0.820039 8.1272C2.53333 8.1272 4.24663 8.13452 5.95992 8.1272C6.40655 8.1272 6.78728 8.36882 6.77996 8.94724C6.76532 10.4848 6.77996 12.0224 6.77996 13.56Z" fill="white"/>
</svg>
