<svg width="95" height="100" viewBox="0 0 95 100" fill="none" xmlns="http://www.w3.org/2000/svg">
<rect x="0.760742" y="0.0108643" width="93.8261" height="99.0027" fill="#DAFF8A"/>
<circle opacity="0.5" cx="47.6735" cy="49.5124" r="27.2209" fill="#8CB13D"/>
<g clip-path="url(#clip0)">
<path d="M51.6709 41.4039H51.7059C51.706 41.4039 51.6787 41.3354 51.6709 41.4039Z" fill="white"/>
<path d="M43.2061 41.4039H43.2411C43.2333 41.3354 43.2061 41.4039 43.2061 41.4039Z" fill="white"/>
<path d="M60.1249 43.5621C59.9282 43.2481 59.6211 43.0295 59.26 42.9465L57.3582 42.5095L58.2363 42.2637C58.9639 42.0601 59.4022 41.2831 59.1983 40.5541C58.9946 39.8266 58.2176 39.3884 57.4886 39.5922L53.3943 40.7381C53.2877 40.5442 53.1361 40.3782 52.9536 40.2547C53.7845 38.7083 54.9816 36.0842 54.9816 34.9553C54.9816 34.6799 54.7213 34.4669 54.4513 34.5213C52.8264 34.8496 51.3115 35.001 49.8217 34.9848C48.2904 34.968 46.3847 34.7778 45.1872 34.5223C44.817 34.4433 44.52 34.8576 44.7152 35.183C45.007 35.6694 45.1858 36.1836 45.284 36.7018C43.7812 36.7479 42.2226 36.5658 41.043 35.9759C40.7253 35.817 40.3502 36.095 40.4083 36.4447C40.7793 38.6705 41.5278 39.9755 42.2782 40.9614H42.2616C41.4968 40.9614 40.8745 41.5837 40.8745 42.3485C40.8745 43.0519 41.401 43.6343 42.0804 43.7234C41.5851 44.553 40.8778 45.3401 40.1346 46.166C38.5541 47.9224 36.7627 49.9132 36.16 53.1276C35.8716 54.6657 35.8812 56.1048 36.1887 57.4051C36.4757 58.619 37.0223 59.7179 37.8133 60.6709C38.8632 61.9361 40.3057 62.9177 42.1007 63.5887C43.7176 64.1931 45.5693 64.5126 47.4558 64.5126C49.3423 64.5126 51.1941 64.1931 52.8109 63.5887C54.6059 62.9177 56.0484 61.936 57.0984 60.6709C57.8893 59.7179 58.436 58.6191 58.7229 57.4051C59.0303 56.1048 59.04 54.6656 58.7516 53.1276C58.1489 49.9133 56.3576 47.9225 54.7771 46.1661C54.2406 45.5698 53.7301 45.0012 53.3021 44.4242L58.6388 45.6504C59.2042 45.7803 59.8066 45.5329 60.1189 45.0444C60.4048 44.5971 60.4065 44.0114 60.1249 43.5621ZM49.812 35.8701C51.1751 35.885 52.5546 35.7658 54.0118 35.5061C53.7446 36.5985 52.8866 38.5413 52.0728 40.0214C51.5088 40.0638 51.0381 40.4448 50.8636 40.9614H49.6345C49.6067 40.9016 49.576 40.836 49.5417 40.7632C49.1617 39.9553 48.3708 38.2742 48.3708 36.844C48.3708 36.5691 48.1111 36.356 47.8412 36.41C47.3261 36.513 46.7593 36.5964 46.1696 36.6487C46.1077 36.2793 46.0118 35.9094 45.8724 35.5455C47.0618 35.7296 48.5601 35.8563 49.812 35.8701ZM52.6796 41.404V43.2928C52.6796 43.5694 52.4545 43.7946 52.1778 43.7946C51.9012 43.7946 51.6761 43.5695 51.6761 43.2928V41.404C51.6761 41.1273 51.9012 40.9023 52.1778 40.9023C52.4545 40.9023 52.6796 41.1274 52.6796 41.404ZM41.4403 37.0969C42.547 37.4746 43.9084 37.6422 45.3787 37.5905L46.2561 37.535C46.67 37.4971 47.0898 37.4424 47.5128 37.3709C47.6509 38.7404 48.2765 40.1477 48.6567 40.9614H45.709H44.7777H43.408C43.3981 40.9458 43.3875 40.9306 43.3755 40.9161C42.635 40.0253 41.8837 38.9949 41.4403 37.0969ZM54.1189 46.7582C55.6216 48.428 57.3245 50.3206 57.8815 53.2906C58.394 56.0242 57.9013 58.3169 56.417 60.1053C54.5869 62.3105 51.2369 63.6271 47.4559 63.6271C43.6748 63.6271 40.3248 62.3105 38.4946 60.1053C37.0104 58.317 36.5177 56.0242 37.0302 53.2907C37.5871 50.3206 39.2902 48.4279 40.7928 46.7582C41.6912 45.7597 42.54 44.8153 43.0839 43.7356H44.1651C44.4097 43.7356 44.6078 43.5373 44.6078 43.2929C44.6078 43.0484 44.4096 42.8502 44.1651 42.8502H42.2615C41.9848 42.8502 41.7598 42.6251 41.7598 42.3485C41.7598 42.0718 41.9848 41.8467 42.2615 41.8467H50.7907V42.8502H46.2752C46.0306 42.8502 45.8325 43.0484 45.8325 43.2928C45.8325 43.5373 46.0307 43.7355 46.2752 43.7355H50.8635C51.0487 44.2838 51.5677 44.6799 52.1778 44.6799C52.2483 44.6799 52.3174 44.6745 52.3851 44.6644C52.8792 45.3791 53.4814 46.0498 54.1189 46.7582ZM53.565 41.6098L57.7272 40.4449C57.9908 40.371 58.272 40.5298 58.3456 40.7928C58.4193 41.0564 58.2608 41.3375 57.9977 41.4111L55.619 42.0769C55.5996 42.0823 55.5811 42.0894 55.5631 42.0972L53.565 41.6381V41.6098ZM59.4384 44.4107C59.3764 44.6803 59.1071 44.8494 58.837 44.7873L53.5372 43.5696C53.5553 43.4802 53.5649 43.3876 53.5649 43.2928V42.5464L59.0617 43.8093C59.3281 43.8706 59.4996 44.144 59.4384 44.4107Z" fill="white"/>
<path d="M50.2888 52.7074C50.9234 52.7074 51.4398 52.191 51.4398 51.5564V50.8481C51.4398 49.1917 50.2044 47.8187 48.6066 47.602V46.8343C48.6066 46.1997 48.0903 45.6833 47.4556 45.6833C46.8209 45.6833 46.3046 46.1996 46.3046 46.8343V47.6606C44.6641 48.0265 43.4713 49.4848 43.4713 51.2022C43.4713 53.2038 45.0997 54.8323 47.1014 54.8323H47.8096C48.5419 54.8323 49.1377 55.428 49.1377 56.1604C49.1377 56.8927 48.542 57.4885 47.8096 57.4885H46.7472C46.2101 57.4885 45.7732 57.0515 45.7732 56.5145C45.7732 55.8799 45.2569 55.3635 44.6222 55.3635C43.9876 55.3635 43.4712 55.8798 43.4712 56.5145C43.4712 58.1708 44.7066 59.5439 46.3044 59.7606V60.5283C46.3044 61.1629 46.8208 61.6793 47.4555 61.6793C48.0901 61.6793 48.6065 61.1629 48.6065 60.5283V59.702C50.2469 59.3361 51.4397 57.8778 51.4397 56.1604C51.4397 54.1587 49.8113 52.5303 47.8096 52.5303H47.1014C46.3691 52.5303 45.7733 51.9346 45.7733 51.2022C45.7733 50.4699 46.3691 49.8741 47.1014 49.8741H48.1638C48.7009 49.8741 49.1378 50.3111 49.1378 50.8481V51.5564C49.1378 52.191 49.6542 52.7074 50.2888 52.7074ZM48.1639 48.9888H47.1014C45.8809 48.9888 44.888 49.9817 44.888 51.2022C44.888 52.4227 45.8809 53.4157 47.1014 53.4157H47.8097C49.3232 53.4157 50.5544 54.647 50.5544 56.1604C50.5544 57.5607 49.5056 58.7331 48.115 58.8876C47.8909 58.9125 47.7212 59.102 47.7212 59.3276V60.5283C47.7212 60.6747 47.6021 60.7939 47.4556 60.7939C47.3092 60.7939 47.19 60.6747 47.19 60.5283V59.3478C47.19 59.1033 46.9919 58.9051 46.7473 58.9051C45.4292 58.9051 44.3568 57.8327 44.3568 56.5146C44.3568 56.3681 44.476 56.249 44.6224 56.249C44.7689 56.249 44.888 56.3681 44.888 56.5146C44.888 57.5398 45.7221 58.3739 46.7473 58.3739H47.8098C49.0303 58.3739 50.0233 57.3809 50.0233 56.1604C50.0233 54.9399 49.0303 53.947 47.8098 53.947H47.1015C45.5881 53.947 44.3568 52.7157 44.3568 51.2023C44.3568 49.8019 45.4056 48.6295 46.7962 48.475C47.0204 48.4501 47.19 48.2606 47.19 48.035V46.8344C47.19 46.688 47.3092 46.5688 47.4556 46.5688C47.6021 46.5688 47.7212 46.688 47.7212 46.8344V48.0149C47.7212 48.2594 47.9194 48.4576 48.1639 48.4576C49.4821 48.4576 50.5544 49.5299 50.5544 50.8481V51.5564C50.5544 51.7028 50.4352 51.822 50.2888 51.822C50.1424 51.822 50.0232 51.7028 50.0232 51.5564V50.8481C50.0232 49.8229 49.1891 48.9888 48.1639 48.9888Z" fill="white"/>
</g>
<defs>
<clipPath id="clip0">
<rect width="30" height="30" fill="white" transform="translate(33.1426 34.5124)"/>
</clipPath>
</defs>
</svg>
