<svg width="34" height="30" viewBox="0 0 34 30" fill="none" xmlns="http://www.w3.org/2000/svg">
<path opacity="0.2" d="M17.0639 30C26.2883 30 33.7661 23.2843 33.7661 15C33.7661 6.71573 26.2883 0 17.0639 0C7.83961 0 0.361816 6.71573 0.361816 15C0.361816 23.2843 7.83961 30 17.0639 30Z" fill="#98C03C"/>
<g clip-path="url(#clip0)">
<path d="M16.8352 16.2842H13.3811C13.1406 16.2842 12.9438 16.4706 12.9438 16.6984C12.9438 16.9262 13.1406 17.1126 13.3811 17.1126H16.8352C17.0757 17.1126 17.2724 16.9262 17.2724 16.6984C17.2724 16.4499 17.0757 16.2842 16.8352 16.2842Z" fill="#99BF18"/>
<path d="M24.8581 11.9556C24.8581 9.78107 22.9781 8 20.6607 8C18.4965 8 16.7257 9.55325 16.5071 11.5414H11.4571C11.2166 11.5414 11.0199 11.7278 11.0199 11.9556V18.3136H8.59323C8.35276 18.3136 8.15601 18.5 8.15601 18.7278V20.2189C8.15601 21.1923 9.0086 22 10.0361 22H19.2397C20.2672 22 21.1198 21.1923 21.1198 20.2189V15.9112C23.2185 15.7041 24.8581 14.0059 24.8581 11.9556ZM10.0361 21.1716C9.48955 21.1716 9.03046 20.7367 9.03046 20.2189V19.142H17.3597V20.2189C17.3597 20.571 17.469 20.9024 17.6439 21.1716H10.0361ZM19.2397 21.1716C18.6932 21.1716 18.2341 20.7367 18.2341 20.2189V18.7278C18.2341 18.5 18.0374 18.3136 17.7969 18.3136H11.8943V12.3698H16.5071C16.5508 12.7426 16.6601 13.1154 16.7913 13.4467H13.3809C13.1404 13.4467 12.9437 13.6331 12.9437 13.8609C12.9437 14.0888 13.1404 14.2751 13.3809 14.2751H17.2941C17.4471 14.4822 17.6439 14.6686 17.8406 14.855H13.3809C13.1404 14.855 12.9437 15.0414 12.9437 15.2692C12.9437 15.497 13.1404 15.6834 13.3809 15.6834H19.2835C19.5895 15.787 19.8956 15.8491 20.2454 15.8905V20.2189C20.2235 20.7367 19.7863 21.1716 19.2397 21.1716ZM20.6826 15.1036C20.6607 15.1036 20.6607 15.1036 20.6826 15.1036C18.8462 15.1036 17.3815 13.6953 17.3815 11.9763C17.3597 10.2367 18.8462 8.8284 20.6607 8.8284C22.4752 8.8284 23.9618 10.2367 23.9618 11.9556C23.9837 13.6953 22.4971 15.1036 20.6826 15.1036Z" fill="#99BF18"/>
<path d="M20.639 11.5204C20.5515 11.4997 20.4641 11.479 20.3985 11.4583C20.2236 11.4168 20.1362 11.3133 20.1143 11.2097C20.1143 11.1683 20.1143 11.0648 20.2673 11.0026C20.8357 10.7955 21.2948 11.1683 21.3385 11.189C21.5134 11.334 21.7976 11.3133 21.9507 11.1476C22.1037 10.9819 22.1037 10.7127 21.9069 10.5677C21.8851 10.547 21.579 10.2985 21.0981 10.1742V9.94643C21.0981 9.71862 20.9013 9.53223 20.6608 9.53223C20.4204 9.53223 20.2236 9.71862 20.2236 9.94643V10.1535C20.1362 10.1742 20.0487 10.1949 19.9613 10.2157C19.524 10.3813 19.218 10.7748 19.2398 11.2305C19.2617 11.7068 19.6115 12.1003 20.158 12.2452C20.2455 12.266 20.3329 12.2867 20.4204 12.3074C20.7483 12.3902 21.1855 12.4938 21.1855 12.6387C21.1855 12.7423 21.1637 12.8044 21.1199 12.8251C21.0325 12.908 20.8795 12.9494 20.7046 12.9701C20.3766 12.9701 19.9394 12.8044 19.7645 12.618C19.5896 12.4523 19.3054 12.4731 19.1524 12.618C18.9775 12.7837 18.9994 13.0529 19.1524 13.1979C19.4147 13.4257 19.8082 13.6121 20.2018 13.7157V13.9435C20.2018 14.1713 20.3985 14.3577 20.639 14.3577C20.8795 14.3577 21.0762 14.1713 21.0762 13.9435V13.7364C21.3604 13.6742 21.6009 13.55 21.7758 13.3636C21.9725 13.1565 22.0818 12.8873 22.06 12.5766C22.0381 11.831 21.2074 11.6447 20.639 11.5204Z" fill="#99BF18"/>
</g>
<defs>
<clipPath id="clip0">
<rect x="8.15601" y="8" width="16.7021" height="14" fill="white"/>
</clipPath>
</defs>
</svg>
