<svg width="55" height="55" viewBox="0 0 55 55" fill="none" xmlns="http://www.w3.org/2000/svg">
<circle opacity="0.5" cx="27.674" cy="27.5097" r="27.2209" fill="#40B4DA"/>
<g clip-path="url(#clip0)">
<path d="M23.4551 19.0454C23.1959 19.0454 22.9863 19.2549 22.9863 19.5142V27.5095C22.9863 27.7688 23.1959 27.9783 23.4551 27.9783C23.7143 27.9783 23.9238 27.7688 23.9238 27.5095V19.5142C23.9238 19.2549 23.7143 19.0454 23.4551 19.0454Z" fill="white"/>
<path d="M36.5801 19.0173C36.3209 19.0173 36.1113 19.2268 36.1113 19.486V27.5095C36.1113 27.7687 36.3209 27.9783 36.5801 27.9783C36.8393 27.9783 37.0488 27.7687 37.0488 27.5095V19.486C37.0488 19.2268 36.8393 19.0173 36.5801 19.0173Z" fill="white"/>
<path d="M30.4004 12.7076C30.2504 12.4966 29.9589 12.4465 29.7465 12.5951L21.7778 18.22C21.5664 18.37 21.5163 18.662 21.6653 18.8739C21.7567 19.0033 21.9016 19.0722 22.0488 19.0722C22.1421 19.0722 22.2363 19.0441 22.3192 18.9864L30.2879 13.3615C30.4993 13.2115 30.5495 12.9194 30.4004 12.7076Z" fill="white"/>
<path d="M38.2574 18.22L30.2887 12.595C30.0759 12.4459 29.7843 12.4966 29.6348 12.7075C29.4853 12.9198 29.5359 13.2119 29.7473 13.3614L37.716 18.9864C37.7985 19.044 37.8927 19.0721 37.986 19.0721C38.1331 19.0721 38.278 19.0032 38.3699 18.8739C38.5194 18.6615 38.4688 18.3695 38.2574 18.22Z" fill="white"/>
<path d="M30.4004 14.5826C30.2504 14.3721 29.9589 14.3215 29.7465 14.4701L21.7778 20.095C21.5664 20.245 21.5163 20.537 21.6653 20.7489C21.7567 20.8783 21.9016 20.9472 22.0488 20.9472C22.1421 20.9472 22.2363 20.9191 22.3192 20.8614L30.2879 15.2365C30.4993 15.0865 30.5495 14.7944 30.4004 14.5826Z" fill="white"/>
<path d="M38.2574 20.095L30.2887 14.47C30.0759 14.3209 29.7843 14.372 29.6348 14.5825C29.4853 14.7948 29.5359 15.0869 29.7473 15.2364L37.716 20.8614C37.7985 20.919 37.8927 20.9471 37.986 20.9471C38.1331 20.9471 38.278 20.8782 38.3699 20.7489C38.5194 20.5365 38.4688 20.2445 38.2574 20.095Z" fill="white"/>
<path d="M22.0488 18.1348C21.7896 18.1348 21.5801 18.3443 21.5801 18.6036V20.4785C21.5801 20.7378 21.7896 20.9473 22.0488 20.9473C22.308 20.9473 22.5176 20.7378 22.5176 20.4785V18.6036C22.5176 18.3443 22.308 18.1348 22.0488 18.1348Z" fill="white"/>
<path d="M37.9863 18.1348C37.7271 18.1348 37.5176 18.3443 37.5176 18.6036V20.4785C37.5176 20.7378 37.7271 20.9473 37.9863 20.9473C38.2455 20.9473 38.4551 20.7378 38.4551 20.4785V18.6036C38.4551 18.3443 38.2455 18.1348 37.9863 18.1348Z" fill="white"/>
<path d="M31.8925 20.9473H28.1426C27.8834 20.9473 27.6738 21.1568 27.6738 21.416V27.5097C27.6738 27.7689 27.8834 27.9785 28.1426 27.9785H31.8925C32.1518 27.9785 32.3613 27.7689 32.3613 27.5097V21.416C32.3613 21.1568 32.1518 20.9473 31.8925 20.9473ZM31.4238 27.041H28.6113V21.8848H31.4238V27.041Z" fill="white"/>
<path d="M36.58 27.041H23.4551C23.1959 27.041 22.9863 27.2505 22.9863 27.5097C22.9863 27.7689 23.1959 27.9785 23.4551 27.9785H36.58C36.8392 27.9785 37.0487 27.7689 37.0487 27.5097C37.0487 27.2505 36.8392 27.041 36.58 27.041Z" fill="white"/>
<path d="M15.5004 39.6971H15.4952C15.2365 39.6971 15.0293 39.9066 15.0293 40.1658C15.0293 40.425 15.2412 40.6346 15.5004 40.6346C15.7591 40.6346 15.9691 40.425 15.9691 40.1658C15.9691 39.9066 15.7591 39.6971 15.5004 39.6971Z" fill="white"/>
<path d="M40.3301 31.2597C40.0709 31.2597 39.8613 31.4692 39.8613 31.7284C39.8613 31.9876 40.0709 32.1972 40.3301 32.1972C41.1054 32.1972 41.7363 32.8281 41.7363 33.6034C41.7363 34.1045 41.4673 34.5714 41.0332 34.8221C40.8096 34.9515 40.7327 35.2379 40.8626 35.4624C40.9488 35.6124 41.1063 35.6964 41.2685 35.6964C41.3482 35.6964 41.4288 35.6762 41.5029 35.6331C42.2252 35.2154 42.6738 34.4373 42.6738 33.6034C42.6738 32.3111 41.6224 31.2597 40.3301 31.2597Z" fill="white"/>
<path d="M41.6802 35.0052C41.5574 34.7769 41.2724 34.6916 41.0455 34.8144L28.3894 41.6281C28.1616 41.7504 28.0758 42.035 28.1986 42.2628C28.2835 42.4203 28.4452 42.5093 28.6121 42.5093C28.6871 42.5093 28.763 42.4915 28.8333 42.4536L41.4894 35.6399C41.7173 35.5175 41.803 35.233 41.6802 35.0052Z" fill="white"/>
<path d="M28.6721 41.5762L17.891 40.17C17.6327 40.1334 17.3992 40.3172 17.366 40.574C17.3317 40.8305 17.5131 41.0658 17.77 41.099L28.5512 42.5053C28.5718 42.5081 28.5919 42.5095 28.6121 42.5095C28.8441 42.5095 29.0457 42.3375 29.0761 42.1012C29.1104 41.8448 28.929 41.6095 28.6721 41.5762Z" fill="white"/>
<path d="M17.8305 28.4472H13.1431C12.8838 28.4472 12.6743 28.6567 12.6743 28.916V41.5721C12.6743 41.8313 12.8838 42.0408 13.1431 42.0408H17.8305C18.0897 42.0408 18.2993 41.8313 18.2993 41.5721V28.916C18.2993 28.6567 18.0897 28.4472 17.8305 28.4472ZM17.3618 41.1033H13.6118V29.3847H17.3618V41.1033Z" fill="white"/>
<path d="M40.4737 31.6857C40.4352 31.4297 40.1953 31.2539 39.9398 31.2929L30.885 32.671C30.6291 32.7099 30.4533 32.9489 30.4922 33.2049C30.5274 33.4374 30.7271 33.6033 30.9549 33.6033C30.9783 33.6033 31.0022 33.6014 31.0261 33.5977L40.0809 32.2196C40.3368 32.1807 40.5126 31.9416 40.4737 31.6857Z" fill="white"/>
<path d="M29.4818 30.8261C29.2282 30.7834 28.9844 30.9531 28.9404 31.2081C28.8963 31.4631 29.0674 31.7054 29.3224 31.7495C29.9969 31.8657 30.4863 32.4484 30.4863 33.1346C30.4863 33.9099 29.8554 34.5408 29.0801 34.5408C28.8209 34.5408 28.6113 34.7504 28.6113 35.0096C28.6113 35.2688 28.8209 35.4783 29.0801 35.4783C30.3724 35.4783 31.4238 34.4269 31.4238 33.1346C31.4238 31.9909 30.6072 31.0192 29.4818 30.8261Z" fill="white"/>
<path d="M29.4919 30.8275L22.1382 29.3931C21.8837 29.3425 21.6381 29.5093 21.5884 29.7634C21.5387 30.0175 21.7046 30.264 21.9587 30.3132L29.3124 31.7476C29.3424 31.7537 29.3728 31.7565 29.4024 31.7565C29.6222 31.7565 29.8186 31.6014 29.8622 31.3773C29.9119 31.1232 29.746 30.8767 29.4919 30.8275Z" fill="white"/>
<path d="M22.0488 29.3847H17.8301C17.5709 29.3847 17.3613 29.5942 17.3613 29.8534C17.3613 30.1127 17.5709 30.3222 17.8301 30.3222H22.0488C22.308 30.3222 22.5175 30.1127 22.5175 29.8534C22.5175 29.5942 22.308 29.3847 22.0488 29.3847Z" fill="white"/>
<path d="M28.9193 34.5318L23.0229 34.0734C22.7647 34.0514 22.5397 34.2459 22.5195 34.5046C22.4994 34.7629 22.6925 34.9879 22.9508 35.0081L28.8471 35.4665C28.8593 35.4674 28.8715 35.4679 28.8837 35.4679C29.1265 35.4679 29.3313 35.2809 29.3505 35.0352C29.3707 34.777 29.1776 34.552 28.9193 34.5318Z" fill="white"/>
<path d="M40.3298 31.2597C40.1948 31.2597 40.0607 31.2709 39.9299 31.2939C39.6745 31.3375 39.5034 31.5798 39.5474 31.8348C39.5863 32.0631 39.7842 32.2244 40.0087 32.2244C40.0349 32.2244 40.0621 32.222 40.0884 32.2173C40.1666 32.2042 40.2473 32.1972 40.3298 32.1972C40.589 32.1972 40.7985 31.9876 40.7985 31.7284C40.7985 31.4692 40.589 31.2597 40.3298 31.2597Z" fill="white"/>
<path d="M29.08 34.5409C29.0308 34.5409 28.9816 34.5381 28.9333 34.5329C28.6746 34.5029 28.4453 34.6918 28.4177 34.9496C28.3905 35.2069 28.5766 35.4376 28.8344 35.4652C28.9146 35.4737 28.9966 35.4783 29.08 35.4783C29.3392 35.4783 29.5488 35.2688 29.5488 35.0096C29.5488 34.7504 29.3392 34.5409 29.08 34.5409Z" fill="white"/>
<path d="M29.0941 24.2285H29.089C28.8302 24.2285 28.623 24.438 28.623 24.6972C28.623 24.9565 28.8349 25.166 29.0941 25.166C29.3529 25.166 29.5629 24.9565 29.5629 24.6972C29.5629 24.438 29.3529 24.2285 29.0941 24.2285Z" fill="white"/>
</g>
<defs>
<clipPath id="clip0">
<rect width="30" height="30" fill="white" transform="translate(12.6738 12.5095)"/>
</clipPath>
</defs>
</svg>
