<svg width="42" height="42" viewBox="0 0 42 42" fill="none" xmlns="http://www.w3.org/2000/svg">
<circle cx="21" cy="21" r="21" fill="#E5EDD3"/>
<g clip-path="url(#clip0)">
<path d="M28.61 30H26.0792C25.3123 30 24.6892 29.3753 24.6892 28.6065V12.3935C24.6892 11.6247 25.3123 11 26.0792 11H28.61C29.3769 11 30 11.6247 30 12.3935V28.5969C30 29.3753 29.3769 30 28.61 30Z" fill="white"/>
<path d="M22.9252 19.3899V28.5968C22.9252 29.3657 22.3021 29.9904 21.5352 29.9904H19.1962C18.4293 29.9904 17.8062 29.3657 17.8062 28.5968V19.3899C17.8062 18.6211 18.4293 17.9964 19.1962 17.9964H21.5352C22.3021 17.9964 22.9252 18.6211 22.9252 19.3899Z" fill="white"/>
<path d="M14.662 30H12.39C11.6231 30 11 29.3753 11 28.6065V26.3288C11 25.5599 11.6231 24.9352 12.39 24.9352H14.662C15.4289 24.9352 16.052 25.5599 16.052 26.3288V28.6065C16.052 29.3753 15.4289 30 14.662 30Z" fill="white"/>
</g>
<defs>
<clipPath id="clip0">
<rect width="19" height="19" fill="white" transform="translate(11 11)"/>
</clipPath>
</defs>
</svg>
