<svg width="55" height="54" viewBox="0 0 55 54" fill="none" xmlns="http://www.w3.org/2000/svg">
<path d="M34.2344 30.2868C31.1667 33.5236 28.0991 36.6447 25.0314 39.8815C20.7839 44.2743 15.8285 47.9734 11.345 52.135C10.0471 53.2909 8.74926 53.4065 7.33342 52.3662C5.7996 51.2102 7.09745 50.0542 7.80537 49.1294C13.2328 41.8467 18.1882 34.2172 21.6098 25.5473C20.3119 27.2813 19.0141 29.1308 17.7162 30.8648C16.3004 32.7144 15.0026 34.6796 13.5867 36.5291C10.755 40.2283 7.80537 43.8119 5.09168 47.511C3.91181 49.1294 3.0859 48.5514 2.26 47.2798C0.608186 44.8522 0.136239 42.0779 0.136239 39.3035C0.0182526 31.2116 -0.099734 23.1197 0.136239 15.0278C0.372212 5.66433 6.27154 0 15.8285 0C23.8515 0 31.9926 0 40.0157 0C49.1007 0 55 5.77993 55 14.681C55 23.2353 55 31.7896 55 40.3439C55 48.2046 49.2187 53.7533 41.3136 53.8689C33.6444 53.8689 25.9753 53.8689 18.3062 53.8689C17.2443 53.8689 15.5925 54.4469 15.1205 53.1753C14.7666 52.135 16.4184 51.4414 17.2443 50.6322C23.6156 45.0834 29.1609 38.8411 34.3524 32.1364C34.5883 31.7896 34.8243 31.3272 35.0603 30.9804C34.8243 30.7492 34.5883 30.518 34.2344 30.2868ZM41.1956 9.59468C36.7121 15.6058 32.2286 21.8481 27.6271 27.7437C22.9077 33.6392 18.0702 39.3035 14.2946 45.8926C26.8012 36.1824 34.7063 23.3509 41.1956 9.59468Z" fill="#99BF18"/>
</svg>
