<svg width="55" height="56" viewBox="0 0 55 56" fill="none" xmlns="http://www.w3.org/2000/svg">
<circle opacity="0.5" cx="27.467" cy="27.9633" r="27.2209" fill="#ED8CCB"/>
<g clip-path="url(#clip0)">
<path d="M19.498 33.1196H18.5605V34.0571C17.7852 34.0571 17.1543 34.6881 17.1543 35.4634C17.1543 36.2387 17.7852 36.8696 18.5605 36.8696H19.498C19.7563 36.8696 19.9668 37.0801 19.9668 37.3384C19.9668 37.5967 19.7563 37.8071 19.498 37.8071H18.0918V37.3384H17.1543V38.7446H18.5605V39.6821H19.498V38.7446C20.2734 38.7446 20.9043 38.1137 20.9043 37.3384C20.9043 36.5631 20.2734 35.9321 19.498 35.9321H18.5605C18.3023 35.9321 18.0918 35.7217 18.0918 35.4634C18.0918 35.2051 18.3023 34.9946 18.5605 34.9946H19.9668V35.4634H20.9043V34.0571H19.498V33.1196Z" fill="white"/>
<path d="M37.7793 19.9946C39.0716 19.9946 40.123 18.9432 40.123 17.6509C40.123 16.3585 39.0716 15.3071 37.7793 15.3071C36.487 15.3071 35.4355 16.3585 35.4355 17.6509C35.4355 18.9432 36.487 19.9946 37.7793 19.9946ZM37.7793 16.2446C38.5546 16.2446 39.1855 16.8756 39.1855 17.6509C39.1855 18.4262 38.5546 19.0571 37.7793 19.0571C37.004 19.0571 36.373 18.4262 36.373 17.6509C36.373 16.8756 37.004 16.2446 37.7793 16.2446Z" fill="white"/>
<path d="M41.998 17.6509C41.998 15.3249 40.1052 13.4321 37.7793 13.4321C36.3201 13.4321 35.032 14.1774 34.274 15.3071H17.623V18.4407C17.196 18.2368 16.7207 18.1196 16.2168 18.1196H13.873V18.5884C13.873 20.3978 15.3449 21.8696 17.1543 21.8696H18.5605V24.2134V24.6821V26.8318L17.767 26.0382L15.1246 26.6987L16.6016 30.6371L14.9676 32.0668C13.6762 33.1965 12.9355 34.8287 12.9355 36.5443C12.9355 39.8256 15.6046 42.4946 18.8859 42.4946H19.1727C22.454 42.4946 25.123 39.8256 25.123 36.5443C25.123 35.6753 24.9318 34.8287 24.5765 34.0571H28.1802C27.4195 34.9703 26.998 36.1173 26.998 37.3384C26.998 40.1813 29.3113 42.4946 32.1543 42.4946C34.9973 42.4946 37.3105 40.1813 37.3105 37.3384C37.3105 36.1173 36.8891 34.9703 36.1284 34.0571H41.998V17.6509ZM37.7793 14.3696C39.5887 14.3696 41.0605 15.8415 41.0605 17.6509C41.0605 19.4603 39.5887 20.9321 37.7793 20.9321C35.9699 20.9321 34.498 19.4603 34.498 17.6509C34.498 15.8415 35.9699 14.3696 37.7793 14.3696ZM36.373 21.6235C36.8137 21.7801 37.2857 21.8696 37.7793 21.8696C38.2729 21.8696 38.7449 21.7801 39.1855 21.6235V24.3924L37.7793 23.6893L36.373 24.3924V21.6235ZM17.1543 20.9321C16.0223 20.9321 15.0754 20.1254 14.8579 19.0571H16.2168C17.3488 19.0571 18.2957 19.8638 18.5132 20.9321H17.1543ZM17.4791 27.076L19.0799 28.6768L20.6235 26.6185L21.7054 26.889L20.5663 30.3071H17.4791L16.3715 27.3531L17.4791 27.076ZM19.1727 41.5571H18.8859C16.1216 41.5571 13.873 39.3085 13.873 36.5443C13.873 35.0987 14.497 33.7238 15.5849 32.7718L17.3301 31.2446H20.728L22.4737 32.7718C23.5616 33.7238 24.1855 35.0987 24.1855 36.5443C24.1855 39.3085 21.937 41.5571 19.1727 41.5571ZM36.373 37.3384C36.373 39.6643 34.4802 41.5571 32.1543 41.5571C29.8284 41.5571 27.9355 39.6643 27.9355 37.3384C27.9355 36.0493 28.514 34.8643 29.5199 34.0571H31.6855V34.9946C30.9102 34.9946 30.2793 35.6256 30.2793 36.4009C30.2793 37.1762 30.9102 37.8071 31.6855 37.8071H32.623C32.8813 37.8071 33.0918 38.0176 33.0918 38.2759C33.0918 38.5342 32.8813 38.7446 32.623 38.7446H31.2168V38.2759H30.2793V39.6821H31.6855V40.6196H32.623V39.6821C33.3984 39.6821 34.0293 39.0512 34.0293 38.2759C34.0293 37.5006 33.3984 36.8696 32.623 36.8696H31.6855C31.4273 36.8696 31.2168 36.6592 31.2168 36.4009C31.2168 36.1426 31.4273 35.9321 31.6855 35.9321H33.0918V36.4009H34.0293V34.9946H32.623V34.0571H34.7887C35.7946 34.8643 36.373 36.0493 36.373 37.3384ZM24.0318 33.1196C23.7618 32.7367 23.4505 32.3809 23.0915 32.0663L21.4476 30.6282L22.9152 26.2248L20.2476 25.5578L19.498 26.5571V24.6821H20.9043C22.7137 24.6821 24.1855 23.2103 24.1855 21.4009V20.9321H21.8418C20.924 20.9321 20.0943 21.3118 19.498 21.9212V21.8696V21.4009C19.498 20.5093 19.1395 19.7007 18.5605 19.1087V16.2446H33.8066C33.6501 16.6853 33.5605 17.1573 33.5605 17.6509C33.5605 19.1101 34.3059 20.3982 35.4355 21.1562V25.9093L37.7793 24.7374L40.123 25.9093V21.1562C40.4774 20.9185 40.7929 20.6279 41.0605 20.2965V33.1196H24.0318ZM19.5454 23.7446C19.7629 22.6763 20.7102 21.8696 21.8418 21.8696H23.2007C22.9832 22.9379 22.0359 23.7446 20.9043 23.7446H19.5454Z" fill="white"/>
<path d="M32.623 17.1821H19.498V19.9946H32.623V17.1821ZM31.6855 19.0571H20.4355V18.1196H31.6855V19.0571Z" fill="white"/>
<path d="M25.123 20.9321H33.5605V21.8696H25.123V20.9321Z" fill="white"/>
<path d="M25.123 22.8071H33.5605V23.7446H25.123V22.8071Z" fill="white"/>
<path d="M25.123 24.6821H26.0605V25.6196H25.123V24.6821Z" fill="white"/>
<path d="M26.998 24.6821H33.5605V25.6196H26.998V24.6821Z" fill="white"/>
<path d="M36.373 32.1821H40.123V29.3696H36.373V32.1821ZM37.3105 30.3071H39.1855V31.2446H37.3105V30.3071Z" fill="white"/>
<path d="M31.6855 32.1821H35.4355V29.3696H31.6855V32.1821ZM32.623 30.3071H34.498V31.2446H32.623V30.3071Z" fill="white"/>
<path d="M26.998 32.1821H30.748V29.3696H26.998V32.1821ZM27.9355 30.3071H29.8105V31.2446H27.9355V30.3071Z" fill="white"/>
<path d="M23.248 32.1821H26.0605V29.3696H23.248V32.1821ZM24.1855 30.3071H25.123V31.2446H24.1855V30.3071Z" fill="white"/>
<path d="M26.998 26.5571H27.9355V27.4946H26.998V26.5571Z" fill="white"/>
<path d="M25.123 26.5571H26.0605V27.4946H25.123V26.5571Z" fill="white"/>
<path d="M28.873 26.5571H33.5605V27.4946H28.873V26.5571Z" fill="white"/>
</g>
<defs>
<clipPath id="clip0">
<rect width="30" height="30" fill="white" transform="translate(12.4668 12.9634)"/>
</clipPath>
</defs>
</svg>
