<svg width="24" height="26" viewBox="0 0 24 26" fill="none" xmlns="http://www.w3.org/2000/svg">
<path d="M10.1789 3.30351C9.51388 2.10248 9.94139 0.959758 10.7014 0.411717C11.4852 -0.159645 12.6015 -0.136324 13.3734 0.48168C14.1215 1.07636 14.4184 2.30071 13.8127 3.30351C14.1928 3.42011 14.5846 3.5134 14.9646 3.66498C18.3491 4.97095 20.261 7.39633 20.7598 10.9178C20.8192 11.3492 20.8311 11.7923 20.8311 12.2238C20.8429 13.9029 20.8311 15.582 20.8311 17.2611C20.8311 17.366 20.8311 17.471 20.8311 17.6109C21.2823 17.6109 21.698 17.6109 22.1255 17.6109C23.0042 17.6225 23.6574 18.089 23.9186 18.8819C24.2511 19.873 23.4792 21.0274 22.4223 21.1207C22.2442 21.1323 22.0661 21.144 21.888 21.144C19.4773 21.144 17.0547 21.144 14.644 21.144C14.5134 21.144 14.3946 21.144 14.2165 21.144C14.2165 21.5871 14.2165 21.9952 14.2165 22.415C14.2046 23.0213 14.0859 23.581 13.7177 24.0824C12.744 25.4001 10.927 25.2835 10.1314 23.8609C9.89389 23.4178 9.77514 22.963 9.77514 22.4616C9.77514 22.0302 9.77514 21.6104 9.77514 21.144C9.63263 21.144 9.50201 21.144 9.38325 21.144C6.91319 21.144 4.43125 21.144 1.96118 21.144C1.01116 21.144 0.393641 20.7242 0.0967577 19.8963C-0.271377 18.8702 0.453017 17.7275 1.55742 17.6225C1.96118 17.5759 2.36494 17.5992 2.7687 17.5876C2.88746 17.5876 2.99433 17.5876 3.14871 17.5876C3.14871 17.4243 3.14871 17.3077 3.14871 17.1794C3.16059 15.3138 3.13684 13.4481 3.18434 11.5824C3.23184 9.49521 3.99186 7.66452 5.39315 6.09036C6.60443 4.73774 8.10072 3.83989 9.88202 3.39679C9.96514 3.36181 10.072 3.32683 10.1789 3.30351Z" fill="black"/>
</svg>
