<svg width="30" height="30" viewBox="0 0 30 30" fill="none" xmlns="http://www.w3.org/2000/svg">
<circle cx="15" cy="15" r="15" fill="#F5C328"/>
<path d="M14.3542 16.464C14.3902 16.86 14.6422 17.112 15.0022 17.112C15.3622 17.112 15.6322 16.86 15.6682 16.464L16.2982 9.12C16.3342 8.688 16.0642 8.346 15.6502 8.346H14.3542C13.9402 8.346 13.6882 8.688 13.7242 9.12L14.3542 16.464ZM13.7242 19.668V19.848C13.7242 20.55 14.2822 21.09 15.0022 21.09C15.7402 21.09 16.2802 20.55 16.2802 19.848V19.668C16.2802 18.966 15.7402 18.426 15.0022 18.426C14.2822 18.426 13.7242 18.966 13.7242 19.668Z" fill="black"/>
</svg>
