<svg width="17" height="17" viewBox="0 0 17 17" fill="none" xmlns="http://www.w3.org/2000/svg">
<path d="M11.7401 5.86106L10.4094 5.81226L10.1208 13.6908L11.4516 13.7394L11.7401 5.86106Z" fill="#FF1E2D"/>
<path d="M9.16617 5.83667H7.83459V13.7153H9.16617V5.83667Z" fill="#FF1E2D"/>
<path d="M6.87959 13.6906L6.59109 5.81201L5.26038 5.86085L5.54891 13.7394L6.87959 13.6906Z" fill="#FF1E2D"/>
<path d="M0.577271 2.552V3.88358H1.9648L3.06555 16.3924C3.09573 16.7361 3.3836 16.9998 3.72868 16.9998H13.2493C13.5945 16.9998 13.8825 16.7359 13.9125 16.3921L15.0133 3.88358H16.4232V2.552H0.577271ZM12.6395 15.6682H4.33835L3.30149 3.88358H13.6766L12.6395 15.6682Z" fill="#FF1E2D"/>
<path d="M10.675 0H6.3251C5.71323 0 5.21545 0.497781 5.21545 1.10965V3.21801H6.54703V1.33158H10.453V3.21801H11.7846V1.10965C11.7846 0.497781 11.2868 0 10.675 0Z" fill="#FF1E2D"/>
</svg>
