<svg width="18" height="22" viewBox="0 0 18 22" fill="none" xmlns="http://www.w3.org/2000/svg">
<path d="M8.8874 22C7.46487 22.0393 5.95783 21.9607 4.49304 21.6597C3.66205 21.4896 2.84515 21.2409 2.11276 20.796C0.845152 20.0238 0.239519 18.8721 0.140927 17.5241C0.0423357 16.0714 -0.0562558 14.6056 0.0564202 13.1529C0.253603 10.4569 1.46487 8.19274 3.81698 6.51755C4.52121 6.02023 5.32402 5.7323 6.26769 5.75848C8.05642 5.79774 9.83107 5.81083 11.6198 5.75848C12.6902 5.7323 13.5775 6.08567 14.3663 6.6746C16.2113 8.06187 17.2959 9.88102 17.7325 12.0274C18.1128 13.912 18.0564 15.8358 17.8451 17.7335C17.6198 19.749 16.3663 20.9661 14.0987 21.5289C12.4085 21.9346 10.6902 22.0262 8.8874 22ZM5.52121 15.7835C5.54938 15.9929 5.54938 16.163 5.60571 16.3331C5.91557 17.4063 6.71839 18.0345 7.83107 18.3224C8.23952 18.4271 8.32402 18.5973 8.30994 18.9506C8.28177 19.9714 8.29585 19.9714 9.40853 19.9191C9.42262 19.9191 9.4367 19.9191 9.4367 19.9191C9.50712 19.8537 9.63388 19.7751 9.64797 19.7097C9.67614 19.3825 9.66205 19.0553 9.64797 18.7281C9.64797 18.5449 9.71839 18.4533 9.92966 18.3879C10.3522 18.2439 10.7888 18.0869 11.1691 17.8644C12.8311 16.8566 12.8592 14.8673 11.2113 13.8727C10.648 13.5324 9.97191 13.3885 9.33811 13.166C8.70431 12.9435 8.04233 12.7734 7.45078 12.4854C6.8029 12.1713 6.73247 11.53 7.18318 10.9804C7.47895 10.627 7.87332 10.4307 8.32402 10.3129C9.32402 10.0512 10.5353 10.4045 10.8733 11.1636C11.0846 11.6478 11.3663 11.7133 11.817 11.6609C11.8874 11.6478 11.9578 11.6609 12.0282 11.6609C12.4367 11.6609 12.479 11.6217 12.3944 11.2552C12.1268 10.1297 11.324 9.4884 10.1832 9.13504C9.67614 8.97799 9.66205 8.97799 9.66205 8.46758C9.66205 7.47293 9.66205 7.47293 8.56346 7.52528C8.36628 7.53837 8.29585 7.59072 8.29585 7.77395C8.30994 8.07496 8.29585 8.38906 8.29585 8.69007C8.30994 8.91255 8.22543 8.99108 7.986 9.0696C7.49304 9.25283 6.986 9.44914 6.54938 9.73706C5.26769 10.6008 5.15501 12.3415 6.30994 13.2968C6.94374 13.8203 7.71839 14.0952 8.53529 14.2915C9.16909 14.4485 9.81698 14.6449 10.4085 14.9197C11.1409 15.26 11.2254 16.0452 10.648 16.5949C10.0705 17.1576 9.33811 17.3147 8.54938 17.1969C7.77473 17.0791 7.12684 16.765 6.90149 15.9667C6.8874 15.9012 6.77473 15.8227 6.71839 15.8227C6.35219 15.7704 5.95783 15.7835 5.52121 15.7835Z" fill="white"/>
<path d="M8.95788 4.79002C7.84521 4.79002 6.73253 4.79002 5.61985 4.79002C5.47901 4.79002 5.29591 4.75076 5.2114 4.67223C4.47901 3.92625 3.84521 3.11483 3.59168 2.10709C3.43675 1.49198 3.52126 0.903049 3.85929 0.340288C4.0283 0.065452 4.23957 -0.0261601 4.56352 0.104714C4.90154 0.235589 5.23957 0.353376 5.5776 0.471163C6.42267 0.772174 7.25366 0.706737 8.07056 0.340288C8.19732 0.287939 8.33816 0.235589 8.45084 0.170152C8.81704 -0.052335 9.15506 -0.0261601 9.53535 0.183239C10.6199 0.772174 11.7466 0.785262 12.8875 0.287939C13.0001 0.235589 13.1269 0.196326 13.2396 0.157064C13.7748 -0.0392476 13.9015 1.47959e-05 14.1551 0.471163C14.5635 1.23023 14.5213 2.01548 14.1128 2.73529C13.7325 3.41584 13.2114 4.03095 12.7325 4.65915C12.6621 4.75076 12.479 4.79002 12.3382 4.79002C11.2114 4.79002 10.0846 4.79002 8.95788 4.79002Z" fill="white"/>
</svg>
