<svg width="55" height="55" viewBox="0 0 55 55" fill="none" xmlns="http://www.w3.org/2000/svg">
<circle opacity="0.5" cx="27.6732" cy="27.5067" r="27.2211" fill="#FFBF62"/>
<g clip-path="url(#clip0)">
<path d="M37.7476 36.7697V30.8952C37.7476 30.6525 37.5509 30.4558 37.3081 30.4558H31.7736C31.5309 30.4558 31.3342 30.6525 31.3342 30.8952V31.6865C31.3342 32.9475 30.3083 33.9734 29.0473 33.9734H26.3004C25.0394 33.9734 24.0135 32.9475 24.0135 31.6865V30.8952C24.0135 30.6525 23.8167 30.4558 23.574 30.4558H18.0396C17.7969 30.4558 17.6001 30.6525 17.6001 30.8952V36.7697C17.6001 37.0124 17.7969 37.2091 18.0396 37.2091C19.5877 37.2091 20.8471 38.4686 20.8471 40.0167C20.8471 40.2594 21.0439 40.4561 21.2866 40.4561H34.061C34.3038 40.4561 34.5005 40.2594 34.5005 40.0167C34.5005 38.4686 35.7599 37.2091 37.308 37.2091C37.5508 37.2091 37.7476 37.0124 37.7476 36.7697ZM36.8687 36.3562C35.1863 36.5569 33.8483 37.8949 33.6476 39.5772H21.7C21.4993 37.8949 20.1613 36.5569 18.479 36.3562V31.3347H23.1345V31.6865C23.1345 33.4322 24.5547 34.8524 26.3003 34.8524H29.0472C30.7928 34.8524 32.213 33.4322 32.213 31.6865V31.3347H36.8685V36.3562H36.8687Z" fill="white"/>
<path d="M18.4272 39.0914V39.244C18.4272 39.4868 18.624 39.6835 18.8667 39.6835C19.1094 39.6835 19.3062 39.4868 19.3062 39.244V39.0914C19.3062 38.8487 19.1094 38.652 18.8667 38.652C18.624 38.652 18.4272 38.8487 18.4272 39.0914Z" fill="white"/>
<path d="M36.041 39.0914V39.244C36.041 39.4868 36.2377 39.6835 36.4805 39.6835C36.7232 39.6835 36.9199 39.4868 36.9199 39.244V39.0914C36.9199 38.8487 36.7232 38.652 36.4805 38.652C36.2377 38.652 36.041 38.8487 36.041 39.0914Z" fill="white"/>
<path d="M31.3721 37.189H23.9761C23.7334 37.189 23.5366 37.3857 23.5366 37.6284C23.5366 37.8712 23.7334 38.0679 23.9761 38.0679H31.3721C31.6149 38.0679 31.8116 37.8712 31.8116 37.6284C31.8116 37.3857 31.6149 37.189 31.3721 37.189Z" fill="white"/>
<path d="M39.3589 38.0218C39.6016 38.0218 39.7983 37.8251 39.7983 37.5823V28.8444C39.7983 28.6016 39.6016 28.4049 39.3589 28.4049H37.9929V19.8533H38.9521C39.1948 19.8533 39.3915 19.6566 39.3915 19.4139V16.5038C39.3915 14.2999 37.5985 12.5068 35.3945 12.5068H22.7218C22.4791 12.5068 22.2824 12.7035 22.2824 12.9463C22.2824 13.189 22.4791 13.3857 22.7218 13.3857H35.3946C36.525 13.3857 37.5168 13.9905 38.0636 14.8934H17.2841C17.831 13.9905 18.8227 13.3857 19.9532 13.3857H20.9648C21.2075 13.3857 21.4042 13.189 21.4042 12.9463C21.4042 12.7035 21.2075 12.5068 20.9648 12.5068H19.9532C17.7492 12.5068 15.9561 14.2999 15.9561 16.5038V19.4139C15.9561 19.6566 16.1529 19.8533 16.3956 19.8533H17.3547V28.4049H15.9888C15.7461 28.4049 15.5493 28.6016 15.5493 28.8444V40.6114C15.5493 41.6566 16.3996 42.5068 17.4446 42.5068H37.903C38.9481 42.5068 39.7983 41.6566 39.7983 40.6114V39.3393C39.7983 39.0966 39.6016 38.8999 39.3589 38.8999C39.1161 38.8999 38.9194 39.0966 38.9194 39.3393V40.6114C38.9194 41.1719 38.4635 41.6279 37.903 41.6279H17.4446C16.8842 41.6279 16.4282 41.172 16.4282 40.6114V29.2838H25.1853V31.6864C25.1853 32.3013 25.6855 32.8015 26.3003 32.8015H29.0472C29.662 32.8015 30.1622 32.3013 30.1622 31.6864V29.2838H30.4472H38.9193V37.5823C38.9194 37.8251 39.1161 38.0218 39.3589 38.0218ZM16.835 16.5038C16.835 16.2519 16.8659 16.0071 16.9225 15.7723H38.4251C38.4817 16.0071 38.5126 16.2519 38.5126 16.5038V18.9744C36.8683 18.9744 32.1402 18.9744 30.1622 18.9744V18.1617C30.1622 17.6509 29.7466 17.2353 29.2358 17.2353H26.1116C25.6008 17.2353 25.1852 17.6509 25.1852 18.1617V18.9744C23.6175 18.9744 18.6012 18.9744 16.8349 18.9744V16.5038H16.835ZM29.2834 18.9744H26.0643V18.1617C26.0643 18.1355 26.0856 18.1142 26.1118 18.1142H29.236C29.2622 18.1142 29.2835 18.1355 29.2835 18.1617V18.9744H29.2834ZM19.7282 27.2725C19.7282 26.1062 20.677 25.1573 21.8433 25.1573C23.0096 25.1573 23.9584 26.1062 23.9584 27.2725C23.9584 27.6792 23.8449 28.0667 23.629 28.4049H20.0576C19.8417 28.0667 19.7282 27.6792 19.7282 27.2725ZM23.387 24.5829V23.6873C23.387 23.6572 23.4115 23.6327 23.4417 23.6327H26.5386H27.7105C27.7406 23.6327 27.7651 23.6572 27.7651 23.6873V24.5829C27.7651 24.613 27.7406 24.6375 27.7105 24.6375H23.4417C23.4115 24.6374 23.387 24.6129 23.387 24.5829ZM26.5932 22.6991C26.5932 22.7293 26.5688 22.7538 26.5386 22.7538C25.2631 22.7538 23.5487 22.7538 22.2698 22.7538C22.2397 22.7538 22.2151 22.7293 22.2151 22.6991V21.8036C22.2151 21.7734 22.2396 21.7489 22.2698 21.7489H26.5386C26.5688 21.7489 26.5932 21.7734 26.5932 21.8036V22.6991ZM24.6156 28.4049C24.7457 28.0878 24.8201 27.7497 24.8346 27.4001H27.7105C27.7406 27.4001 27.7652 27.4246 27.7652 27.4547V28.3503C27.7652 28.3805 27.7407 28.405 27.7105 28.405C27.1035 28.4049 25.2116 28.4049 24.6156 28.4049ZM27.7651 25.571V26.4666C27.7651 26.4967 27.7406 26.5212 27.7104 26.5212H24.7417C24.6466 26.1543 24.4829 25.8148 24.266 25.5164H27.7104C27.7406 25.5163 27.7651 25.5408 27.7651 25.571ZM29.2834 31.6864C29.2834 31.8167 29.1775 31.9226 29.0473 31.9226H26.3004C26.1702 31.9226 26.0643 31.8166 26.0643 31.6864V29.2838H29.2835V31.6864H29.2834ZM30.4474 28.4049C30.4172 28.4049 30.3927 28.3804 30.3927 28.3502V27.4547C30.3927 27.4245 30.4172 27.4 30.4474 27.4H34.7162C34.7463 27.4 34.7708 27.4245 34.7708 27.4547V28.3502C34.7708 28.3804 34.7463 28.4049 34.7162 28.4049H30.4474ZM35.4779 25.5163C35.508 25.5163 35.5325 25.5408 35.5325 25.571V26.4666C35.5325 26.4967 35.508 26.5212 35.4779 26.5212C34.5185 26.5212 32.0792 26.5212 31.2091 26.5212C31.1789 26.5212 31.1544 26.4967 31.1544 26.4666V25.571C31.1544 25.5408 31.1789 25.5163 31.2091 25.5163H35.4779ZM35.647 28.4049C35.648 28.3867 35.6497 28.3687 35.6497 28.3502V27.4547C35.6497 27.4308 35.6479 27.4075 35.6462 27.3841C36.0808 27.3046 36.4114 26.9238 36.4114 26.4666V25.571C36.4114 25.1138 36.0808 24.733 35.6462 24.6534C35.6479 24.6301 35.6497 24.6066 35.6497 24.5828V23.6873C35.6497 23.1725 35.231 22.7538 34.7162 22.7538H33.4623C33.2196 22.7538 33.0229 22.9505 33.0229 23.1932C33.0229 23.436 33.2196 23.6327 33.4623 23.6327H34.7162C34.7463 23.6327 34.7708 23.6572 34.7708 23.6873V24.5828C34.7708 24.613 34.7463 24.6375 34.7162 24.6375C34.211 24.6375 31.1298 24.6375 30.4474 24.6375C30.4172 24.6375 30.3927 24.613 30.3927 24.5828V23.6873C30.3927 23.6572 30.4172 23.6327 30.4474 23.6327H31.7053C31.948 23.6327 32.1447 23.436 32.1447 23.1932C32.1447 22.9505 31.948 22.7538 31.7053 22.7538H30.4474C29.9326 22.7538 29.5138 23.1725 29.5138 23.6873V24.5828C29.5138 25.04 29.8445 25.4208 30.2791 25.5004C30.2773 25.5238 30.2755 25.5472 30.2755 25.5711V26.4666C30.2755 26.4905 30.2773 26.5138 30.2791 26.5372C29.8445 26.6168 29.5138 26.9975 29.5138 27.4548V28.3504C29.5138 28.3688 29.5155 28.3868 29.5165 28.405H28.6413C28.6423 28.3869 28.644 28.3688 28.644 28.3504V27.4547C28.644 27.2732 28.5911 27.1041 28.5011 26.9606C28.5911 26.8171 28.644 26.6481 28.644 26.4666V25.571C28.644 25.3895 28.5911 25.2204 28.5011 25.077C28.5911 24.9335 28.644 24.7644 28.644 24.5829V23.6873C28.644 23.1725 28.2253 22.7538 27.7105 22.7538H27.4694C27.4704 22.7356 27.4721 22.7176 27.4721 22.6991V21.8036C27.4721 21.2888 27.0534 20.87 26.5386 20.87H22.2698C21.755 20.87 21.3362 21.2887 21.3362 21.8036V22.6991C21.3362 23.2138 21.755 23.6327 22.2698 23.6327H22.5109C22.5098 23.6508 22.5081 23.6688 22.5081 23.6873V24.3538C22.2942 24.305 22.0719 24.2784 21.8433 24.2784C20.1925 24.2784 18.8493 25.6215 18.8493 27.2725C18.8493 27.6673 18.9252 28.0493 19.071 28.4049H18.2336V19.8533H37.114V28.4049H35.647Z" fill="white"/>
</g>
<defs>
<clipPath id="clip0">
<rect width="30" height="30" fill="white" transform="translate(12.6738 12.5068)"/>
</clipPath>
</defs>
</svg>
