<svg width="25" height="25" viewBox="0 0 25 25" fill="none" xmlns="http://www.w3.org/2000/svg">
<g id="24 / finance / wallet">
<path id="icon" fill-rule="evenodd" clip-rule="evenodd" d="M16.0189 2.28645C17.081 1.983 18.188 2.59799 18.4914 3.66006C18.5425 3.83874 18.5684 4.02367 18.5684 4.2095V5.88377H20.5684C21.6729 5.88377 22.5684 6.7792 22.5684 7.88377V19.8838C22.5684 20.9883 21.6729 21.8838 20.5684 21.8838H4.56836C3.46379 21.8838 2.56836 20.9883 2.56836 19.8838H2.59506C2.57731 19.7762 2.56836 19.6673 2.56836 19.558V7.63807C2.56836 6.74511 3.16031 5.96034 4.01892 5.71502L16.0189 2.28645ZM10.7084 19.8838H20.5684V11.8838H18.5684V16.1295C18.5684 17.0224 17.9764 17.8072 17.1178 18.0525L10.7084 19.8838ZM20.5684 7.88377V9.88377H18.5684V7.88377H20.5684ZM4.56836 7.63804V19.558L16.5684 16.1294V4.20947L4.56836 7.63804ZM14.5684 9.88377C14.5684 10.4361 14.1206 10.8838 13.5684 10.8838C13.0161 10.8838 12.5684 10.4361 12.5684 9.88377C12.5684 9.33148 13.0161 8.88377 13.5684 8.88377C14.1206 8.88377 14.5684 9.33148 14.5684 9.88377Z" fill="white"/>
</g>
</svg>
