<svg width="27" height="27" viewBox="0 0 27 27" fill="none" xmlns="http://www.w3.org/2000/svg">
<path d="M16.4724 14.6684C14.9963 16.236 13.5203 17.7477 12.0442 19.3153C10.0005 21.4428 7.61609 23.2343 5.4588 25.2498C4.83432 25.8097 4.20983 25.8657 3.52858 25.3618C2.79056 24.8019 3.41504 24.2421 3.75567 23.7942C6.36713 20.267 8.75151 16.5719 10.3979 12.373C9.77339 13.2128 9.14891 14.1086 8.52443 14.9483C7.84318 15.8441 7.2187 16.7959 6.53744 17.6917C5.17494 19.4832 3.75567 21.2188 2.44993 23.0104C1.88222 23.7942 1.48483 23.5143 1.08743 22.8984C0.292637 21.7227 0.0655535 20.379 0.0655535 19.0353C0.0087825 15.1163 -0.0479885 11.1973 0.0655535 7.27822C0.179095 2.74333 3.01764 0 7.61609 0C11.4765 0 15.3937 0 19.2541 0C23.6255 0 26.4641 2.79932 26.4641 7.11026C26.4641 11.2532 26.4641 15.3962 26.4641 19.5392C26.4641 23.3463 23.6823 26.0336 19.8786 26.0896C16.1885 26.0896 12.4984 26.0896 8.80828 26.0896C8.29734 26.0896 7.50255 26.3696 7.27547 25.7537C7.10515 25.2498 7.89995 24.9139 8.29734 24.522C11.363 21.8347 14.0312 18.8114 16.5291 15.5642C16.6427 15.3962 16.7562 15.1723 16.8698 15.0043C16.7562 14.8924 16.6427 14.7804 16.4724 14.6684ZM19.8218 4.64686C17.6646 7.55815 15.5073 10.5814 13.2932 13.4367C11.0224 16.292 8.69474 19.0353 6.87807 22.2266C12.8958 17.5237 16.6994 11.3092 19.8218 4.64686Z" fill="white"/>
</svg>
