<svg width="25" height="25" viewBox="0 0 25 25" fill="none" xmlns="http://www.w3.org/2000/svg">
<rect x="0.318848" y="0.606934" width="24" height="24" rx="2" fill="#8CB13D"/>
<path fill-rule="evenodd" clip-rule="evenodd" d="M14.4754 5.98372C15.1392 5.79406 15.8311 6.17843 16.0208 6.84222C16.0527 6.9539 16.0688 7.06948 16.0688 7.18562V8.23204H17.3188C18.0092 8.23204 18.5688 8.79168 18.5688 9.48204V16.982C18.5688 17.6724 18.0092 18.232 17.3188 18.232H7.31885C6.62849 18.232 6.06885 17.6724 6.06885 16.982H6.08554C6.07444 16.9148 6.06885 16.8467 6.06885 16.7785V9.32848C6.06885 8.77038 6.43882 8.2799 6.97545 8.12658L14.4754 5.98372ZM11.1564 16.982H17.3188V11.982H16.0688V14.6356C16.0688 15.1937 15.6989 15.6842 15.1622 15.8375L11.1564 16.982ZM16.0688 9.48204H17.3188V10.732H16.0688V9.48204ZM7.31885 9.32846V16.7784L14.8188 14.6356V7.18561L7.31885 9.32846ZM13.5688 10.732C13.5688 11.0772 13.289 11.357 12.9438 11.357C12.5987 11.357 12.3188 11.0772 12.3188 10.732C12.3188 10.3869 12.5987 10.107 12.9438 10.107C13.289 10.107 13.5688 10.3869 13.5688 10.732Z" fill="white"/>
</svg>
