<?xml version="1.0" standalone="no"?>
<!DOCTYPE svg PUBLIC "-//W3C//DTD SVG 20010904//EN"
 "http://www.w3.org/TR/2001/REC-SVG-20010904/DTD/svg10.dtd">
<svg version="1.0" xmlns="http://www.w3.org/2000/svg"
 width="560.000000pt" height="560.000000pt" viewBox="0 0 560.000000 560.000000"
 preserveAspectRatio="xMidYMid meet">
<metadata>
Created by potrace 1.11, written by Peter Selinger 2001-2013
</metadata>
<g transform="translate(0.000000,560.000000) scale(0.100000,-0.100000)"
fill="#000000" stroke="none">
<path d="M1399 5516 c-2 -2 -32 -7 -66 -10 -35 -4 -68 -8 -75 -11 -7 -2 -31
-6 -53 -9 -62 -8 -217 -49 -275 -73 -8 -3 -20 -7 -27 -9 -35 -7 -276 -134
-293 -153 -3 -3 -30 -25 -60 -47 -139 -103 -266 -258 -357 -434 -56 -109 -113
-268 -136 -380 -3 -14 -7 -34 -10 -45 -3 -11 -8 -42 -11 -70 -4 -27 -9 -66
-11 -85 -27 -197 -28 -2716 -1 -2860 2 -14 8 -47 12 -75 4 -27 8 -52 9 -55 0
-3 4 -23 9 -45 37 -188 177 -449 270 -506 35 -21 76 -18 115 11 30 21 32 24
183 225 102 136 639 832 705 914 24 29 220 298 263 361 8 12 50 70 93 128 43
59 85 118 95 132 9 14 27 36 39 50 13 14 23 30 23 37 0 6 3 13 7 15 10 4 73
85 73 92 0 3 8 14 18 25 9 10 33 42 52 70 43 63 137 191 156 211 8 8 -24 -73
-70 -180 -103 -241 -137 -313 -151 -322 -5 -4 -7 -8 -3 -8 12 0 -171 -352
-295 -565 -39 -66 -75 -130 -81 -142 -6 -13 -14 -23 -18 -23 -5 0 -8 -6 -8
-12 0 -7 -17 -39 -38 -70 -20 -31 -55 -87 -77 -123 -22 -37 -45 -72 -50 -78
-6 -7 -31 -45 -55 -84 -25 -40 -48 -73 -52 -73 -5 0 -8 -4 -8 -9 0 -18 -460
-675 -490 -701 -22 -19 -69 -91 -79 -122 -18 -54 -8 -95 34 -138 55 -57 132
-92 208 -95 55 -2 73 2 124 27 33 16 82 50 110 76 159 147 225 207 383 341 69
58 130 111 135 117 6 6 55 48 110 95 55 46 113 96 130 111 16 14 39 35 51 45
256 222 484 444 784 762 80 84 177 186 215 226 39 40 136 141 215 225 80 84
170 178 201 211 l56 58 36 -30 c20 -17 37 -37 37 -46 0 -15 -99 -165 -142
-215 -13 -14 -50 -61 -83 -103 -33 -43 -68 -87 -77 -99 -10 -11 -21 -25 -26
-31 -4 -5 -37 -46 -72 -90 -36 -44 -72 -87 -80 -95 -8 -8 -35 -40 -60 -70 -24
-30 -52 -64 -62 -75 -43 -48 -66 -75 -113 -130 -27 -32 -65 -74 -83 -94 -18
-19 -55 -60 -82 -90 -159 -182 -599 -621 -794 -793 -27 -23 -63 -56 -80 -71
-17 -16 -66 -55 -108 -88 -43 -33 -89 -74 -103 -93 -32 -42 -33 -93 -2 -129
37 -43 66 -48 241 -41 89 3 690 7 1336 8 646 1 1186 5 1200 8 14 4 43 9 65 12
22 3 56 10 75 14 19 5 38 9 43 10 4 1 8 2 10 3 1 0 9 2 17 4 41 8 179 59 246
91 188 89 395 267 507 435 90 136 175 333 193 449 3 19 8 38 9 41 5 7 15 81
23 171 9 92 7 2816 -1 2883 -4 28 -10 75 -14 105 -7 58 -9 68 -13 73 -1 1 -3
11 -5 22 -17 119 -108 352 -183 469 -50 78 -126 171 -191 235 -62 59 -173 151
-184 151 -3 0 -29 16 -58 35 -30 19 -58 35 -63 35 -5 0 -17 6 -25 13 -20 17
-170 77 -192 77 -8 0 -19 4 -25 9 -10 9 -102 33 -228 58 -73 15 -227 17 -1497
20 -778 2 -1417 1 -1420 -1z m2696 -1022 c-8 -16 -71 -144 -140 -284 -131
-269 -274 -540 -381 -727 -35 -62 -64 -117 -64 -123 0 -5 -4 -10 -8 -10 -5 0
-17 -18 -27 -40 -10 -22 -22 -40 -27 -40 -4 0 -8 -5 -8 -11 0 -15 -167 -285
-303 -489 -112 -168 -147 -218 -266 -380 -68 -92 -70 -94 -284 -363 -12 -16
-31 -39 -42 -51 -11 -13 -45 -52 -75 -86 -185 -214 -435 -471 -605 -625 -43
-38 -83 -75 -89 -80 -6 -6 -47 -41 -91 -78 -44 -38 -95 -82 -112 -98 -18 -16
-36 -29 -40 -29 -5 0 -23 -16 -42 -35 -76 -78 -52 -23 81 188 144 229 269 409
451 652 116 154 295 385 307 395 3 3 17 21 30 40 13 19 32 42 42 51 10 9 18
21 18 27 0 6 3 12 8 14 7 3 82 93 129 155 12 15 31 39 43 53 24 28 31 36 155
195 48 61 92 117 98 125 7 8 23 31 37 50 13 19 27 37 30 40 4 3 33 41 66 85
32 44 64 85 69 91 6 7 18 22 27 35 9 13 62 85 118 159 55 74 108 146 118 159
9 14 51 70 92 125 42 56 105 142 140 191 36 50 67 92 70 95 3 3 28 37 55 75
27 39 53 75 57 80 12 14 143 192 258 350 52 72 99 135 105 141 16 19 17 9 0
-22z"/>
</g>
</svg>
