<svg width="192" height="239" viewBox="0 0 192 239" fill="none" xmlns="http://www.w3.org/2000/svg">
<g opacity="0.3">
<path d="M214.073 233.61L216.445 238.223C216.445 238.223 214.459 237.179 210.825 234.934C208.957 233.804 206.625 232.287 203.907 230.553C195.015 232.094 170.248 234.556 144.235 220.85C144.235 220.85 178.592 225.126 190.715 221.367C188.364 219.637 185.832 217.723 183.214 215.689C171.347 216.137 137.615 215.572 112.962 198.204C112.962 198.204 147.549 206.705 167.078 202.534C164.441 200.288 161.776 197.881 159.017 195.407C149.153 196.116 119.724 196.539 101.147 177.87C101.147 177.87 133.359 189.822 150.78 187.73C146.678 183.789 142.454 179.619 138.167 175.178C130.087 176.218 105.582 177.673 86.7672 161.532C86.7672 161.532 118.437 167.901 130.263 166.714C126.319 162.432 122.356 157.936 118.373 153.228C110.424 153.765 89.4479 153.782 73.0557 140.587C73.0557 140.587 97.5891 145.316 109.922 142.899C107.817 140.265 105.721 137.581 103.589 134.786C95.7659 135.185 71.3444 134.768 56.0943 116.619C56.0943 116.619 82.1854 127.143 96.6201 125.369C94.1586 121.999 91.7132 118.526 89.2837 114.952C82.2543 114.637 61.2493 111.822 42.8051 90.2933C42.8051 90.2933 70.7259 106.549 82.8318 105.249C80.1672 101.166 77.5699 96.9894 74.9965 92.6591C68.53 92.4329 46.8788 89.7262 32.4733 64.1683C32.4733 64.1683 57.1232 82.8977 69.2851 82.9153C66.9436 78.7784 64.6101 74.5904 62.3438 70.3082C57.5056 69.3941 43.7267 65.3006 34.9254 48.1606C34.9254 48.1606 47.3303 58.6899 57.3218 60.515C54.2446 54.3778 51.2426 48.0952 48.3237 41.6161C45.1521 40.4391 37.6237 36.2762 29.662 22.1479C29.662 22.1479 39.9462 31.8217 45.8991 35.9999C41.085 24.8777 36.5045 13.2684 32.2758 1.08571C36.1094 12.1069 87.0441 147.698 214.073 233.61Z" fill="#7B9C35"/>
<path d="M32.1655 1.12033C32.1031 0.848724 31.9816 0.620235 31.9112 0.39975C31.9112 0.39975 36.5173 12.851 46.7965 32.9453C50.1121 29.8507 50.2306 19.7097 50.2306 19.7097C52.0218 26.6931 51.9257 37.3613 51.721 42.3566C53.6658 46.0125 55.7914 49.8537 58.0976 53.8804C62.6497 44.2236 63.0049 33.9102 63.0049 33.9102C67.5439 48.1315 66.9823 62.4449 66.4608 68.1239C67.6731 70.0941 68.9286 72.1234 70.1842 74.1528C75.3439 70.6658 77.6201 49.0796 77.6201 49.0796C82.3014 64.737 80.8905 81.7979 79.9004 89.1317C81.8548 92.0559 83.9036 95.0472 85.9524 98.0386C88.6044 89.1319 92.6144 63.8369 92.6144 63.8369C97.881 88.4886 96.7388 105.173 95.9038 111.85C99.5392 116.765 103.277 121.697 107.263 126.719C111.154 116.592 111.284 91.633 111.284 91.633C118.787 116.739 118.905 133.411 118.474 140.518C120.949 143.471 123.474 146.432 126.051 149.402C128.018 138.503 127.454 107.255 127.454 107.255C137.682 129.017 138.001 153.785 137.749 162.439C139.901 164.766 142.062 167.041 144.266 169.376C146.723 154.678 145.258 116.115 145.258 116.115C153.246 139.465 158.035 174.201 159.323 184.405C160.914 185.963 162.514 187.47 164.156 189.037C165.684 170.894 163.735 127.385 163.735 127.385C172.883 167.779 174.427 190.748 174.696 198.75C176.26 200.147 177.868 201.603 179.483 203.008C182.231 190.136 178.666 148.574 178.666 148.574C191.545 180.544 191.856 205.363 191.503 213.32C192.713 214.295 193.865 215.313 195.076 216.288C199.372 199.888 192.404 156.955 192.404 156.955C203.087 180.831 206.351 214.596 207.148 225.927C208.736 227.171 210.332 228.363 211.92 229.607L214.022 233.601C87.0442 147.698 36.1095 12.1064 32.1655 1.12033Z" fill="#8CB13D"/>
</g>
</svg>
