<svg width="19" height="16" viewBox="0 0 19 16" fill="none" xmlns="http://www.w3.org/2000/svg">
<g clip-path="url(#clip0)">
<path d="M18.9846 5.99696C18.8923 5.99696 18.8153 5.99696 18.7384 5.99696C16.6144 5.99696 14.4905 5.99696 12.3742 5.99696C11.2584 5.99696 10.4119 6.92767 10.4504 8.08498C10.4889 9.15326 11.3354 9.98685 12.3973 9.99494C13.3593 10.003 14.3212 9.99494 15.2831 9.99494C16.4374 9.99494 17.5917 9.99494 18.7461 9.99494C18.823 9.99494 18.9 9.99494 18.9923 9.99494C18.9923 10.084 18.9923 10.1568 18.9923 10.2296C18.9923 11.7835 18.9769 13.3293 19 14.8832C19.0077 15.652 18.546 16 17.9303 16C12.305 15.9919 6.67963 15.9919 1.06197 15.9919C0.484812 15.9919 0.161604 15.7653 0.0384771 15.2797C0.00769542 15.1583 0.00769542 15.0288 0.00769542 14.8993C0 10.2944 0 5.68943 0 1.07638C0 0.356095 0.346294 0 1.03119 0C6.67193 0 12.3204 0 17.9611 0C18.5229 0 18.8384 0.226606 18.9692 0.71219C18.9923 0.801214 19 0.898331 19 0.995448C19 2.62215 19 4.24886 19 5.86748C18.9923 5.89985 18.9923 5.93222 18.9846 5.99696Z" fill="white"/>
<path d="M13.2977 7.99594C13.2977 8.55436 12.8745 8.99139 12.3435 8.99139C11.8125 8.99139 11.397 8.53818 11.4046 7.97975C11.4123 7.42942 11.8279 7.00049 12.3512 7.00049C12.8822 7.00049 13.2977 7.43752 13.2977 7.99594Z" fill="white"/>
</g>
<defs>
<clipPath id="clip0">
<rect width="19" height="16" fill="white"/>
</clipPath>
</defs>
</svg>
